<?xml version="1.0" encoding="UTF-8" standalone="no"?>
<!DOCTYPE svg PUBLIC "-//W3C//DTD SVG 1.1//EN"
 "http://www.w3.org/Graphics/SVG/1.1/DTD/svg11.dtd">
<!-- Generated by graphviz version 2.38.0 (20140413.2041)
 -->
<!-- Title: main Pages: 1 -->
<svg width="981pt" height="773pt"
 viewBox="0.00 0.00 980.85 773.00" xmlns="http://www.w3.org/2000/svg" xmlns:xlink="http://www.w3.org/1999/xlink">
<g id="graph0" class="graph" transform="scale(1 1) rotate(0) translate(4 769)">
<title>main</title>
<polygon fill="white" stroke="none" points="-4,4 -4,-769 976.85,-769 976.85,4 -4,4"/>
<!-- github.com/astaxie/beego -->
<g id="node1" class="node"><title>github.com/astaxie/beego</title>
<polygon fill="none" stroke="black" points="0,-137.5 0,-469.5 159.459,-469.5 159.459,-137.5 0,-137.5"/>
<text text-anchor="middle" x="79.7295" y="-454.3" font-family="Times,serif" font-size="14.00">beego</text>
<polyline fill="none" stroke="black" points="0,-447.5 159.459,-447.5 "/>
<text text-anchor="middle" x="79.7295" y="-432.3" font-family="Times,serif" font-size="14.00">github.com/astaxie/beego</text>
<polyline fill="none" stroke="black" points="0,-425.5 159.459,-425.5 "/>
<text text-anchor="middle" x="79.7295" y="-410.3" font-family="Times,serif" font-size="14.00">admin.go</text>
<text text-anchor="middle" x="79.7295" y="-396.3" font-family="Times,serif" font-size="14.00">adminui.go</text>
<text text-anchor="middle" x="79.7295" y="-382.3" font-family="Times,serif" font-size="14.00">app.go</text>
<text text-anchor="middle" x="79.7295" y="-368.3" font-family="Times,serif" font-size="14.00">beego.go</text>
<text text-anchor="middle" x="79.7295" y="-354.3" font-family="Times,serif" font-size="14.00">config.go</text>
<text text-anchor="middle" x="79.7295" y="-340.3" font-family="Times,serif" font-size="14.00">controller.go</text>
<text text-anchor="middle" x="79.7295" y="-326.3" font-family="Times,serif" font-size="14.00">doc.go</text>
<text text-anchor="middle" x="79.7295" y="-312.3" font-family="Times,serif" font-size="14.00">error.go</text>
<text text-anchor="middle" x="79.7295" y="-298.3" font-family="Times,serif" font-size="14.00">filter.go</text>
<text text-anchor="middle" x="79.7295" y="-284.3" font-family="Times,serif" font-size="14.00">flash.go</text>
<text text-anchor="middle" x="79.7295" y="-270.3" font-family="Times,serif" font-size="14.00">hooks.go</text>
<text text-anchor="middle" x="79.7295" y="-256.3" font-family="Times,serif" font-size="14.00">log.go</text>
<text text-anchor="middle" x="79.7295" y="-242.3" font-family="Times,serif" font-size="14.00">mime.go</text>
<text text-anchor="middle" x="79.7295" y="-228.3" font-family="Times,serif" font-size="14.00">namespace.go</text>
<text text-anchor="middle" x="79.7295" y="-214.3" font-family="Times,serif" font-size="14.00">parser.go</text>
<text text-anchor="middle" x="79.7295" y="-200.3" font-family="Times,serif" font-size="14.00">router.go</text>
<text text-anchor="middle" x="79.7295" y="-186.3" font-family="Times,serif" font-size="14.00">staticfile.go</text>
<text text-anchor="middle" x="79.7295" y="-172.3" font-family="Times,serif" font-size="14.00">template.go</text>
<text text-anchor="middle" x="79.7295" y="-158.3" font-family="Times,serif" font-size="14.00">templatefunc.go</text>
<text text-anchor="middle" x="79.7295" y="-144.3" font-family="Times,serif" font-size="14.00">tree.go</text>
</g>
<!-- github.com/astaxie/beego/grace -->
<g id="node2" class="node"><title>github.com/astaxie/beego/grace</title>
<polygon fill="none" stroke="black" points="237.697,-656.5 237.697,-764.5 431.349,-764.5 431.349,-656.5 237.697,-656.5"/>
<text text-anchor="middle" x="334.523" y="-749.3" font-family="Times,serif" font-size="14.00">grace</text>
<polyline fill="none" stroke="black" points="237.697,-742.5 431.349,-742.5 "/>
<text text-anchor="middle" x="334.523" y="-727.3" font-family="Times,serif" font-size="14.00">github.com/astaxie/beego/grace</text>
<polyline fill="none" stroke="black" points="237.697,-720.5 431.349,-720.5 "/>
<text text-anchor="middle" x="334.523" y="-705.3" font-family="Times,serif" font-size="14.00">conn.go</text>
<text text-anchor="middle" x="334.523" y="-691.3" font-family="Times,serif" font-size="14.00">grace.go</text>
<text text-anchor="middle" x="334.523" y="-677.3" font-family="Times,serif" font-size="14.00">listener.go</text>
<text text-anchor="middle" x="334.523" y="-663.3" font-family="Times,serif" font-size="14.00">server.go</text>
</g>
<!-- github.com/astaxie/beego&#45;&gt;github.com/astaxie/beego/grace -->
<g id="edge1" class="edge"><title>github.com/astaxie/beego&#45;&gt;github.com/astaxie/beego/grace</title>
<path fill="none" stroke="black" d="M130.173,-469.61C153.925,-530.26 187.088,-596.435 231.459,-647.5 231.864,-647.967 232.274,-648.431 232.688,-648.893"/>
<polygon fill="black" stroke="black" points="239.735,-656.168 229.545,-652.116 236.256,-652.577 232.778,-648.985 232.778,-648.985 232.778,-648.985 236.256,-652.577 236.01,-645.854 239.735,-656.168 239.735,-656.168"/>
</g>
<!-- github.com/astaxie/beego/logs -->
<g id="node3" class="node"><title>github.com/astaxie/beego/logs</title>
<polygon fill="none" stroke="black" points="241.18,-459.5 241.18,-637.5 427.866,-637.5 427.866,-459.5 241.18,-459.5"/>
<text text-anchor="middle" x="334.523" y="-622.3" font-family="Times,serif" font-size="14.00">logs</text>
<polyline fill="none" stroke="black" points="241.18,-615.5 427.866,-615.5 "/>
<text text-anchor="middle" x="334.523" y="-600.3" font-family="Times,serif" font-size="14.00">github.com/astaxie/beego/logs</text>
<polyline fill="none" stroke="black" points="241.18,-593.5 427.866,-593.5 "/>
<text text-anchor="middle" x="334.523" y="-578.3" font-family="Times,serif" font-size="14.00">color.go</text>
<text text-anchor="middle" x="334.523" y="-564.3" font-family="Times,serif" font-size="14.00">color_windows.go</text>
<text text-anchor="middle" x="334.523" y="-550.3" font-family="Times,serif" font-size="14.00">conn.go</text>
<text text-anchor="middle" x="334.523" y="-536.3" font-family="Times,serif" font-size="14.00">console.go</text>
<text text-anchor="middle" x="334.523" y="-522.3" font-family="Times,serif" font-size="14.00">file.go</text>
<text text-anchor="middle" x="334.523" y="-508.3" font-family="Times,serif" font-size="14.00">log.go</text>
<text text-anchor="middle" x="334.523" y="-494.3" font-family="Times,serif" font-size="14.00">logger.go</text>
<text text-anchor="middle" x="334.523" y="-480.3" font-family="Times,serif" font-size="14.00">multifile.go</text>
<text text-anchor="middle" x="334.523" y="-466.3" font-family="Times,serif" font-size="14.00">smtp.go</text>
</g>
<!-- github.com/astaxie/beego&#45;&gt;github.com/astaxie/beego/logs -->
<g id="edge2" class="edge"><title>github.com/astaxie/beego&#45;&gt;github.com/astaxie/beego/logs</title>
<path fill="none" stroke="black" d="M159.627,-380.671C182.74,-403.217 208.081,-427.877 231.459,-450.5 232.253,-451.269 233.051,-452.041 233.853,-452.816"/>
<polygon fill="black" stroke="black" points="241.141,-459.858 230.823,-456.146 237.545,-456.384 233.95,-452.91 233.95,-452.91 233.95,-452.91 237.545,-456.384 237.077,-449.673 241.141,-459.858 241.141,-459.858"/>
</g>
<!-- github.com/astaxie/beego/toolbox -->
<g id="node4" class="node"><title>github.com/astaxie/beego/toolbox</title>
<polygon fill="none" stroke="black" points="231.459,-332.5 231.459,-440.5 437.587,-440.5 437.587,-332.5 231.459,-332.5"/>
<text text-anchor="middle" x="334.523" y="-425.3" font-family="Times,serif" font-size="14.00">toolbox</text>
<polyline fill="none" stroke="black" points="231.459,-418.5 437.587,-418.5 "/>
<text text-anchor="middle" x="334.523" y="-403.3" font-family="Times,serif" font-size="14.00">github.com/astaxie/beego/toolbox</text>
<polyline fill="none" stroke="black" points="231.459,-396.5 437.587,-396.5 "/>
<text text-anchor="middle" x="334.523" y="-381.3" font-family="Times,serif" font-size="14.00">healthcheck.go</text>
<text text-anchor="middle" x="334.523" y="-367.3" font-family="Times,serif" font-size="14.00">profile.go</text>
<text text-anchor="middle" x="334.523" y="-353.3" font-family="Times,serif" font-size="14.00">statistics.go</text>
<text text-anchor="middle" x="334.523" y="-339.3" font-family="Times,serif" font-size="14.00">task.go</text>
</g>
<!-- github.com/astaxie/beego&#45;&gt;github.com/astaxie/beego/toolbox -->
<g id="edge3" class="edge"><title>github.com/astaxie/beego&#45;&gt;github.com/astaxie/beego/toolbox</title>
<path fill="none" stroke="black" d="M159.675,-329.42C179.273,-335.855 200.651,-342.874 221.501,-349.72"/>
<polygon fill="black" stroke="black" points="231.035,-352.85 220.13,-354.006 226.285,-351.29 221.534,-349.731 221.534,-349.731 221.534,-349.731 226.285,-351.29 222.938,-345.455 231.035,-352.85 231.035,-352.85"/>
</g>
<!-- github.com/astaxie/beego/utils -->
<g id="node5" class="node"><title>github.com/astaxie/beego/utils</title>
<polygon fill="none" stroke="black" points="785.384,-66.5 785.384,-216.5 972.85,-216.5 972.85,-66.5 785.384,-66.5"/>
<text text-anchor="middle" x="879.117" y="-201.3" font-family="Times,serif" font-size="14.00">utils</text>
<polyline fill="none" stroke="black" points="785.384,-194.5 972.85,-194.5 "/>
<text text-anchor="middle" x="879.117" y="-179.3" font-family="Times,serif" font-size="14.00">github.com/astaxie/beego/utils</text>
<polyline fill="none" stroke="black" points="785.384,-172.5 972.85,-172.5 "/>
<text text-anchor="middle" x="879.117" y="-157.3" font-family="Times,serif" font-size="14.00">caller.go</text>
<text text-anchor="middle" x="879.117" y="-143.3" font-family="Times,serif" font-size="14.00">debug.go</text>
<text text-anchor="middle" x="879.117" y="-129.3" font-family="Times,serif" font-size="14.00">file.go</text>
<text text-anchor="middle" x="879.117" y="-115.3" font-family="Times,serif" font-size="14.00">mail.go</text>
<text text-anchor="middle" x="879.117" y="-101.3" font-family="Times,serif" font-size="14.00">rand.go</text>
<text text-anchor="middle" x="879.117" y="-87.3" font-family="Times,serif" font-size="14.00">safemap.go</text>
<text text-anchor="middle" x="879.117" y="-73.3" font-family="Times,serif" font-size="14.00">slice.go</text>
</g>
<!-- github.com/astaxie/beego&#45;&gt;github.com/astaxie/beego/utils -->
<g id="edge4" class="edge"><title>github.com/astaxie/beego&#45;&gt;github.com/astaxie/beego/utils</title>
<path fill="none" stroke="black" d="M159.531,-303.934C232.164,-303.24 342.742,-299.414 437.587,-284.5 562.845,-264.803 593.44,-252.622 713.384,-211.5 733.904,-204.465 755.482,-196.061 776.016,-187.559"/>
<polygon fill="black" stroke="black" points="785.369,-183.65 777.878,-191.658 780.756,-185.578 776.143,-187.506 776.143,-187.506 776.143,-187.506 780.756,-185.578 774.407,-183.354 785.369,-183.65 785.369,-183.65"/>
</g>
<!-- github.com/astaxie/beego/config -->
<g id="node6" class="node"><title>github.com/astaxie/beego/config</title>
<polygon fill="none" stroke="black" points="235.349,-166.5 235.349,-274.5 433.697,-274.5 433.697,-166.5 235.349,-166.5"/>
<text text-anchor="middle" x="334.523" y="-259.3" font-family="Times,serif" font-size="14.00">config</text>
<polyline fill="none" stroke="black" points="235.349,-252.5 433.697,-252.5 "/>
<text text-anchor="middle" x="334.523" y="-237.3" font-family="Times,serif" font-size="14.00">github.com/astaxie/beego/config</text>
<polyline fill="none" stroke="black" points="235.349,-230.5 433.697,-230.5 "/>
<text text-anchor="middle" x="334.523" y="-215.3" font-family="Times,serif" font-size="14.00">config.go</text>
<text text-anchor="middle" x="334.523" y="-201.3" font-family="Times,serif" font-size="14.00">fake.go</text>
<text text-anchor="middle" x="334.523" y="-187.3" font-family="Times,serif" font-size="14.00">ini.go</text>
<text text-anchor="middle" x="334.523" y="-173.3" font-family="Times,serif" font-size="14.00">json.go</text>
</g>
<!-- github.com/astaxie/beego&#45;&gt;github.com/astaxie/beego/config -->
<g id="edge5" class="edge"><title>github.com/astaxie/beego&#45;&gt;github.com/astaxie/beego/config</title>
<path fill="none" stroke="black" d="M159.675,-277.58C180.497,-270.743 203.329,-263.247 225.401,-256"/>
<polygon fill="black" stroke="black" points="235.141,-252.802 227.044,-260.197 230.391,-254.362 225.64,-255.921 225.64,-255.921 225.64,-255.921 230.391,-254.362 224.236,-251.646 235.141,-252.802 235.141,-252.802"/>
</g>
<!-- github.com/astaxie/beego/session -->
<g id="node7" class="node"><title>github.com/astaxie/beego/session</title>
<polygon fill="none" stroke="black" points="509.587,-80.5 509.587,-202.5 713.384,-202.5 713.384,-80.5 509.587,-80.5"/>
<text text-anchor="middle" x="611.485" y="-187.3" font-family="Times,serif" font-size="14.00">session</text>
<polyline fill="none" stroke="black" points="509.587,-180.5 713.384,-180.5 "/>
<text text-anchor="middle" x="611.485" y="-165.3" font-family="Times,serif" font-size="14.00">github.com/astaxie/beego/session</text>
<polyline fill="none" stroke="black" points="509.587,-158.5 713.384,-158.5 "/>
<text text-anchor="middle" x="611.485" y="-143.3" font-family="Times,serif" font-size="14.00">sess_cookie.go</text>
<text text-anchor="middle" x="611.485" y="-129.3" font-family="Times,serif" font-size="14.00">sess_file.go</text>
<text text-anchor="middle" x="611.485" y="-115.3" font-family="Times,serif" font-size="14.00">sess_mem.go</text>
<text text-anchor="middle" x="611.485" y="-101.3" font-family="Times,serif" font-size="14.00">sess_utils.go</text>
<text text-anchor="middle" x="611.485" y="-87.3" font-family="Times,serif" font-size="14.00">session.go</text>
</g>
<!-- github.com/astaxie/beego&#45;&gt;github.com/astaxie/beego/session -->
<g id="edge6" class="edge"><title>github.com/astaxie/beego&#45;&gt;github.com/astaxie/beego/session</title>
<path fill="none" stroke="black" d="M159.617,-205.842C180.734,-186.045 205.1,-167.838 231.459,-156.5 315.843,-120.203 420.797,-119.008 498.853,-125.438"/>
<polygon fill="black" stroke="black" points="509.2,-126.347 498.844,-129.954 504.219,-125.909 499.239,-125.471 499.239,-125.471 499.239,-125.471 504.219,-125.909 499.633,-120.989 509.2,-126.347 509.2,-126.347"/>
</g>
<!-- github.com/astaxie/beego/context -->
<g id="node8" class="node"><title>github.com/astaxie/beego/context</title>
<polygon fill="none" stroke="black" points="232.245,-0.5 232.245,-108.5 436.801,-108.5 436.801,-0.5 232.245,-0.5"/>
<text text-anchor="middle" x="334.523" y="-93.3" font-family="Times,serif" font-size="14.00">context</text>
<polyline fill="none" stroke="black" points="232.245,-86.5 436.801,-86.5 "/>
<text text-anchor="middle" x="334.523" y="-71.3" font-family="Times,serif" font-size="14.00">github.com/astaxie/beego/context</text>
<polyline fill="none" stroke="black" points="232.245,-64.5 436.801,-64.5 "/>
<text text-anchor="middle" x="334.523" y="-49.3" font-family="Times,serif" font-size="14.00">acceptencoder.go</text>
<text text-anchor="middle" x="334.523" y="-35.3" font-family="Times,serif" font-size="14.00">context.go</text>
<text text-anchor="middle" x="334.523" y="-21.3" font-family="Times,serif" font-size="14.00">input.go</text>
<text text-anchor="middle" x="334.523" y="-7.3" font-family="Times,serif" font-size="14.00">output.go</text>
</g>
<!-- github.com/astaxie/beego&#45;&gt;github.com/astaxie/beego/context -->
<g id="edge8" class="edge"><title>github.com/astaxie/beego&#45;&gt;github.com/astaxie/beego/context</title>
<path fill="none" stroke="black" d="M159.788,-199.044C181.667,-173.052 206.341,-146.163 231.459,-123.5 234.63,-120.639 237.927,-117.804 241.312,-115.009"/>
<polygon fill="black" stroke="black" points="249.35,-108.567 244.362,-118.332 245.448,-111.694 241.547,-114.821 241.547,-114.821 241.547,-114.821 245.448,-111.694 238.733,-111.31 249.35,-108.567 249.35,-108.567"/>
</g>
<!-- github.com/astaxie/beego/session&#45;&gt;github.com/astaxie/beego/utils -->
<g id="edge7" class="edge"><title>github.com/astaxie/beego/session&#45;&gt;github.com/astaxie/beego/utils</title>
<path fill="none" stroke="black" d="M713.667,-141.5C733.735,-141.5 754.826,-141.5 774.959,-141.5"/>
<polygon fill="black" stroke="black" points="785.072,-141.5 775.072,-146 780.072,-141.5 775.072,-141.5 775.072,-141.5 775.072,-141.5 780.072,-141.5 775.072,-137 785.072,-141.5 785.072,-141.5"/>
</g>
<!-- github.com/astaxie/beego/context&#45;&gt;github.com/astaxie/beego/utils -->
<g id="edge9" class="edge"><title>github.com/astaxie/beego/context&#45;&gt;github.com/astaxie/beego/utils</title>
<path fill="none" stroke="black" d="M437.087,-48.8947C513.924,-47.0266 621.529,-49.5125 713.384,-70.5 734.089,-75.2309 755.454,-82.4801 775.657,-90.57"/>
<polygon fill="black" stroke="black" points="785.161,-94.4703 774.202,-94.8368 780.536,-92.572 775.91,-90.6737 775.91,-90.6737 775.91,-90.6737 780.536,-92.572 777.618,-86.5106 785.161,-94.4703 785.161,-94.4703"/>
</g>
<!-- github.com/astaxie/beego/context&#45;&gt;github.com/astaxie/beego/session -->
<g id="edge10" class="edge"><title>github.com/astaxie/beego/context&#45;&gt;github.com/astaxie/beego/session</title>
<path fill="none" stroke="black" d="M437.128,-86.6484C457.466,-93.0835 478.93,-99.875 499.565,-106.404"/>
<polygon fill="black" stroke="black" points="509.298,-109.484 498.407,-110.757 504.531,-107.975 499.764,-106.467 499.764,-106.467 499.764,-106.467 504.531,-107.975 501.122,-102.177 509.298,-109.484 509.298,-109.484"/>
</g>
</g>
</svg>
