<?xml version="1.0" encoding="UTF-8" standalone="no"?>
<!DOCTYPE svg PUBLIC "-//W3C//DTD SVG 1.1//EN"
 "http://www.w3.org/Graphics/SVG/1.1/DTD/svg11.dtd">
<!-- Generated by graphviz version 2.38.0 (20140413.2041)
 -->
<!-- Title: main Pages: 1 -->
<svg width="1762pt" height="2105pt"
 viewBox="0.00 0.00 1761.61 2105.00" xmlns="http://www.w3.org/2000/svg" xmlns:xlink="http://www.w3.org/1999/xlink">
<g id="graph0" class="graph" transform="scale(1 1) rotate(0) translate(4 2101)">
<title>main</title>
<polygon fill="white" stroke="none" points="-4,4 -4,-2101 1757.61,-2101 1757.61,4 -4,4"/>
<!-- github.com/labstack/echo -->
<g id="node1" class="node"><title>github.com/labstack/echo</title>
<polygon fill="none" stroke="black" points="0,-880.5 0,-1016.5 159.459,-1016.5 159.459,-880.5 0,-880.5"/>
<text text-anchor="middle" x="79.7295" y="-1001.3" font-family="Times,serif" font-size="14.00">echo</text>
<polyline fill="none" stroke="black" points="0,-994.5 159.459,-994.5 "/>
<text text-anchor="middle" x="79.7295" y="-979.3" font-family="Times,serif" font-size="14.00">github.com/labstack/echo</text>
<polyline fill="none" stroke="black" points="0,-972.5 159.459,-972.5 "/>
<text text-anchor="middle" x="79.7295" y="-957.3" font-family="Times,serif" font-size="14.00">binder.go</text>
<text text-anchor="middle" x="79.7295" y="-943.3" font-family="Times,serif" font-size="14.00">context.go</text>
<text text-anchor="middle" x="79.7295" y="-929.3" font-family="Times,serif" font-size="14.00">cookie.go</text>
<text text-anchor="middle" x="79.7295" y="-915.3" font-family="Times,serif" font-size="14.00">echo.go</text>
<text text-anchor="middle" x="79.7295" y="-901.3" font-family="Times,serif" font-size="14.00">group.go</text>
<text text-anchor="middle" x="79.7295" y="-887.3" font-family="Times,serif" font-size="14.00">router.go</text>
</g>
<!-- github.com/labstack/echo/engine -->
<g id="node2" class="node"><title>github.com/labstack/echo/engine</title>
<polygon fill="none" stroke="black" points="233.404,-1015.5 233.404,-1081.5 434.07,-1081.5 434.07,-1015.5 233.404,-1015.5"/>
<text text-anchor="middle" x="333.737" y="-1066.3" font-family="Times,serif" font-size="14.00">engine</text>
<polyline fill="none" stroke="black" points="233.404,-1059.5 434.07,-1059.5 "/>
<text text-anchor="middle" x="333.737" y="-1044.3" font-family="Times,serif" font-size="14.00">github.com/labstack/echo/engine</text>
<polyline fill="none" stroke="black" points="233.404,-1037.5 434.07,-1037.5 "/>
<text text-anchor="middle" x="333.737" y="-1022.3" font-family="Times,serif" font-size="14.00">engine.go</text>
</g>
<!-- github.com/labstack/echo&#45;&gt;github.com/labstack/echo/engine -->
<g id="edge1" class="edge"><title>github.com/labstack/echo&#45;&gt;github.com/labstack/echo/engine</title>
<path fill="none" stroke="black" d="M159.775,-979.866C185.101,-989.916 213.38,-1001.14 239.615,-1011.55"/>
<polygon fill="black" stroke="black" points="249.179,-1015.34 238.224,-1015.84 244.531,-1013.5 239.884,-1011.65 239.884,-1011.65 239.884,-1011.65 244.531,-1013.5 241.544,-1007.47 249.179,-1015.34 249.179,-1015.34"/>
</g>
<!-- github.com/labstack/echo/log -->
<g id="node3" class="node"><title>github.com/labstack/echo/log</title>
<polygon fill="none" stroke="black" points="508.015,-977.5 508.015,-1043.5 689.253,-1043.5 689.253,-977.5 508.015,-977.5"/>
<text text-anchor="middle" x="598.634" y="-1028.3" font-family="Times,serif" font-size="14.00">log</text>
<polyline fill="none" stroke="black" points="508.015,-1021.5 689.253,-1021.5 "/>
<text text-anchor="middle" x="598.634" y="-1006.3" font-family="Times,serif" font-size="14.00">github.com/labstack/echo/log</text>
<polyline fill="none" stroke="black" points="508.015,-999.5 689.253,-999.5 "/>
<text text-anchor="middle" x="598.634" y="-984.3" font-family="Times,serif" font-size="14.00">logger.go</text>
</g>
<!-- github.com/labstack/echo&#45;&gt;github.com/labstack/echo/log -->
<g id="edge10" class="edge"><title>github.com/labstack/echo&#45;&gt;github.com/labstack/echo/log</title>
<path fill="none" stroke="black" d="M159.517,-957.95C250.095,-968.815 398.943,-986.668 497.621,-998.504"/>
<polygon fill="black" stroke="black" points="507.605,-999.702 497.141,-1002.98 502.641,-999.106 497.677,-998.511 497.677,-998.511 497.677,-998.511 502.641,-999.106 498.213,-994.043 507.605,-999.702 507.605,-999.702"/>
</g>
<!-- github.com/labstack/gommon/log -->
<g id="node4" class="node"><title>github.com/labstack/gommon/log</title>
<polygon fill="none" stroke="black" points="761.253,-932.5 761.253,-1026.5 965.843,-1026.5 965.843,-932.5 761.253,-932.5"/>
<text text-anchor="middle" x="863.548" y="-1011.3" font-family="Times,serif" font-size="14.00">log</text>
<polyline fill="none" stroke="black" points="761.253,-1004.5 965.843,-1004.5 "/>
<text text-anchor="middle" x="863.548" y="-989.3" font-family="Times,serif" font-size="14.00">github.com/labstack/gommon/log</text>
<polyline fill="none" stroke="black" points="761.253,-982.5 965.843,-982.5 "/>
<text text-anchor="middle" x="863.548" y="-967.3" font-family="Times,serif" font-size="14.00">color.go</text>
<text text-anchor="middle" x="863.548" y="-953.3" font-family="Times,serif" font-size="14.00">log.go</text>
<text text-anchor="middle" x="863.548" y="-939.3" font-family="Times,serif" font-size="14.00">white.go</text>
</g>
<!-- github.com/labstack/echo&#45;&gt;github.com/labstack/gommon/log -->
<g id="edge14" class="edge"><title>github.com/labstack/echo&#45;&gt;github.com/labstack/gommon/log</title>
<path fill="none" stroke="black" d="M159.54,-950.006C275.586,-952.441 499.236,-957.958 689.253,-967.5 709.184,-968.501 730.39,-969.786 750.88,-971.142"/>
<polygon fill="black" stroke="black" points="760.872,-971.812 750.593,-975.633 755.883,-971.477 750.895,-971.143 750.895,-971.143 750.895,-971.143 755.883,-971.477 751.196,-966.653 760.872,-971.812 760.872,-971.812"/>
</g>
<!-- github.com/labstack/echo/context -->
<g id="node10" class="node"><title>github.com/labstack/echo/context</title>
<polygon fill="none" stroke="black" points="231.459,-825.5 231.459,-919.5 436.015,-919.5 436.015,-825.5 231.459,-825.5"/>
<text text-anchor="middle" x="333.737" y="-904.3" font-family="Times,serif" font-size="14.00">context</text>
<polyline fill="none" stroke="black" points="231.459,-897.5 436.015,-897.5 "/>
<text text-anchor="middle" x="333.737" y="-882.3" font-family="Times,serif" font-size="14.00">github.com/labstack/echo/context</text>
<polyline fill="none" stroke="black" points="231.459,-875.5 436.015,-875.5 "/>
<text text-anchor="middle" x="333.737" y="-860.3" font-family="Times,serif" font-size="14.00">context.go</text>
<text text-anchor="middle" x="333.737" y="-846.3" font-family="Times,serif" font-size="14.00">context_1.7.go</text>
<text text-anchor="middle" x="333.737" y="-832.3" font-family="Times,serif" font-size="14.00">context_pre1.7.go</text>
</g>
<!-- github.com/labstack/echo&#45;&gt;github.com/labstack/echo/context -->
<g id="edge11" class="edge"><title>github.com/labstack/echo&#45;&gt;github.com/labstack/echo/context</title>
<path fill="none" stroke="black" d="M159.775,-924.662C179.339,-918.762 200.665,-912.33 221.45,-906.062"/>
<polygon fill="black" stroke="black" points="231.276,-903.099 223.001,-910.294 226.488,-904.542 221.701,-905.986 221.701,-905.986 221.701,-905.986 226.488,-904.542 220.402,-901.678 231.276,-903.099 231.276,-903.099"/>
</g>
<!-- golang.org/x/net/context -->
<g id="node11" class="node"><title>golang.org/x/net/context</title>
<polygon fill="none" stroke="black" points="522.134,-787.5 522.134,-881.5 675.133,-881.5 675.133,-787.5 522.134,-787.5"/>
<text text-anchor="middle" x="598.634" y="-866.3" font-family="Times,serif" font-size="14.00">context</text>
<polyline fill="none" stroke="black" points="522.134,-859.5 675.133,-859.5 "/>
<text text-anchor="middle" x="598.634" y="-844.3" font-family="Times,serif" font-size="14.00">golang.org/x/net/context</text>
<polyline fill="none" stroke="black" points="522.134,-837.5 675.133,-837.5 "/>
<text text-anchor="middle" x="598.634" y="-822.3" font-family="Times,serif" font-size="14.00">context.go</text>
<text text-anchor="middle" x="598.634" y="-808.3" font-family="Times,serif" font-size="14.00">go17.go</text>
<text text-anchor="middle" x="598.634" y="-794.3" font-family="Times,serif" font-size="14.00">pre_go17.go</text>
</g>
<!-- github.com/labstack/echo&#45;&gt;golang.org/x/net/context -->
<g id="edge13" class="edge"><title>github.com/labstack/echo&#45;&gt;golang.org/x/net/context</title>
<path fill="none" stroke="black" d="M137.909,-880.259C163.57,-854.823 196.041,-828.892 231.459,-815.5 322.635,-781.025 435.747,-794.59 511.932,-811.06"/>
<polygon fill="black" stroke="black" points="521.966,-813.291 511.227,-815.513 517.085,-812.206 512.204,-811.12 512.204,-811.12 512.204,-811.12 517.085,-812.206 513.181,-806.727 521.966,-813.291 521.966,-813.291"/>
</g>
<!-- github.com/labstack/echo/engine&#45;&gt;github.com/labstack/echo/log -->
<g id="edge2" class="edge"><title>github.com/labstack/echo/engine&#45;&gt;github.com/labstack/echo/log</title>
<path fill="none" stroke="black" d="M434.127,-1034.13C454.87,-1031.14 476.747,-1027.97 497.517,-1024.97"/>
<polygon fill="black" stroke="black" points="507.614,-1023.51 498.36,-1029.4 502.665,-1024.23 497.716,-1024.94 497.716,-1024.94 497.716,-1024.94 502.665,-1024.23 497.073,-1020.49 507.614,-1023.51 507.614,-1023.51"/>
</g>
<!-- github.com/labstack/echo/log&#45;&gt;github.com/labstack/gommon/log -->
<g id="edge3" class="edge"><title>github.com/labstack/echo/log&#45;&gt;github.com/labstack/gommon/log</title>
<path fill="none" stroke="black" d="M689.379,-999.918C709.194,-997.582 730.419,-995.079 750.98,-992.655"/>
<polygon fill="black" stroke="black" points="761.012,-991.472 751.607,-997.112 756.046,-992.058 751.08,-992.643 751.08,-992.643 751.08,-992.643 756.046,-992.058 750.553,-988.174 761.012,-991.472 761.012,-991.472"/>
</g>
<!-- github.com/mattn/go&#45;colorable -->
<g id="node5" class="node"><title>github.com/mattn/go&#45;colorable</title>
<polygon fill="none" stroke="black" points="1050.68,-1039.5 1050.68,-1133.5 1240.47,-1133.5 1240.47,-1039.5 1050.68,-1039.5"/>
<text text-anchor="middle" x="1145.58" y="-1118.3" font-family="Times,serif" font-size="14.00">colorable</text>
<polyline fill="none" stroke="black" points="1050.68,-1111.5 1240.47,-1111.5 "/>
<text text-anchor="middle" x="1145.58" y="-1096.3" font-family="Times,serif" font-size="14.00">github.com/mattn/go&#45;colorable</text>
<polyline fill="none" stroke="black" points="1050.68,-1089.5 1240.47,-1089.5 "/>
<text text-anchor="middle" x="1145.58" y="-1074.3" font-family="Times,serif" font-size="14.00">colorable_others.go</text>
<text text-anchor="middle" x="1145.58" y="-1060.3" font-family="Times,serif" font-size="14.00">colorable_windows.go</text>
<text text-anchor="middle" x="1145.58" y="-1046.3" font-family="Times,serif" font-size="14.00">noncolorable.go</text>
</g>
<!-- github.com/labstack/gommon/log&#45;&gt;github.com/mattn/go&#45;colorable -->
<g id="edge4" class="edge"><title>github.com/labstack/gommon/log&#45;&gt;github.com/mattn/go&#45;colorable</title>
<path fill="none" stroke="black" d="M966.04,-1018.28C990.36,-1027.57 1016.36,-1037.51 1040.78,-1046.84"/>
<polygon fill="black" stroke="black" points="1050.42,-1050.52 1039.47,-1051.16 1045.75,-1048.74 1041.08,-1046.95 1041.08,-1046.95 1041.08,-1046.95 1045.75,-1048.74 1042.68,-1042.75 1050.42,-1050.52 1050.42,-1050.52"/>
</g>
<!-- github.com/mattn/go&#45;isatty -->
<g id="node6" class="node"><title>github.com/mattn/go&#45;isatty</title>
<polygon fill="none" stroke="black" points="1325.31,-980.5 1325.31,-1116.5 1493.35,-1116.5 1493.35,-980.5 1325.31,-980.5"/>
<text text-anchor="middle" x="1409.33" y="-1101.3" font-family="Times,serif" font-size="14.00">isatty</text>
<polyline fill="none" stroke="black" points="1325.31,-1094.5 1493.35,-1094.5 "/>
<text text-anchor="middle" x="1409.33" y="-1079.3" font-family="Times,serif" font-size="14.00">github.com/mattn/go&#45;isatty</text>
<polyline fill="none" stroke="black" points="1325.31,-1072.5 1493.35,-1072.5 "/>
<text text-anchor="middle" x="1409.33" y="-1057.3" font-family="Times,serif" font-size="14.00">doc.go</text>
<text text-anchor="middle" x="1409.33" y="-1043.3" font-family="Times,serif" font-size="14.00">isatty_appengine.go</text>
<text text-anchor="middle" x="1409.33" y="-1029.3" font-family="Times,serif" font-size="14.00">isatty_bsd.go</text>
<text text-anchor="middle" x="1409.33" y="-1015.3" font-family="Times,serif" font-size="14.00">isatty_linux.go</text>
<text text-anchor="middle" x="1409.33" y="-1001.3" font-family="Times,serif" font-size="14.00">isatty_solaris.go</text>
<text text-anchor="middle" x="1409.33" y="-987.3" font-family="Times,serif" font-size="14.00">isatty_windows.go</text>
</g>
<!-- github.com/labstack/gommon/log&#45;&gt;github.com/mattn/go&#45;isatty -->
<g id="edge7" class="edge"><title>github.com/labstack/gommon/log&#45;&gt;github.com/mattn/go&#45;isatty</title>
<path fill="none" stroke="black" d="M965.872,-992.357C1065.88,-1005.05 1217.55,-1024.29 1314.77,-1036.63"/>
<polygon fill="black" stroke="black" points="1324.88,-1037.91 1314.4,-1041.12 1319.92,-1037.28 1314.96,-1036.65 1314.96,-1036.65 1314.96,-1036.65 1319.92,-1037.28 1315.53,-1032.19 1324.88,-1037.91 1324.88,-1037.91"/>
</g>
<!-- github.com/valyala/fasttemplate -->
<g id="node8" class="node"><title>github.com/valyala/fasttemplate</title>
<polygon fill="none" stroke="black" points="1047.58,-915.5 1047.58,-981.5 1243.57,-981.5 1243.57,-915.5 1047.58,-915.5"/>
<text text-anchor="middle" x="1145.58" y="-966.3" font-family="Times,serif" font-size="14.00">fasttemplate</text>
<polyline fill="none" stroke="black" points="1047.58,-959.5 1243.57,-959.5 "/>
<text text-anchor="middle" x="1145.58" y="-944.3" font-family="Times,serif" font-size="14.00">github.com/valyala/fasttemplate</text>
<polyline fill="none" stroke="black" points="1047.58,-937.5 1243.57,-937.5 "/>
<text text-anchor="middle" x="1145.58" y="-922.3" font-family="Times,serif" font-size="14.00">template.go</text>
</g>
<!-- github.com/labstack/gommon/log&#45;&gt;github.com/valyala/fasttemplate -->
<g id="edge8" class="edge"><title>github.com/labstack/gommon/log&#45;&gt;github.com/valyala/fasttemplate</title>
<path fill="none" stroke="black" d="M966.04,-968.264C989.083,-965.714 1013.63,-962.996 1036.92,-960.418"/>
<polygon fill="black" stroke="black" points="1047.17,-959.283 1037.72,-964.856 1042.2,-959.833 1037.23,-960.384 1037.23,-960.384 1037.23,-960.384 1042.2,-959.833 1036.73,-955.911 1047.17,-959.283 1047.17,-959.283"/>
</g>
<!-- github.com/labstack/gommon/color -->
<g id="node9" class="node"><title>github.com/labstack/gommon/color</title>
<polygon fill="none" stroke="black" points="1037.84,-830.5 1037.84,-896.5 1253.31,-896.5 1253.31,-830.5 1037.84,-830.5"/>
<text text-anchor="middle" x="1145.58" y="-881.3" font-family="Times,serif" font-size="14.00">color</text>
<polyline fill="none" stroke="black" points="1037.84,-874.5 1253.31,-874.5 "/>
<text text-anchor="middle" x="1145.58" y="-859.3" font-family="Times,serif" font-size="14.00">github.com/labstack/gommon/color</text>
<polyline fill="none" stroke="black" points="1037.84,-852.5 1253.31,-852.5 "/>
<text text-anchor="middle" x="1145.58" y="-837.3" font-family="Times,serif" font-size="14.00">color.go</text>
</g>
<!-- github.com/labstack/gommon/log&#45;&gt;github.com/labstack/gommon/color -->
<g id="edge9" class="edge"><title>github.com/labstack/gommon/log&#45;&gt;github.com/labstack/gommon/color</title>
<path fill="none" stroke="black" d="M966.057,-935.577C989.573,-925.563 1014.54,-915.059 1037.84,-905.5 1042,-903.796 1046.25,-902.067 1050.54,-900.329"/>
<polygon fill="black" stroke="black" points="1060.01,-896.52 1052.41,-904.429 1055.37,-898.387 1050.73,-900.254 1050.73,-900.254 1050.73,-900.254 1055.37,-898.387 1049.05,-896.08 1060.01,-896.52 1060.01,-896.52"/>
</g>
<!-- github.com/mattn/go&#45;colorable&#45;&gt;github.com/mattn/go&#45;isatty -->
<g id="edge5" class="edge"><title>github.com/mattn/go&#45;colorable&#45;&gt;github.com/mattn/go&#45;isatty</title>
<path fill="none" stroke="black" d="M1240.7,-1072.83C1264.81,-1069.33 1290.74,-1065.57 1314.81,-1062.08"/>
<polygon fill="black" stroke="black" points="1325.01,-1060.6 1315.76,-1066.49 1320.06,-1061.31 1315.11,-1062.03 1315.11,-1062.03 1315.11,-1062.03 1320.06,-1061.31 1314.47,-1057.58 1325.01,-1060.6 1325.01,-1060.6"/>
</g>
<!-- golang.org/x/sys/unix -->
<g id="node7" class="node"><title>golang.org/x/sys/unix</title>
<polygon fill="none" stroke="black" points="1565.35,-0.5 1565.35,-2096.5 1753.61,-2096.5 1753.61,-0.5 1565.35,-0.5"/>
<text text-anchor="middle" x="1659.48" y="-2081.3" font-family="Times,serif" font-size="14.00">unix</text>
<polyline fill="none" stroke="black" points="1565.35,-2074.5 1753.61,-2074.5 "/>
<text text-anchor="middle" x="1659.48" y="-2059.3" font-family="Times,serif" font-size="14.00">golang.org/x/sys/unix</text>
<polyline fill="none" stroke="black" points="1565.35,-2052.5 1753.61,-2052.5 "/>
<text text-anchor="middle" x="1659.48" y="-2037.3" font-family="Times,serif" font-size="14.00">bluetooth_linux.go</text>
<text text-anchor="middle" x="1659.48" y="-2023.3" font-family="Times,serif" font-size="14.00">constants.go</text>
<text text-anchor="middle" x="1659.48" y="-2009.3" font-family="Times,serif" font-size="14.00">env_unix.go</text>
<text text-anchor="middle" x="1659.48" y="-1995.3" font-family="Times,serif" font-size="14.00">env_unset.go</text>
<text text-anchor="middle" x="1659.48" y="-1981.3" font-family="Times,serif" font-size="14.00">flock.go</text>
<text text-anchor="middle" x="1659.48" y="-1967.3" font-family="Times,serif" font-size="14.00">flock_linux_32bit.go</text>
<text text-anchor="middle" x="1659.48" y="-1953.3" font-family="Times,serif" font-size="14.00">gccgo.go</text>
<text text-anchor="middle" x="1659.48" y="-1939.3" font-family="Times,serif" font-size="14.00">gccgo_linux_amd64.go</text>
<text text-anchor="middle" x="1659.48" y="-1925.3" font-family="Times,serif" font-size="14.00">mkpost.go</text>
<text text-anchor="middle" x="1659.48" y="-1911.3" font-family="Times,serif" font-size="14.00">race.go</text>
<text text-anchor="middle" x="1659.48" y="-1897.3" font-family="Times,serif" font-size="14.00">race0.go</text>
<text text-anchor="middle" x="1659.48" y="-1883.3" font-family="Times,serif" font-size="14.00">sockcmsg_linux.go</text>
<text text-anchor="middle" x="1659.48" y="-1869.3" font-family="Times,serif" font-size="14.00">sockcmsg_unix.go</text>
<text text-anchor="middle" x="1659.48" y="-1855.3" font-family="Times,serif" font-size="14.00">str.go</text>
<text text-anchor="middle" x="1659.48" y="-1841.3" font-family="Times,serif" font-size="14.00">syscall.go</text>
<text text-anchor="middle" x="1659.48" y="-1827.3" font-family="Times,serif" font-size="14.00">syscall_bsd.go</text>
<text text-anchor="middle" x="1659.48" y="-1813.3" font-family="Times,serif" font-size="14.00">syscall_darwin.go</text>
<text text-anchor="middle" x="1659.48" y="-1799.3" font-family="Times,serif" font-size="14.00">syscall_darwin_386.go</text>
<text text-anchor="middle" x="1659.48" y="-1785.3" font-family="Times,serif" font-size="14.00">syscall_darwin_amd64.go</text>
<text text-anchor="middle" x="1659.48" y="-1771.3" font-family="Times,serif" font-size="14.00">syscall_darwin_arm.go</text>
<text text-anchor="middle" x="1659.48" y="-1757.3" font-family="Times,serif" font-size="14.00">syscall_darwin_arm64.go</text>
<text text-anchor="middle" x="1659.48" y="-1743.3" font-family="Times,serif" font-size="14.00">syscall_dragonfly.go</text>
<text text-anchor="middle" x="1659.48" y="-1729.3" font-family="Times,serif" font-size="14.00">syscall_dragonfly_amd64.go</text>
<text text-anchor="middle" x="1659.48" y="-1715.3" font-family="Times,serif" font-size="14.00">syscall_freebsd.go</text>
<text text-anchor="middle" x="1659.48" y="-1701.3" font-family="Times,serif" font-size="14.00">syscall_freebsd_386.go</text>
<text text-anchor="middle" x="1659.48" y="-1687.3" font-family="Times,serif" font-size="14.00">syscall_freebsd_amd64.go</text>
<text text-anchor="middle" x="1659.48" y="-1673.3" font-family="Times,serif" font-size="14.00">syscall_freebsd_arm.go</text>
<text text-anchor="middle" x="1659.48" y="-1659.3" font-family="Times,serif" font-size="14.00">syscall_linux.go</text>
<text text-anchor="middle" x="1659.48" y="-1645.3" font-family="Times,serif" font-size="14.00">syscall_linux_386.go</text>
<text text-anchor="middle" x="1659.48" y="-1631.3" font-family="Times,serif" font-size="14.00">syscall_linux_amd64.go</text>
<text text-anchor="middle" x="1659.48" y="-1617.3" font-family="Times,serif" font-size="14.00">syscall_linux_arm.go</text>
<text text-anchor="middle" x="1659.48" y="-1603.3" font-family="Times,serif" font-size="14.00">syscall_linux_arm64.go</text>
<text text-anchor="middle" x="1659.48" y="-1589.3" font-family="Times,serif" font-size="14.00">syscall_linux_mips64x.go</text>
<text text-anchor="middle" x="1659.48" y="-1575.3" font-family="Times,serif" font-size="14.00">syscall_linux_ppc64x.go</text>
<text text-anchor="middle" x="1659.48" y="-1561.3" font-family="Times,serif" font-size="14.00">syscall_linux_s390x.go</text>
<text text-anchor="middle" x="1659.48" y="-1547.3" font-family="Times,serif" font-size="14.00">syscall_netbsd.go</text>
<text text-anchor="middle" x="1659.48" y="-1533.3" font-family="Times,serif" font-size="14.00">syscall_netbsd_386.go</text>
<text text-anchor="middle" x="1659.48" y="-1519.3" font-family="Times,serif" font-size="14.00">syscall_netbsd_amd64.go</text>
<text text-anchor="middle" x="1659.48" y="-1505.3" font-family="Times,serif" font-size="14.00">syscall_netbsd_arm.go</text>
<text text-anchor="middle" x="1659.48" y="-1491.3" font-family="Times,serif" font-size="14.00">syscall_no_getwd.go</text>
<text text-anchor="middle" x="1659.48" y="-1477.3" font-family="Times,serif" font-size="14.00">syscall_openbsd.go</text>
<text text-anchor="middle" x="1659.48" y="-1463.3" font-family="Times,serif" font-size="14.00">syscall_openbsd_386.go</text>
<text text-anchor="middle" x="1659.48" y="-1449.3" font-family="Times,serif" font-size="14.00">syscall_openbsd_amd64.go</text>
<text text-anchor="middle" x="1659.48" y="-1435.3" font-family="Times,serif" font-size="14.00">syscall_solaris.go</text>
<text text-anchor="middle" x="1659.48" y="-1421.3" font-family="Times,serif" font-size="14.00">syscall_solaris_amd64.go</text>
<text text-anchor="middle" x="1659.48" y="-1407.3" font-family="Times,serif" font-size="14.00">syscall_unix.go</text>
<text text-anchor="middle" x="1659.48" y="-1393.3" font-family="Times,serif" font-size="14.00">types_darwin.go</text>
<text text-anchor="middle" x="1659.48" y="-1379.3" font-family="Times,serif" font-size="14.00">types_dragonfly.go</text>
<text text-anchor="middle" x="1659.48" y="-1365.3" font-family="Times,serif" font-size="14.00">types_freebsd.go</text>
<text text-anchor="middle" x="1659.48" y="-1351.3" font-family="Times,serif" font-size="14.00">types_linux.go</text>
<text text-anchor="middle" x="1659.48" y="-1337.3" font-family="Times,serif" font-size="14.00">types_netbsd.go</text>
<text text-anchor="middle" x="1659.48" y="-1323.3" font-family="Times,serif" font-size="14.00">types_openbsd.go</text>
<text text-anchor="middle" x="1659.48" y="-1309.3" font-family="Times,serif" font-size="14.00">types_solaris.go</text>
<text text-anchor="middle" x="1659.48" y="-1295.3" font-family="Times,serif" font-size="14.00">zerrors_darwin_386.go</text>
<text text-anchor="middle" x="1659.48" y="-1281.3" font-family="Times,serif" font-size="14.00">zerrors_darwin_amd64.go</text>
<text text-anchor="middle" x="1659.48" y="-1267.3" font-family="Times,serif" font-size="14.00">zerrors_darwin_arm.go</text>
<text text-anchor="middle" x="1659.48" y="-1253.3" font-family="Times,serif" font-size="14.00">zerrors_darwin_arm64.go</text>
<text text-anchor="middle" x="1659.48" y="-1239.3" font-family="Times,serif" font-size="14.00">zerrors_dragonfly_amd64.go</text>
<text text-anchor="middle" x="1659.48" y="-1225.3" font-family="Times,serif" font-size="14.00">zerrors_freebsd_386.go</text>
<text text-anchor="middle" x="1659.48" y="-1211.3" font-family="Times,serif" font-size="14.00">zerrors_freebsd_amd64.go</text>
<text text-anchor="middle" x="1659.48" y="-1197.3" font-family="Times,serif" font-size="14.00">zerrors_freebsd_arm.go</text>
<text text-anchor="middle" x="1659.48" y="-1183.3" font-family="Times,serif" font-size="14.00">zerrors_linux_386.go</text>
<text text-anchor="middle" x="1659.48" y="-1169.3" font-family="Times,serif" font-size="14.00">zerrors_linux_amd64.go</text>
<text text-anchor="middle" x="1659.48" y="-1155.3" font-family="Times,serif" font-size="14.00">zerrors_linux_arm.go</text>
<text text-anchor="middle" x="1659.48" y="-1141.3" font-family="Times,serif" font-size="14.00">zerrors_linux_arm64.go</text>
<text text-anchor="middle" x="1659.48" y="-1127.3" font-family="Times,serif" font-size="14.00">zerrors_linux_mips64.go</text>
<text text-anchor="middle" x="1659.48" y="-1113.3" font-family="Times,serif" font-size="14.00">zerrors_linux_mips64le.go</text>
<text text-anchor="middle" x="1659.48" y="-1099.3" font-family="Times,serif" font-size="14.00">zerrors_linux_ppc64.go</text>
<text text-anchor="middle" x="1659.48" y="-1085.3" font-family="Times,serif" font-size="14.00">zerrors_linux_ppc64le.go</text>
<text text-anchor="middle" x="1659.48" y="-1071.3" font-family="Times,serif" font-size="14.00">zerrors_linux_s390x.go</text>
<text text-anchor="middle" x="1659.48" y="-1057.3" font-family="Times,serif" font-size="14.00">zerrors_netbsd_386.go</text>
<text text-anchor="middle" x="1659.48" y="-1043.3" font-family="Times,serif" font-size="14.00">zerrors_netbsd_amd64.go</text>
<text text-anchor="middle" x="1659.48" y="-1029.3" font-family="Times,serif" font-size="14.00">zerrors_netbsd_arm.go</text>
<text text-anchor="middle" x="1659.48" y="-1015.3" font-family="Times,serif" font-size="14.00">zerrors_openbsd_386.go</text>
<text text-anchor="middle" x="1659.48" y="-1001.3" font-family="Times,serif" font-size="14.00">zerrors_openbsd_amd64.go</text>
<text text-anchor="middle" x="1659.48" y="-987.3" font-family="Times,serif" font-size="14.00">zerrors_solaris_amd64.go</text>
<text text-anchor="middle" x="1659.48" y="-973.3" font-family="Times,serif" font-size="14.00">zsyscall_darwin_386.go</text>
<text text-anchor="middle" x="1659.48" y="-959.3" font-family="Times,serif" font-size="14.00">zsyscall_darwin_amd64.go</text>
<text text-anchor="middle" x="1659.48" y="-945.3" font-family="Times,serif" font-size="14.00">zsyscall_darwin_arm.go</text>
<text text-anchor="middle" x="1659.48" y="-931.3" font-family="Times,serif" font-size="14.00">zsyscall_darwin_arm64.go</text>
<text text-anchor="middle" x="1659.48" y="-917.3" font-family="Times,serif" font-size="14.00">zsyscall_dragonfly_amd64.go</text>
<text text-anchor="middle" x="1659.48" y="-903.3" font-family="Times,serif" font-size="14.00">zsyscall_freebsd_386.go</text>
<text text-anchor="middle" x="1659.48" y="-889.3" font-family="Times,serif" font-size="14.00">zsyscall_freebsd_amd64.go</text>
<text text-anchor="middle" x="1659.48" y="-875.3" font-family="Times,serif" font-size="14.00">zsyscall_freebsd_arm.go</text>
<text text-anchor="middle" x="1659.48" y="-861.3" font-family="Times,serif" font-size="14.00">zsyscall_linux_386.go</text>
<text text-anchor="middle" x="1659.48" y="-847.3" font-family="Times,serif" font-size="14.00">zsyscall_linux_amd64.go</text>
<text text-anchor="middle" x="1659.48" y="-833.3" font-family="Times,serif" font-size="14.00">zsyscall_linux_arm.go</text>
<text text-anchor="middle" x="1659.48" y="-819.3" font-family="Times,serif" font-size="14.00">zsyscall_linux_arm64.go</text>
<text text-anchor="middle" x="1659.48" y="-805.3" font-family="Times,serif" font-size="14.00">zsyscall_linux_mips64.go</text>
<text text-anchor="middle" x="1659.48" y="-791.3" font-family="Times,serif" font-size="14.00">zsyscall_linux_mips64le.go</text>
<text text-anchor="middle" x="1659.48" y="-777.3" font-family="Times,serif" font-size="14.00">zsyscall_linux_ppc64.go</text>
<text text-anchor="middle" x="1659.48" y="-763.3" font-family="Times,serif" font-size="14.00">zsyscall_linux_ppc64le.go</text>
<text text-anchor="middle" x="1659.48" y="-749.3" font-family="Times,serif" font-size="14.00">zsyscall_linux_s390x.go</text>
<text text-anchor="middle" x="1659.48" y="-735.3" font-family="Times,serif" font-size="14.00">zsyscall_netbsd_386.go</text>
<text text-anchor="middle" x="1659.48" y="-721.3" font-family="Times,serif" font-size="14.00">zsyscall_netbsd_amd64.go</text>
<text text-anchor="middle" x="1659.48" y="-707.3" font-family="Times,serif" font-size="14.00">zsyscall_netbsd_arm.go</text>
<text text-anchor="middle" x="1659.48" y="-693.3" font-family="Times,serif" font-size="14.00">zsyscall_openbsd_386.go</text>
<text text-anchor="middle" x="1659.48" y="-679.3" font-family="Times,serif" font-size="14.00">zsyscall_openbsd_amd64.go</text>
<text text-anchor="middle" x="1659.48" y="-665.3" font-family="Times,serif" font-size="14.00">zsyscall_solaris_amd64.go</text>
<text text-anchor="middle" x="1659.48" y="-651.3" font-family="Times,serif" font-size="14.00">zsysctl_openbsd.go</text>
<text text-anchor="middle" x="1659.48" y="-637.3" font-family="Times,serif" font-size="14.00">zsysnum_darwin_386.go</text>
<text text-anchor="middle" x="1659.48" y="-623.3" font-family="Times,serif" font-size="14.00">zsysnum_darwin_amd64.go</text>
<text text-anchor="middle" x="1659.48" y="-609.3" font-family="Times,serif" font-size="14.00">zsysnum_darwin_arm.go</text>
<text text-anchor="middle" x="1659.48" y="-595.3" font-family="Times,serif" font-size="14.00">zsysnum_darwin_arm64.go</text>
<text text-anchor="middle" x="1659.48" y="-581.3" font-family="Times,serif" font-size="14.00">zsysnum_dragonfly_amd64.go</text>
<text text-anchor="middle" x="1659.48" y="-567.3" font-family="Times,serif" font-size="14.00">zsysnum_freebsd_386.go</text>
<text text-anchor="middle" x="1659.48" y="-553.3" font-family="Times,serif" font-size="14.00">zsysnum_freebsd_amd64.go</text>
<text text-anchor="middle" x="1659.48" y="-539.3" font-family="Times,serif" font-size="14.00">zsysnum_freebsd_arm.go</text>
<text text-anchor="middle" x="1659.48" y="-525.3" font-family="Times,serif" font-size="14.00">zsysnum_linux_386.go</text>
<text text-anchor="middle" x="1659.48" y="-511.3" font-family="Times,serif" font-size="14.00">zsysnum_linux_amd64.go</text>
<text text-anchor="middle" x="1659.48" y="-497.3" font-family="Times,serif" font-size="14.00">zsysnum_linux_arm.go</text>
<text text-anchor="middle" x="1659.48" y="-483.3" font-family="Times,serif" font-size="14.00">zsysnum_linux_arm64.go</text>
<text text-anchor="middle" x="1659.48" y="-469.3" font-family="Times,serif" font-size="14.00">zsysnum_linux_mips64.go</text>
<text text-anchor="middle" x="1659.48" y="-455.3" font-family="Times,serif" font-size="14.00">zsysnum_linux_mips64le.go</text>
<text text-anchor="middle" x="1659.48" y="-441.3" font-family="Times,serif" font-size="14.00">zsysnum_linux_ppc64.go</text>
<text text-anchor="middle" x="1659.48" y="-427.3" font-family="Times,serif" font-size="14.00">zsysnum_linux_ppc64le.go</text>
<text text-anchor="middle" x="1659.48" y="-413.3" font-family="Times,serif" font-size="14.00">zsysnum_linux_s390x.go</text>
<text text-anchor="middle" x="1659.48" y="-399.3" font-family="Times,serif" font-size="14.00">zsysnum_netbsd_386.go</text>
<text text-anchor="middle" x="1659.48" y="-385.3" font-family="Times,serif" font-size="14.00">zsysnum_netbsd_amd64.go</text>
<text text-anchor="middle" x="1659.48" y="-371.3" font-family="Times,serif" font-size="14.00">zsysnum_netbsd_arm.go</text>
<text text-anchor="middle" x="1659.48" y="-357.3" font-family="Times,serif" font-size="14.00">zsysnum_openbsd_386.go</text>
<text text-anchor="middle" x="1659.48" y="-343.3" font-family="Times,serif" font-size="14.00">zsysnum_openbsd_amd64.go</text>
<text text-anchor="middle" x="1659.48" y="-329.3" font-family="Times,serif" font-size="14.00">zsysnum_solaris_amd64.go</text>
<text text-anchor="middle" x="1659.48" y="-315.3" font-family="Times,serif" font-size="14.00">ztypes_darwin_386.go</text>
<text text-anchor="middle" x="1659.48" y="-301.3" font-family="Times,serif" font-size="14.00">ztypes_darwin_amd64.go</text>
<text text-anchor="middle" x="1659.48" y="-287.3" font-family="Times,serif" font-size="14.00">ztypes_darwin_arm.go</text>
<text text-anchor="middle" x="1659.48" y="-273.3" font-family="Times,serif" font-size="14.00">ztypes_darwin_arm64.go</text>
<text text-anchor="middle" x="1659.48" y="-259.3" font-family="Times,serif" font-size="14.00">ztypes_dragonfly_amd64.go</text>
<text text-anchor="middle" x="1659.48" y="-245.3" font-family="Times,serif" font-size="14.00">ztypes_freebsd_386.go</text>
<text text-anchor="middle" x="1659.48" y="-231.3" font-family="Times,serif" font-size="14.00">ztypes_freebsd_amd64.go</text>
<text text-anchor="middle" x="1659.48" y="-217.3" font-family="Times,serif" font-size="14.00">ztypes_freebsd_arm.go</text>
<text text-anchor="middle" x="1659.48" y="-203.3" font-family="Times,serif" font-size="14.00">ztypes_linux_386.go</text>
<text text-anchor="middle" x="1659.48" y="-189.3" font-family="Times,serif" font-size="14.00">ztypes_linux_amd64.go</text>
<text text-anchor="middle" x="1659.48" y="-175.3" font-family="Times,serif" font-size="14.00">ztypes_linux_arm.go</text>
<text text-anchor="middle" x="1659.48" y="-161.3" font-family="Times,serif" font-size="14.00">ztypes_linux_arm64.go</text>
<text text-anchor="middle" x="1659.48" y="-147.3" font-family="Times,serif" font-size="14.00">ztypes_linux_mips64.go</text>
<text text-anchor="middle" x="1659.48" y="-133.3" font-family="Times,serif" font-size="14.00">ztypes_linux_mips64le.go</text>
<text text-anchor="middle" x="1659.48" y="-119.3" font-family="Times,serif" font-size="14.00">ztypes_linux_ppc64.go</text>
<text text-anchor="middle" x="1659.48" y="-105.3" font-family="Times,serif" font-size="14.00">ztypes_linux_ppc64le.go</text>
<text text-anchor="middle" x="1659.48" y="-91.3" font-family="Times,serif" font-size="14.00">ztypes_linux_s390x.go</text>
<text text-anchor="middle" x="1659.48" y="-77.3" font-family="Times,serif" font-size="14.00">ztypes_netbsd_386.go</text>
<text text-anchor="middle" x="1659.48" y="-63.3" font-family="Times,serif" font-size="14.00">ztypes_netbsd_amd64.go</text>
<text text-anchor="middle" x="1659.48" y="-49.3" font-family="Times,serif" font-size="14.00">ztypes_netbsd_arm.go</text>
<text text-anchor="middle" x="1659.48" y="-35.3" font-family="Times,serif" font-size="14.00">ztypes_openbsd_386.go</text>
<text text-anchor="middle" x="1659.48" y="-21.3" font-family="Times,serif" font-size="14.00">ztypes_openbsd_amd64.go</text>
<text text-anchor="middle" x="1659.48" y="-7.3" font-family="Times,serif" font-size="14.00">ztypes_solaris_amd64.go</text>
</g>
<!-- github.com/mattn/go&#45;isatty&#45;&gt;golang.org/x/sys/unix -->
<g id="edge6" class="edge"><title>github.com/mattn/go&#45;isatty&#45;&gt;golang.org/x/sys/unix</title>
<path fill="none" stroke="black" d="M1493.65,-1048.5C1513.28,-1048.5 1534.45,-1048.5 1554.85,-1048.5"/>
<polygon fill="black" stroke="black" points="1565.12,-1048.5 1555.12,-1053 1560.12,-1048.5 1555.12,-1048.5 1555.12,-1048.5 1555.12,-1048.5 1560.12,-1048.5 1555.12,-1044 1565.12,-1048.5 1565.12,-1048.5"/>
</g>
<!-- github.com/labstack/echo/context&#45;&gt;golang.org/x/net/context -->
<g id="edge12" class="edge"><title>github.com/labstack/echo/context&#45;&gt;golang.org/x/net/context</title>
<path fill="none" stroke="black" d="M436.38,-857.808C461.286,-854.208 487.7,-850.39 511.783,-846.909"/>
<polygon fill="black" stroke="black" points="521.95,-845.44 512.697,-851.324 517.001,-846.155 512.053,-846.87 512.053,-846.87 512.053,-846.87 517.001,-846.155 511.409,-842.417 521.95,-845.44 521.95,-845.44"/>
</g>
</g>
</svg>
