<?xml version="1.0" encoding="UTF-8" standalone="no"?>
<!DOCTYPE svg PUBLIC "-//W3C//DTD SVG 1.1//EN"
 "http://www.w3.org/Graphics/SVG/1.1/DTD/svg11.dtd">
<!-- Generated by graphviz version 2.38.0 (20140413.2041)
 -->
<!-- Title: main Pages: 1 -->
<svg width="738pt" height="793pt"
 viewBox="0.00 0.00 738.17 793.00" xmlns="http://www.w3.org/2000/svg" xmlns:xlink="http://www.w3.org/1999/xlink">
<g id="graph0" class="graph" transform="scale(1 1) rotate(0) translate(4 789)">
<title>main</title>
<polygon fill="white" stroke="none" points="-4,4 -4,-789 734.173,-789 734.173,4 -4,4"/>
<!-- github.com/gin&#45;gonic/gin -->
<g id="node1" class="node"><title>github.com/gin&#45;gonic/gin</title>
<polygon fill="none" stroke="black" points="0,-103.5 0,-365.5 158.707,-365.5 158.707,-103.5 0,-103.5"/>
<text text-anchor="middle" x="79.3535" y="-350.3" font-family="Times,serif" font-size="14.00">gin</text>
<polyline fill="none" stroke="black" points="0,-343.5 158.707,-343.5 "/>
<text text-anchor="middle" x="79.3535" y="-328.3" font-family="Times,serif" font-size="14.00">github.com/gin&#45;gonic/gin</text>
<polyline fill="none" stroke="black" points="0,-321.5 158.707,-321.5 "/>
<text text-anchor="middle" x="79.3535" y="-306.3" font-family="Times,serif" font-size="14.00">auth.go</text>
<text text-anchor="middle" x="79.3535" y="-292.3" font-family="Times,serif" font-size="14.00">context.go</text>
<text text-anchor="middle" x="79.3535" y="-278.3" font-family="Times,serif" font-size="14.00">debug.go</text>
<text text-anchor="middle" x="79.3535" y="-264.3" font-family="Times,serif" font-size="14.00">deprecated.go</text>
<text text-anchor="middle" x="79.3535" y="-250.3" font-family="Times,serif" font-size="14.00">errors.go</text>
<text text-anchor="middle" x="79.3535" y="-236.3" font-family="Times,serif" font-size="14.00">fs.go</text>
<text text-anchor="middle" x="79.3535" y="-222.3" font-family="Times,serif" font-size="14.00">gin.go</text>
<text text-anchor="middle" x="79.3535" y="-208.3" font-family="Times,serif" font-size="14.00">logger.go</text>
<text text-anchor="middle" x="79.3535" y="-194.3" font-family="Times,serif" font-size="14.00">mode.go</text>
<text text-anchor="middle" x="79.3535" y="-180.3" font-family="Times,serif" font-size="14.00">path.go</text>
<text text-anchor="middle" x="79.3535" y="-166.3" font-family="Times,serif" font-size="14.00">recovery.go</text>
<text text-anchor="middle" x="79.3535" y="-152.3" font-family="Times,serif" font-size="14.00">response_writer.go</text>
<text text-anchor="middle" x="79.3535" y="-138.3" font-family="Times,serif" font-size="14.00">routergroup.go</text>
<text text-anchor="middle" x="79.3535" y="-124.3" font-family="Times,serif" font-size="14.00">tree.go</text>
<text text-anchor="middle" x="79.3535" y="-110.3" font-family="Times,serif" font-size="14.00">utils.go</text>
</g>
<!-- github.com/gin&#45;gonic/gin/binding -->
<g id="node2" class="node"><title>github.com/gin&#45;gonic/gin/binding</title>
<polygon fill="none" stroke="black" points="230.707,-444.5 230.707,-594.5 436.083,-594.5 436.083,-444.5 230.707,-444.5"/>
<text text-anchor="middle" x="333.395" y="-579.3" font-family="Times,serif" font-size="14.00">binding</text>
<polyline fill="none" stroke="black" points="230.707,-572.5 436.083,-572.5 "/>
<text text-anchor="middle" x="333.395" y="-557.3" font-family="Times,serif" font-size="14.00">github.com/gin&#45;gonic/gin/binding</text>
<polyline fill="none" stroke="black" points="230.707,-550.5 436.083,-550.5 "/>
<text text-anchor="middle" x="333.395" y="-535.3" font-family="Times,serif" font-size="14.00">binding.go</text>
<text text-anchor="middle" x="333.395" y="-521.3" font-family="Times,serif" font-size="14.00">default_validator.go</text>
<text text-anchor="middle" x="333.395" y="-507.3" font-family="Times,serif" font-size="14.00">form.go</text>
<text text-anchor="middle" x="333.395" y="-493.3" font-family="Times,serif" font-size="14.00">form_mapping.go</text>
<text text-anchor="middle" x="333.395" y="-479.3" font-family="Times,serif" font-size="14.00">json.go</text>
<text text-anchor="middle" x="333.395" y="-465.3" font-family="Times,serif" font-size="14.00">protobuf.go</text>
<text text-anchor="middle" x="333.395" y="-451.3" font-family="Times,serif" font-size="14.00">xml.go</text>
</g>
<!-- github.com/gin&#45;gonic/gin&#45;&gt;github.com/gin&#45;gonic/gin/binding -->
<g id="edge1" class="edge"><title>github.com/gin&#45;gonic/gin&#45;&gt;github.com/gin&#45;gonic/gin/binding</title>
<path fill="none" stroke="black" d="M158.719,-323.114C190.828,-359.421 227.777,-401.202 259.318,-436.867"/>
<polygon fill="black" stroke="black" points="265.963,-444.381 255.967,-439.871 262.651,-440.635 259.338,-436.89 259.338,-436.89 259.338,-436.89 262.651,-440.635 262.709,-433.909 265.963,-444.381 265.963,-444.381"/>
</g>
<!-- github.com/gin&#45;gonic/gin/render -->
<g id="node5" class="node"><title>github.com/gin&#45;gonic/gin/render</title>
<polygon fill="none" stroke="black" points="234.221,-226.5 234.221,-390.5 432.569,-390.5 432.569,-226.5 234.221,-226.5"/>
<text text-anchor="middle" x="333.395" y="-375.3" font-family="Times,serif" font-size="14.00">render</text>
<polyline fill="none" stroke="black" points="234.221,-368.5 432.569,-368.5 "/>
<text text-anchor="middle" x="333.395" y="-353.3" font-family="Times,serif" font-size="14.00">github.com/gin&#45;gonic/gin/render</text>
<polyline fill="none" stroke="black" points="234.221,-346.5 432.569,-346.5 "/>
<text text-anchor="middle" x="333.395" y="-331.3" font-family="Times,serif" font-size="14.00">data.go</text>
<text text-anchor="middle" x="333.395" y="-317.3" font-family="Times,serif" font-size="14.00">html.go</text>
<text text-anchor="middle" x="333.395" y="-303.3" font-family="Times,serif" font-size="14.00">json.go</text>
<text text-anchor="middle" x="333.395" y="-289.3" font-family="Times,serif" font-size="14.00">redirect.go</text>
<text text-anchor="middle" x="333.395" y="-275.3" font-family="Times,serif" font-size="14.00">render.go</text>
<text text-anchor="middle" x="333.395" y="-261.3" font-family="Times,serif" font-size="14.00">text.go</text>
<text text-anchor="middle" x="333.395" y="-247.3" font-family="Times,serif" font-size="14.00">xml.go</text>
<text text-anchor="middle" x="333.395" y="-233.3" font-family="Times,serif" font-size="14.00">yaml.go</text>
</g>
<!-- github.com/gin&#45;gonic/gin&#45;&gt;github.com/gin&#45;gonic/gin/render -->
<g id="edge4" class="edge"><title>github.com/gin&#45;gonic/gin&#45;&gt;github.com/gin&#45;gonic/gin/render</title>
<path fill="none" stroke="black" d="M158.719,-257.508C179.489,-263.607 202.285,-270.299 224.332,-276.772"/>
<polygon fill="black" stroke="black" points="234.061,-279.629 223.198,-281.129 229.264,-278.22 224.466,-276.812 224.466,-276.812 224.466,-276.812 229.264,-278.22 225.734,-272.494 234.061,-279.629 234.061,-279.629"/>
</g>
<!-- github.com/manucorporat/sse -->
<g id="node7" class="node"><title>github.com/manucorporat/sse</title>
<polygon fill="none" stroke="black" points="242.386,-113.5 242.386,-207.5 424.404,-207.5 424.404,-113.5 242.386,-113.5"/>
<text text-anchor="middle" x="333.395" y="-192.3" font-family="Times,serif" font-size="14.00">sse</text>
<polyline fill="none" stroke="black" points="242.386,-185.5 424.404,-185.5 "/>
<text text-anchor="middle" x="333.395" y="-170.3" font-family="Times,serif" font-size="14.00">github.com/manucorporat/sse</text>
<polyline fill="none" stroke="black" points="242.386,-163.5 424.404,-163.5 "/>
<text text-anchor="middle" x="333.395" y="-148.3" font-family="Times,serif" font-size="14.00">sse&#45;decoder.go</text>
<text text-anchor="middle" x="333.395" y="-134.3" font-family="Times,serif" font-size="14.00">sse&#45;encoder.go</text>
<text text-anchor="middle" x="333.395" y="-120.3" font-family="Times,serif" font-size="14.00">writer.go</text>
</g>
<!-- github.com/gin&#45;gonic/gin&#45;&gt;github.com/manucorporat/sse -->
<g id="edge6" class="edge"><title>github.com/gin&#45;gonic/gin&#45;&gt;github.com/manucorporat/sse</title>
<path fill="none" stroke="black" d="M158.719,-211.492C182.065,-204.637 207.97,-197.032 232.494,-189.831"/>
<polygon fill="black" stroke="black" points="242.178,-186.988 233.851,-194.123 237.381,-188.397 232.583,-189.805 232.583,-189.805 232.583,-189.805 237.381,-188.397 231.315,-185.487 242.178,-186.988 242.178,-186.988"/>
</g>
<!-- golang.org/x/net/context -->
<g id="node8" class="node"><title>golang.org/x/net/context</title>
<polygon fill="none" stroke="black" points="256.896,-0.5 256.896,-94.5 409.895,-94.5 409.895,-0.5 256.896,-0.5"/>
<text text-anchor="middle" x="333.395" y="-79.3" font-family="Times,serif" font-size="14.00">context</text>
<polyline fill="none" stroke="black" points="256.896,-72.5 409.895,-72.5 "/>
<text text-anchor="middle" x="333.395" y="-57.3" font-family="Times,serif" font-size="14.00">golang.org/x/net/context</text>
<polyline fill="none" stroke="black" points="256.896,-50.5 409.895,-50.5 "/>
<text text-anchor="middle" x="333.395" y="-35.3" font-family="Times,serif" font-size="14.00">context.go</text>
<text text-anchor="middle" x="333.395" y="-21.3" font-family="Times,serif" font-size="14.00">go17.go</text>
<text text-anchor="middle" x="333.395" y="-7.3" font-family="Times,serif" font-size="14.00">pre_go17.go</text>
</g>
<!-- github.com/gin&#45;gonic/gin&#45;&gt;golang.org/x/net/context -->
<g id="edge7" class="edge"><title>github.com/gin&#45;gonic/gin&#45;&gt;golang.org/x/net/context</title>
<path fill="none" stroke="black" d="M158.919,-160.485C181.328,-140.939 206.304,-120.558 230.707,-103.5 236.256,-99.6211 242.1,-95.7959 248.066,-92.0771"/>
<polygon fill="black" stroke="black" points="256.873,-86.7108 250.675,-95.7569 252.604,-89.3124 248.334,-91.914 248.334,-91.914 248.334,-91.914 252.604,-89.3124 245.992,-88.0711 256.873,-86.7108 256.873,-86.7108"/>
</g>
<!-- gopkg.in/go&#45;playground/validator.v8 -->
<g id="node3" class="node"><title>gopkg.in/go&#45;playground/validator.v8</title>
<polygon fill="none" stroke="black" points="508.083,-648.5 508.083,-784.5 730.173,-784.5 730.173,-648.5 508.083,-648.5"/>
<text text-anchor="middle" x="619.128" y="-769.3" font-family="Times,serif" font-size="14.00">validator</text>
<polyline fill="none" stroke="black" points="508.083,-762.5 730.173,-762.5 "/>
<text text-anchor="middle" x="619.128" y="-747.3" font-family="Times,serif" font-size="14.00">gopkg.in/go&#45;playground/validator.v8</text>
<polyline fill="none" stroke="black" points="508.083,-740.5 730.173,-740.5 "/>
<text text-anchor="middle" x="619.128" y="-725.3" font-family="Times,serif" font-size="14.00">baked_in.go</text>
<text text-anchor="middle" x="619.128" y="-711.3" font-family="Times,serif" font-size="14.00">cache.go</text>
<text text-anchor="middle" x="619.128" y="-697.3" font-family="Times,serif" font-size="14.00">doc.go</text>
<text text-anchor="middle" x="619.128" y="-683.3" font-family="Times,serif" font-size="14.00">regexes.go</text>
<text text-anchor="middle" x="619.128" y="-669.3" font-family="Times,serif" font-size="14.00">util.go</text>
<text text-anchor="middle" x="619.128" y="-655.3" font-family="Times,serif" font-size="14.00">validator.go</text>
</g>
<!-- github.com/gin&#45;gonic/gin/binding&#45;&gt;gopkg.in/go&#45;playground/validator.v8 -->
<g id="edge2" class="edge"><title>github.com/gin&#45;gonic/gin/binding&#45;&gt;gopkg.in/go&#45;playground/validator.v8</title>
<path fill="none" stroke="black" d="M436.428,-590.343C460.836,-607.29 486.957,-625.426 511.564,-642.511"/>
<polygon fill="black" stroke="black" points="519.846,-648.261 509.065,-646.254 515.739,-645.41 511.632,-642.558 511.632,-642.558 511.632,-642.558 515.739,-645.41 514.198,-638.862 519.846,-648.261 519.846,-648.261"/>
</g>
<!-- github.com/golang/protobuf/proto -->
<g id="node4" class="node"><title>github.com/golang/protobuf/proto</title>
<polygon fill="none" stroke="black" points="515.667,-409.5 515.667,-629.5 722.588,-629.5 722.588,-409.5 515.667,-409.5"/>
<text text-anchor="middle" x="619.128" y="-614.3" font-family="Times,serif" font-size="14.00">proto</text>
<polyline fill="none" stroke="black" points="515.667,-607.5 722.588,-607.5 "/>
<text text-anchor="middle" x="619.128" y="-592.3" font-family="Times,serif" font-size="14.00">github.com/golang/protobuf/proto</text>
<polyline fill="none" stroke="black" points="515.667,-585.5 722.588,-585.5 "/>
<text text-anchor="middle" x="619.128" y="-570.3" font-family="Times,serif" font-size="14.00">clone.go</text>
<text text-anchor="middle" x="619.128" y="-556.3" font-family="Times,serif" font-size="14.00">decode.go</text>
<text text-anchor="middle" x="619.128" y="-542.3" font-family="Times,serif" font-size="14.00">encode.go</text>
<text text-anchor="middle" x="619.128" y="-528.3" font-family="Times,serif" font-size="14.00">equal.go</text>
<text text-anchor="middle" x="619.128" y="-514.3" font-family="Times,serif" font-size="14.00">extensions.go</text>
<text text-anchor="middle" x="619.128" y="-500.3" font-family="Times,serif" font-size="14.00">lib.go</text>
<text text-anchor="middle" x="619.128" y="-486.3" font-family="Times,serif" font-size="14.00">message_set.go</text>
<text text-anchor="middle" x="619.128" y="-472.3" font-family="Times,serif" font-size="14.00">pointer_reflect.go</text>
<text text-anchor="middle" x="619.128" y="-458.3" font-family="Times,serif" font-size="14.00">pointer_unsafe.go</text>
<text text-anchor="middle" x="619.128" y="-444.3" font-family="Times,serif" font-size="14.00">properties.go</text>
<text text-anchor="middle" x="619.128" y="-430.3" font-family="Times,serif" font-size="14.00">text.go</text>
<text text-anchor="middle" x="619.128" y="-416.3" font-family="Times,serif" font-size="14.00">text_parser.go</text>
</g>
<!-- github.com/gin&#45;gonic/gin/binding&#45;&gt;github.com/golang/protobuf/proto -->
<g id="edge3" class="edge"><title>github.com/gin&#45;gonic/gin/binding&#45;&gt;github.com/golang/protobuf/proto</title>
<path fill="none" stroke="black" d="M436.428,-519.5C458.848,-519.5 482.712,-519.5 505.521,-519.5"/>
<polygon fill="black" stroke="black" points="515.57,-519.5 505.57,-524 510.57,-519.5 505.57,-519.5 505.57,-519.5 505.57,-519.5 510.57,-519.5 505.57,-515 515.57,-519.5 515.57,-519.5"/>
</g>
<!-- gopkg.in/yaml.v2 -->
<g id="node6" class="node"><title>gopkg.in/yaml.v2</title>
<polygon fill="none" stroke="black" points="561.742,-156.5 561.742,-390.5 676.514,-390.5 676.514,-156.5 561.742,-156.5"/>
<text text-anchor="middle" x="619.128" y="-375.3" font-family="Times,serif" font-size="14.00">yaml</text>
<polyline fill="none" stroke="black" points="561.742,-368.5 676.514,-368.5 "/>
<text text-anchor="middle" x="619.128" y="-353.3" font-family="Times,serif" font-size="14.00">gopkg.in/yaml.v2</text>
<polyline fill="none" stroke="black" points="561.742,-346.5 676.514,-346.5 "/>
<text text-anchor="middle" x="619.128" y="-331.3" font-family="Times,serif" font-size="14.00">apic.go</text>
<text text-anchor="middle" x="619.128" y="-317.3" font-family="Times,serif" font-size="14.00">decode.go</text>
<text text-anchor="middle" x="619.128" y="-303.3" font-family="Times,serif" font-size="14.00">emitterc.go</text>
<text text-anchor="middle" x="619.128" y="-289.3" font-family="Times,serif" font-size="14.00">encode.go</text>
<text text-anchor="middle" x="619.128" y="-275.3" font-family="Times,serif" font-size="14.00">parserc.go</text>
<text text-anchor="middle" x="619.128" y="-261.3" font-family="Times,serif" font-size="14.00">readerc.go</text>
<text text-anchor="middle" x="619.128" y="-247.3" font-family="Times,serif" font-size="14.00">resolve.go</text>
<text text-anchor="middle" x="619.128" y="-233.3" font-family="Times,serif" font-size="14.00">scannerc.go</text>
<text text-anchor="middle" x="619.128" y="-219.3" font-family="Times,serif" font-size="14.00">sorter.go</text>
<text text-anchor="middle" x="619.128" y="-205.3" font-family="Times,serif" font-size="14.00">writerc.go</text>
<text text-anchor="middle" x="619.128" y="-191.3" font-family="Times,serif" font-size="14.00">yaml.go</text>
<text text-anchor="middle" x="619.128" y="-177.3" font-family="Times,serif" font-size="14.00">yamlh.go</text>
<text text-anchor="middle" x="619.128" y="-163.3" font-family="Times,serif" font-size="14.00">yamlprivateh.go</text>
</g>
<!-- github.com/gin&#45;gonic/gin/render&#45;&gt;gopkg.in/yaml.v2 -->
<g id="edge5" class="edge"><title>github.com/gin&#45;gonic/gin/render&#45;&gt;gopkg.in/yaml.v2</title>
<path fill="none" stroke="black" d="M432.835,-296.357C472.022,-291.523 516.101,-286.086 551.433,-281.727"/>
<polygon fill="black" stroke="black" points="561.627,-280.47 552.254,-286.16 556.665,-281.082 551.703,-281.694 551.703,-281.694 551.703,-281.694 556.665,-281.082 551.152,-277.228 561.627,-280.47 561.627,-280.47"/>
</g>
</g>
</svg>
