<?xml version="1.0" encoding="UTF-8" standalone="no"?>
<!DOCTYPE svg PUBLIC "-//W3C//DTD SVG 1.1//EN"
 "http://www.w3.org/Graphics/SVG/1.1/DTD/svg11.dtd">
<!-- Generated by graphviz version 2.38.0 (20140413.2041)
 -->
<!-- Title: main Pages: 1 -->
<svg width="787pt" height="720pt"
 viewBox="0.00 0.00 787.42 720.00" xmlns="http://www.w3.org/2000/svg" xmlns:xlink="http://www.w3.org/1999/xlink">
<g id="graph0" class="graph" transform="scale(1 1) rotate(0) translate(4 716)">
<title>main</title>
<polygon fill="white" stroke="none" points="-4,4 -4,-716 783.419,-716 783.419,4 -4,4"/>
<!-- github.com/zenazn/goji -->
<g id="node1" class="node"><title>github.com/zenazn/goji</title>
<polygon fill="none" stroke="black" points="0,-295.5 0,-403.5 147.797,-403.5 147.797,-295.5 0,-295.5"/>
<text text-anchor="middle" x="73.8984" y="-388.3" font-family="Times,serif" font-size="14.00">goji</text>
<polyline fill="none" stroke="black" points="0,-381.5 147.797,-381.5 "/>
<text text-anchor="middle" x="73.8984" y="-366.3" font-family="Times,serif" font-size="14.00">github.com/zenazn/goji</text>
<polyline fill="none" stroke="black" points="0,-359.5 147.797,-359.5 "/>
<text text-anchor="middle" x="73.8984" y="-344.3" font-family="Times,serif" font-size="14.00">default.go</text>
<text text-anchor="middle" x="73.8984" y="-330.3" font-family="Times,serif" font-size="14.00">goji.go</text>
<text text-anchor="middle" x="73.8984" y="-316.3" font-family="Times,serif" font-size="14.00">serve.go</text>
<text text-anchor="middle" x="73.8984" y="-302.3" font-family="Times,serif" font-size="14.00">serve_appengine.go</text>
</g>
<!-- github.com/zenazn/goji/web -->
<g id="node2" class="node"><title>github.com/zenazn/goji/web</title>
<polygon fill="none" stroke="black" points="570.594,-435.5 570.594,-711.5 745.605,-711.5 745.605,-435.5 570.594,-435.5"/>
<text text-anchor="middle" x="658.1" y="-696.3" font-family="Times,serif" font-size="14.00">web</text>
<polyline fill="none" stroke="black" points="570.594,-689.5 745.605,-689.5 "/>
<text text-anchor="middle" x="658.1" y="-674.3" font-family="Times,serif" font-size="14.00">github.com/zenazn/goji/web</text>
<polyline fill="none" stroke="black" points="570.594,-667.5 745.605,-667.5 "/>
<text text-anchor="middle" x="658.1" y="-652.3" font-family="Times,serif" font-size="14.00">atomic.go</text>
<text text-anchor="middle" x="658.1" y="-638.3" font-family="Times,serif" font-size="14.00">atomic_appengine.go</text>
<text text-anchor="middle" x="658.1" y="-624.3" font-family="Times,serif" font-size="14.00">bytecode_compiler.go</text>
<text text-anchor="middle" x="658.1" y="-610.3" font-family="Times,serif" font-size="14.00">bytecode_runner.go</text>
<text text-anchor="middle" x="658.1" y="-596.3" font-family="Times,serif" font-size="14.00">chanpool.go</text>
<text text-anchor="middle" x="658.1" y="-582.3" font-family="Times,serif" font-size="14.00">cpool.go</text>
<text text-anchor="middle" x="658.1" y="-568.3" font-family="Times,serif" font-size="14.00">func_equal.go</text>
<text text-anchor="middle" x="658.1" y="-554.3" font-family="Times,serif" font-size="14.00">handler.go</text>
<text text-anchor="middle" x="658.1" y="-540.3" font-family="Times,serif" font-size="14.00">match.go</text>
<text text-anchor="middle" x="658.1" y="-526.3" font-family="Times,serif" font-size="14.00">middleware.go</text>
<text text-anchor="middle" x="658.1" y="-512.3" font-family="Times,serif" font-size="14.00">mux.go</text>
<text text-anchor="middle" x="658.1" y="-498.3" font-family="Times,serif" font-size="14.00">pattern.go</text>
<text text-anchor="middle" x="658.1" y="-484.3" font-family="Times,serif" font-size="14.00">regexp_pattern.go</text>
<text text-anchor="middle" x="658.1" y="-470.3" font-family="Times,serif" font-size="14.00">router.go</text>
<text text-anchor="middle" x="658.1" y="-456.3" font-family="Times,serif" font-size="14.00">string_pattern.go</text>
<text text-anchor="middle" x="658.1" y="-442.3" font-family="Times,serif" font-size="14.00">web.go</text>
</g>
<!-- github.com/zenazn/goji&#45;&gt;github.com/zenazn/goji/web -->
<g id="edge1" class="edge"><title>github.com/zenazn/goji&#45;&gt;github.com/zenazn/goji/web</title>
<path fill="none" stroke="black" d="M96.4152,-403.527C119.101,-452.492 159.922,-521.832 219.797,-554.5 325.193,-612.005 467.059,-605.767 560.236,-592.563"/>
<polygon fill="black" stroke="black" points="570.223,-591.094 560.984,-597.001 565.276,-591.822 560.33,-592.549 560.33,-592.549 560.33,-592.549 565.276,-591.822 559.675,-588.097 570.223,-591.094 570.223,-591.094"/>
</g>
<!-- github.com/zenazn/goji/web/middleware -->
<g id="node3" class="node"><title>github.com/zenazn/goji/web/middleware</title>
<polygon fill="none" stroke="black" points="219.797,-338.5 219.797,-544.5 464.78,-544.5 464.78,-338.5 219.797,-338.5"/>
<text text-anchor="middle" x="342.289" y="-529.3" font-family="Times,serif" font-size="14.00">middleware</text>
<polyline fill="none" stroke="black" points="219.797,-522.5 464.78,-522.5 "/>
<text text-anchor="middle" x="342.289" y="-507.3" font-family="Times,serif" font-size="14.00">github.com/zenazn/goji/web/middleware</text>
<polyline fill="none" stroke="black" points="219.797,-500.5 464.78,-500.5 "/>
<text text-anchor="middle" x="342.289" y="-485.3" font-family="Times,serif" font-size="14.00">envinit.go</text>
<text text-anchor="middle" x="342.289" y="-471.3" font-family="Times,serif" font-size="14.00">logger.go</text>
<text text-anchor="middle" x="342.289" y="-457.3" font-family="Times,serif" font-size="14.00">middleware.go</text>
<text text-anchor="middle" x="342.289" y="-443.3" font-family="Times,serif" font-size="14.00">nocache.go</text>
<text text-anchor="middle" x="342.289" y="-429.3" font-family="Times,serif" font-size="14.00">options.go</text>
<text text-anchor="middle" x="342.289" y="-415.3" font-family="Times,serif" font-size="14.00">realip.go</text>
<text text-anchor="middle" x="342.289" y="-401.3" font-family="Times,serif" font-size="14.00">recoverer.go</text>
<text text-anchor="middle" x="342.289" y="-387.3" font-family="Times,serif" font-size="14.00">request_id.go</text>
<text text-anchor="middle" x="342.289" y="-373.3" font-family="Times,serif" font-size="14.00">subrouter.go</text>
<text text-anchor="middle" x="342.289" y="-359.3" font-family="Times,serif" font-size="14.00">terminal.go</text>
<text text-anchor="middle" x="342.289" y="-345.3" font-family="Times,serif" font-size="14.00">urlquery.go</text>
</g>
<!-- github.com/zenazn/goji&#45;&gt;github.com/zenazn/goji/web/middleware -->
<g id="edge2" class="edge"><title>github.com/zenazn/goji&#45;&gt;github.com/zenazn/goji/web/middleware</title>
<path fill="none" stroke="black" d="M148.043,-374.761C167.364,-381.434 188.817,-388.843 210.197,-396.227"/>
<polygon fill="black" stroke="black" points="219.677,-399.501 208.756,-400.49 214.951,-397.868 210.225,-396.236 210.225,-396.236 210.225,-396.236 214.951,-397.868 211.694,-391.983 219.677,-399.501 219.677,-399.501"/>
</g>
<!-- github.com/zenazn/goji/bind -->
<g id="node5" class="node"><title>github.com/zenazn/goji/bind</title>
<polygon fill="none" stroke="black" points="254,-197.5 254,-319.5 430.577,-319.5 430.577,-197.5 254,-197.5"/>
<text text-anchor="middle" x="342.289" y="-304.3" font-family="Times,serif" font-size="14.00">bind</text>
<polyline fill="none" stroke="black" points="254,-297.5 430.577,-297.5 "/>
<text text-anchor="middle" x="342.289" y="-282.3" font-family="Times,serif" font-size="14.00">github.com/zenazn/goji/bind</text>
<polyline fill="none" stroke="black" points="254,-275.5 430.577,-275.5 "/>
<text text-anchor="middle" x="342.289" y="-260.3" font-family="Times,serif" font-size="14.00">bind.go</text>
<text text-anchor="middle" x="342.289" y="-246.3" font-family="Times,serif" font-size="14.00">einhorn.go</text>
<text text-anchor="middle" x="342.289" y="-232.3" font-family="Times,serif" font-size="14.00">einhorn_stub.go</text>
<text text-anchor="middle" x="342.289" y="-218.3" font-family="Times,serif" font-size="14.00">systemd.go</text>
<text text-anchor="middle" x="342.289" y="-204.3" font-family="Times,serif" font-size="14.00">systemd_stub.go</text>
</g>
<!-- github.com/zenazn/goji&#45;&gt;github.com/zenazn/goji/bind -->
<g id="edge5" class="edge"><title>github.com/zenazn/goji&#45;&gt;github.com/zenazn/goji/bind</title>
<path fill="none" stroke="black" d="M148.043,-324.513C177.636,-314.405 212.23,-302.587 243.905,-291.767"/>
<polygon fill="black" stroke="black" points="253.633,-288.444 245.625,-295.935 248.901,-290.06 244.17,-291.676 244.17,-291.676 244.17,-291.676 248.901,-290.06 242.715,-287.418 253.633,-288.444 253.633,-288.444"/>
</g>
<!-- github.com/zenazn/goji/graceful -->
<g id="node6" class="node"><title>github.com/zenazn/goji/graceful</title>
<polygon fill="none" stroke="black" points="243.518,-0.5 243.518,-178.5 441.06,-178.5 441.06,-0.5 243.518,-0.5"/>
<text text-anchor="middle" x="342.289" y="-163.3" font-family="Times,serif" font-size="14.00">graceful</text>
<polyline fill="none" stroke="black" points="243.518,-156.5 441.06,-156.5 "/>
<text text-anchor="middle" x="342.289" y="-141.3" font-family="Times,serif" font-size="14.00">github.com/zenazn/goji/graceful</text>
<polyline fill="none" stroke="black" points="243.518,-134.5 441.06,-134.5 "/>
<text text-anchor="middle" x="342.289" y="-119.3" font-family="Times,serif" font-size="14.00">clone.go</text>
<text text-anchor="middle" x="342.289" y="-105.3" font-family="Times,serif" font-size="14.00">clone16.go</text>
<text text-anchor="middle" x="342.289" y="-91.3" font-family="Times,serif" font-size="14.00">einhorn.go</text>
<text text-anchor="middle" x="342.289" y="-77.3" font-family="Times,serif" font-size="14.00">graceful.go</text>
<text text-anchor="middle" x="342.289" y="-63.3" font-family="Times,serif" font-size="14.00">middleware.go</text>
<text text-anchor="middle" x="342.289" y="-49.3" font-family="Times,serif" font-size="14.00">serve.go</text>
<text text-anchor="middle" x="342.289" y="-35.3" font-family="Times,serif" font-size="14.00">serve13.go</text>
<text text-anchor="middle" x="342.289" y="-21.3" font-family="Times,serif" font-size="14.00">server.go</text>
<text text-anchor="middle" x="342.289" y="-7.3" font-family="Times,serif" font-size="14.00">signal.go</text>
</g>
<!-- github.com/zenazn/goji&#45;&gt;github.com/zenazn/goji/graceful -->
<g id="edge6" class="edge"><title>github.com/zenazn/goji&#45;&gt;github.com/zenazn/goji/graceful</title>
<path fill="none" stroke="black" d="M119.489,-295.33C147.145,-262.856 184.101,-221.421 219.797,-187.5 224.929,-182.623 230.279,-177.721 235.748,-172.85"/>
<polygon fill="black" stroke="black" points="243.272,-166.231 238.736,-176.215 239.518,-169.534 235.764,-172.836 235.764,-172.836 235.764,-172.836 239.518,-169.534 232.792,-169.457 243.272,-166.231 243.272,-166.231"/>
</g>
<!-- github.com/zenazn/goji/web/middleware&#45;&gt;github.com/zenazn/goji/web -->
<g id="edge3" class="edge"><title>github.com/zenazn/goji/web/middleware&#45;&gt;github.com/zenazn/goji/web</title>
<path fill="none" stroke="black" d="M465.065,-492.724C496.917,-506.121 530.804,-520.375 561.103,-533.121"/>
<polygon fill="black" stroke="black" points="570.385,-537.025 559.423,-537.296 565.777,-535.086 561.168,-533.148 561.168,-533.148 561.168,-533.148 565.777,-535.086 562.912,-529 570.385,-537.025 570.385,-537.025"/>
</g>
<!-- github.com/zenazn/goji/web/mutil -->
<g id="node4" class="node"><title>github.com/zenazn/goji/web/mutil</title>
<polygon fill="none" stroke="black" points="553.87,-336.5 553.87,-416.5 762.329,-416.5 762.329,-336.5 553.87,-336.5"/>
<text text-anchor="middle" x="658.1" y="-401.3" font-family="Times,serif" font-size="14.00">mutil</text>
<polyline fill="none" stroke="black" points="553.87,-394.5 762.329,-394.5 "/>
<text text-anchor="middle" x="658.1" y="-379.3" font-family="Times,serif" font-size="14.00">github.com/zenazn/goji/web/mutil</text>
<polyline fill="none" stroke="black" points="553.87,-372.5 762.329,-372.5 "/>
<text text-anchor="middle" x="658.1" y="-357.3" font-family="Times,serif" font-size="14.00">mutil.go</text>
<text text-anchor="middle" x="658.1" y="-343.3" font-family="Times,serif" font-size="14.00">writer_proxy.go</text>
</g>
<!-- github.com/zenazn/goji/web/middleware&#45;&gt;github.com/zenazn/goji/web/mutil -->
<g id="edge4" class="edge"><title>github.com/zenazn/goji/web/middleware&#45;&gt;github.com/zenazn/goji/web/mutil</title>
<path fill="none" stroke="black" d="M465.065,-416.276C490.922,-410.921 518.119,-405.287 543.651,-399.999"/>
<polygon fill="black" stroke="black" points="553.723,-397.913 544.844,-404.347 548.827,-398.927 543.931,-399.941 543.931,-399.941 543.931,-399.941 548.827,-398.927 543.018,-395.534 553.723,-397.913 553.723,-397.913"/>
</g>
<!-- github.com/zenazn/goji/graceful/listener -->
<g id="node7" class="node"><title>github.com/zenazn/goji/graceful/listener</title>
<polygon fill="none" stroke="black" points="536.78,-42.5 536.78,-136.5 779.419,-136.5 779.419,-42.5 536.78,-42.5"/>
<text text-anchor="middle" x="658.1" y="-121.3" font-family="Times,serif" font-size="14.00">listener</text>
<polyline fill="none" stroke="black" points="536.78,-114.5 779.419,-114.5 "/>
<text text-anchor="middle" x="658.1" y="-99.3" font-family="Times,serif" font-size="14.00">github.com/zenazn/goji/graceful/listener</text>
<polyline fill="none" stroke="black" points="536.78,-92.5 779.419,-92.5 "/>
<text text-anchor="middle" x="658.1" y="-77.3" font-family="Times,serif" font-size="14.00">conn.go</text>
<text text-anchor="middle" x="658.1" y="-63.3" font-family="Times,serif" font-size="14.00">listener.go</text>
<text text-anchor="middle" x="658.1" y="-49.3" font-family="Times,serif" font-size="14.00">shard.go</text>
</g>
<!-- github.com/zenazn/goji/graceful&#45;&gt;github.com/zenazn/goji/graceful/listener -->
<g id="edge7" class="edge"><title>github.com/zenazn/goji/graceful&#45;&gt;github.com/zenazn/goji/graceful/listener</title>
<path fill="none" stroke="black" d="M441.29,-89.5C468.315,-89.5 498.069,-89.5 526.62,-89.5"/>
<polygon fill="black" stroke="black" points="536.663,-89.5 526.663,-94.0001 531.663,-89.5 526.663,-89.5001 526.663,-89.5001 526.663,-89.5001 531.663,-89.5 526.662,-85.0001 536.663,-89.5 536.663,-89.5"/>
</g>
</g>
</svg>
