<?xml version="1.0" encoding="UTF-8" standalone="no"?>
<!DOCTYPE svg PUBLIC "-//W3C//DTD SVG 1.1//EN"
 "http://www.w3.org/Graphics/SVG/1.1/DTD/svg11.dtd">
<!-- Generated by graphviz version 2.38.0 (20140413.2041)
 -->
<!-- Title: main Pages: 1 -->
<svg width="743pt" height="401pt"
 viewBox="0.00 0.00 742.96 401.19" xmlns="http://www.w3.org/2000/svg" xmlns:xlink="http://www.w3.org/1999/xlink">
<g id="graph0" class="graph" transform="scale(1 1) rotate(0) translate(4 397.193)">
<title>main</title>
<polygon fill="white" stroke="none" points="-4,4 -4,-397.193 738.965,-397.193 738.965,4 -4,4"/>
<!-- github.com/go&#45;kit/kit/transport/http -->
<g id="node1" class="node"><title>github.com/go&#45;kit/kit/transport/http</title>
<polygon fill="none" stroke="black" points="0,-211.5 0,-347.5 214.707,-347.5 214.707,-211.5 0,-211.5"/>
<text text-anchor="middle" x="107.354" y="-332.3" font-family="Times,serif" font-size="14.00">http</text>
<polyline fill="none" stroke="black" points="0,-325.5 214.707,-325.5 "/>
<text text-anchor="middle" x="107.354" y="-310.3" font-family="Times,serif" font-size="14.00">github.com/go&#45;kit/kit/transport/http</text>
<polyline fill="none" stroke="black" points="0,-303.5 214.707,-303.5 "/>
<text text-anchor="middle" x="107.354" y="-288.3" font-family="Times,serif" font-size="14.00">client.go</text>
<text text-anchor="middle" x="107.354" y="-274.3" font-family="Times,serif" font-size="14.00">doc.go</text>
<text text-anchor="middle" x="107.354" y="-260.3" font-family="Times,serif" font-size="14.00">encode_decode.go</text>
<text text-anchor="middle" x="107.354" y="-246.3" font-family="Times,serif" font-size="14.00">err.go</text>
<text text-anchor="middle" x="107.354" y="-232.3" font-family="Times,serif" font-size="14.00">request_response_funcs.go</text>
<text text-anchor="middle" x="107.354" y="-218.3" font-family="Times,serif" font-size="14.00">server.go</text>
</g>
<!-- golang.org/x/net/context -->
<g id="node2" class="node"><title>golang.org/x/net/context</title>
<polygon fill="none" stroke="black" points="568.222,-282.5 568.222,-376.5 721.221,-376.5 721.221,-282.5 568.222,-282.5"/>
<text text-anchor="middle" x="644.722" y="-361.3" font-family="Times,serif" font-size="14.00">context</text>
<polyline fill="none" stroke="black" points="568.222,-354.5 721.221,-354.5 "/>
<text text-anchor="middle" x="644.722" y="-339.3" font-family="Times,serif" font-size="14.00">golang.org/x/net/context</text>
<polyline fill="none" stroke="black" points="568.222,-332.5 721.221,-332.5 "/>
<text text-anchor="middle" x="644.722" y="-317.3" font-family="Times,serif" font-size="14.00">context.go</text>
<text text-anchor="middle" x="644.722" y="-303.3" font-family="Times,serif" font-size="14.00">go17.go</text>
<text text-anchor="middle" x="644.722" y="-289.3" font-family="Times,serif" font-size="14.00">pre_go17.go</text>
</g>
<!-- github.com/go&#45;kit/kit/transport/http&#45;&gt;golang.org/x/net/context -->
<g id="edge1" class="edge"><title>github.com/go&#45;kit/kit/transport/http&#45;&gt;golang.org/x/net/context</title>
<path fill="none" stroke="black" d="M209.217,-347.669C233.587,-360.792 260.26,-372.592 286.707,-379.5 370.892,-401.49 396.45,-392.532 482.479,-379.5 507.565,-375.7 534.125,-368.752 558.292,-361.219"/>
<polygon fill="black" stroke="black" points="568.135,-358.08 559.975,-365.406 563.371,-359.599 558.608,-361.119 558.608,-361.119 558.608,-361.119 563.371,-359.599 557.24,-356.832 568.135,-358.08 568.135,-358.08"/>
</g>
<!-- golang.org/x/net/context/ctxhttp -->
<g id="node3" class="node"><title>golang.org/x/net/context/ctxhttp</title>
<polygon fill="none" stroke="black" points="286.707,-289.5 286.707,-369.5 482.479,-369.5 482.479,-289.5 286.707,-289.5"/>
<text text-anchor="middle" x="384.593" y="-354.3" font-family="Times,serif" font-size="14.00">ctxhttp</text>
<polyline fill="none" stroke="black" points="286.707,-347.5 482.479,-347.5 "/>
<text text-anchor="middle" x="384.593" y="-332.3" font-family="Times,serif" font-size="14.00">golang.org/x/net/context/ctxhttp</text>
<polyline fill="none" stroke="black" points="286.707,-325.5 482.479,-325.5 "/>
<text text-anchor="middle" x="384.593" y="-310.3" font-family="Times,serif" font-size="14.00">ctxhttp.go</text>
<text text-anchor="middle" x="384.593" y="-296.3" font-family="Times,serif" font-size="14.00">ctxhttp_pre17.go</text>
</g>
<!-- github.com/go&#45;kit/kit/transport/http&#45;&gt;golang.org/x/net/context/ctxhttp -->
<g id="edge2" class="edge"><title>github.com/go&#45;kit/kit/transport/http&#45;&gt;golang.org/x/net/context/ctxhttp</title>
<path fill="none" stroke="black" d="M214.768,-298.831C235.048,-302.515 256.283,-306.373 276.582,-310.06"/>
<polygon fill="black" stroke="black" points="286.463,-311.855 275.82,-314.495 281.543,-310.962 276.624,-310.068 276.624,-310.068 276.624,-310.068 281.543,-310.962 277.428,-305.64 286.463,-311.855 286.463,-311.855"/>
</g>
<!-- github.com/go&#45;kit/kit/endpoint -->
<g id="node4" class="node"><title>github.com/go&#45;kit/kit/endpoint</title>
<polygon fill="none" stroke="black" points="290.46,-190.5 290.46,-270.5 478.726,-270.5 478.726,-190.5 290.46,-190.5"/>
<text text-anchor="middle" x="384.593" y="-255.3" font-family="Times,serif" font-size="14.00">endpoint</text>
<polyline fill="none" stroke="black" points="290.46,-248.5 478.726,-248.5 "/>
<text text-anchor="middle" x="384.593" y="-233.3" font-family="Times,serif" font-size="14.00">github.com/go&#45;kit/kit/endpoint</text>
<polyline fill="none" stroke="black" points="290.46,-226.5 478.726,-226.5 "/>
<text text-anchor="middle" x="384.593" y="-211.3" font-family="Times,serif" font-size="14.00">doc.go</text>
<text text-anchor="middle" x="384.593" y="-197.3" font-family="Times,serif" font-size="14.00">endpoint.go</text>
</g>
<!-- github.com/go&#45;kit/kit/transport/http&#45;&gt;github.com/go&#45;kit/kit/endpoint -->
<g id="edge4" class="edge"><title>github.com/go&#45;kit/kit/transport/http&#45;&gt;github.com/go&#45;kit/kit/endpoint</title>
<path fill="none" stroke="black" d="M214.768,-260.555C236.185,-256.743 258.667,-252.74 279.986,-248.945"/>
<polygon fill="black" stroke="black" points="290.019,-247.159 280.963,-253.342 285.097,-248.035 280.174,-248.911 280.174,-248.911 280.174,-248.911 285.097,-248.035 279.385,-244.481 290.019,-247.159 290.019,-247.159"/>
</g>
<!-- github.com/go&#45;kit/kit/log -->
<g id="node5" class="node"><title>github.com/go&#45;kit/kit/log</title>
<polygon fill="none" stroke="black" points="306.012,-7.5 306.012,-171.5 463.174,-171.5 463.174,-7.5 306.012,-7.5"/>
<text text-anchor="middle" x="384.593" y="-156.3" font-family="Times,serif" font-size="14.00">log</text>
<polyline fill="none" stroke="black" points="306.012,-149.5 463.174,-149.5 "/>
<text text-anchor="middle" x="384.593" y="-134.3" font-family="Times,serif" font-size="14.00">github.com/go&#45;kit/kit/log</text>
<polyline fill="none" stroke="black" points="306.012,-127.5 463.174,-127.5 "/>
<text text-anchor="middle" x="384.593" y="-112.3" font-family="Times,serif" font-size="14.00">doc.go</text>
<text text-anchor="middle" x="384.593" y="-98.3" font-family="Times,serif" font-size="14.00">json_logger.go</text>
<text text-anchor="middle" x="384.593" y="-84.3" font-family="Times,serif" font-size="14.00">log.go</text>
<text text-anchor="middle" x="384.593" y="-70.3" font-family="Times,serif" font-size="14.00">logfmt_logger.go</text>
<text text-anchor="middle" x="384.593" y="-56.3" font-family="Times,serif" font-size="14.00">nop_logger.go</text>
<text text-anchor="middle" x="384.593" y="-42.3" font-family="Times,serif" font-size="14.00">stdlib.go</text>
<text text-anchor="middle" x="384.593" y="-28.3" font-family="Times,serif" font-size="14.00">sync.go</text>
<text text-anchor="middle" x="384.593" y="-14.3" font-family="Times,serif" font-size="14.00">value.go</text>
</g>
<!-- github.com/go&#45;kit/kit/transport/http&#45;&gt;github.com/go&#45;kit/kit/log -->
<g id="edge6" class="edge"><title>github.com/go&#45;kit/kit/transport/http&#45;&gt;github.com/go&#45;kit/kit/log</title>
<path fill="none" stroke="black" d="M206.944,-211.442C236.567,-190.993 268.82,-168.729 297.563,-148.887"/>
<polygon fill="black" stroke="black" points="305.966,-143.087 300.293,-152.471 301.851,-145.927 297.736,-148.768 297.736,-148.768 297.736,-148.768 301.851,-145.927 295.18,-145.064 305.966,-143.087 305.966,-143.087"/>
</g>
<!-- golang.org/x/net/context/ctxhttp&#45;&gt;golang.org/x/net/context -->
<g id="edge3" class="edge"><title>golang.org/x/net/context/ctxhttp&#45;&gt;golang.org/x/net/context</title>
<path fill="none" stroke="black" d="M482.812,-329.5C507.447,-329.5 533.733,-329.5 557.766,-329.5"/>
<polygon fill="black" stroke="black" points="567.916,-329.5 557.916,-334 562.916,-329.5 557.916,-329.5 557.916,-329.5 557.916,-329.5 562.916,-329.5 557.916,-325 567.916,-329.5 567.916,-329.5"/>
</g>
<!-- github.com/go&#45;kit/kit/endpoint&#45;&gt;golang.org/x/net/context -->
<g id="edge5" class="edge"><title>github.com/go&#45;kit/kit/endpoint&#45;&gt;golang.org/x/net/context</title>
<path fill="none" stroke="black" d="M478.783,-266.241C504.778,-276.211 532.881,-286.989 558.397,-296.776"/>
<polygon fill="black" stroke="black" points="568.04,-300.474 557.092,-301.095 563.372,-298.683 558.704,-296.893 558.704,-296.893 558.704,-296.893 563.372,-298.683 560.315,-292.691 568.04,-300.474 568.04,-300.474"/>
</g>
<!-- github.com/go&#45;logfmt/logfmt -->
<g id="node6" class="node"><title>github.com/go&#45;logfmt/logfmt</title>
<polygon fill="none" stroke="black" points="554.479,-85.5 554.479,-207.5 734.965,-207.5 734.965,-85.5 554.479,-85.5"/>
<text text-anchor="middle" x="644.722" y="-192.3" font-family="Times,serif" font-size="14.00">logfmt</text>
<polyline fill="none" stroke="black" points="554.479,-185.5 734.965,-185.5 "/>
<text text-anchor="middle" x="644.722" y="-170.3" font-family="Times,serif" font-size="14.00">github.com/go&#45;logfmt/logfmt</text>
<polyline fill="none" stroke="black" points="554.479,-163.5 734.965,-163.5 "/>
<text text-anchor="middle" x="644.722" y="-148.3" font-family="Times,serif" font-size="14.00">decode.go</text>
<text text-anchor="middle" x="644.722" y="-134.3" font-family="Times,serif" font-size="14.00">doc.go</text>
<text text-anchor="middle" x="644.722" y="-120.3" font-family="Times,serif" font-size="14.00">encode.go</text>
<text text-anchor="middle" x="644.722" y="-106.3" font-family="Times,serif" font-size="14.00">fuzz.go</text>
<text text-anchor="middle" x="644.722" y="-92.3" font-family="Times,serif" font-size="14.00">jsonstring.go</text>
</g>
<!-- github.com/go&#45;kit/kit/log&#45;&gt;github.com/go&#45;logfmt/logfmt -->
<g id="edge7" class="edge"><title>github.com/go&#45;kit/kit/log&#45;&gt;github.com/go&#45;logfmt/logfmt</title>
<path fill="none" stroke="black" d="M463.39,-106.679C488.906,-112.314 517.615,-118.653 544.497,-124.589"/>
<polygon fill="black" stroke="black" points="554.309,-126.756 543.574,-128.994 549.426,-125.678 544.544,-124.599 544.544,-124.599 544.544,-124.599 549.426,-125.678 545.514,-120.205 554.309,-126.756 554.309,-126.756"/>
</g>
<!-- github.com/go&#45;stack/stack -->
<g id="node7" class="node"><title>github.com/go&#45;stack/stack</title>
<polygon fill="none" stroke="black" points="563.044,-0.5 563.044,-66.5 726.399,-66.5 726.399,-0.5 563.044,-0.5"/>
<text text-anchor="middle" x="644.722" y="-51.3" font-family="Times,serif" font-size="14.00">stack</text>
<polyline fill="none" stroke="black" points="563.044,-44.5 726.399,-44.5 "/>
<text text-anchor="middle" x="644.722" y="-29.3" font-family="Times,serif" font-size="14.00">github.com/go&#45;stack/stack</text>
<polyline fill="none" stroke="black" points="563.044,-22.5 726.399,-22.5 "/>
<text text-anchor="middle" x="644.722" y="-7.3" font-family="Times,serif" font-size="14.00">stack.go</text>
</g>
<!-- github.com/go&#45;kit/kit/log&#45;&gt;github.com/go&#45;stack/stack -->
<g id="edge8" class="edge"><title>github.com/go&#45;kit/kit/log&#45;&gt;github.com/go&#45;stack/stack</title>
<path fill="none" stroke="black" d="M463.39,-72.6222C491.664,-66.4882 523.858,-59.5039 553.143,-53.1507"/>
<polygon fill="black" stroke="black" points="562.952,-51.0225 554.134,-57.5405 558.066,-52.0827 553.18,-53.1428 553.18,-53.1428 553.18,-53.1428 558.066,-52.0827 552.226,-48.7451 562.952,-51.0225 562.952,-51.0225"/>
</g>
</g>
</svg>
