<?xml version="1.0" encoding="UTF-8" standalone="no"?>
<!DOCTYPE svg PUBLIC "-//W3C//DTD SVG 1.1//EN"
 "http://www.w3.org/Graphics/SVG/1.1/DTD/svg11.dtd">
<!-- Generated by graphviz version 2.38.0 (20140413.2041)
 -->
<!-- Title: main Pages: 1 -->
<svg width="971pt" height="1895pt"
 viewBox="0.00 0.00 970.81 1895.00" xmlns="http://www.w3.org/2000/svg" xmlns:xlink="http://www.w3.org/1999/xlink">
<g id="graph0" class="graph" transform="scale(1 1) rotate(0) translate(4 1891)">
<title>main</title>
<polygon fill="white" stroke="none" points="-4,4 -4,-1891 966.814,-1891 966.814,4 -4,4"/>
<!-- github.com/koding/kite -->
<g id="node1" class="node"><title>github.com/koding/kite</title>
<polygon fill="none" stroke="black" points="0,-991.5 0,-1225.5 147.045,-1225.5 147.045,-991.5 0,-991.5"/>
<text text-anchor="middle" x="73.5225" y="-1210.3" font-family="Times,serif" font-size="14.00">kite</text>
<polyline fill="none" stroke="black" points="0,-1203.5 147.045,-1203.5 "/>
<text text-anchor="middle" x="73.5225" y="-1188.3" font-family="Times,serif" font-size="14.00">github.com/koding/kite</text>
<polyline fill="none" stroke="black" points="0,-1181.5 147.045,-1181.5 "/>
<text text-anchor="middle" x="73.5225" y="-1166.3" font-family="Times,serif" font-size="14.00">client.go</text>
<text text-anchor="middle" x="73.5225" y="-1152.3" font-family="Times,serif" font-size="14.00">errors.go</text>
<text text-anchor="middle" x="73.5225" y="-1138.3" font-family="Times,serif" font-size="14.00">handlers.go</text>
<text text-anchor="middle" x="73.5225" y="-1124.3" font-family="Times,serif" font-size="14.00">heartbeat.go</text>
<text text-anchor="middle" x="73.5225" y="-1110.3" font-family="Times,serif" font-size="14.00">kite.go</text>
<text text-anchor="middle" x="73.5225" y="-1096.3" font-family="Times,serif" font-size="14.00">kontrolclient.go</text>
<text text-anchor="middle" x="73.5225" y="-1082.3" font-family="Times,serif" font-size="14.00">logger.go</text>
<text text-anchor="middle" x="73.5225" y="-1068.3" font-family="Times,serif" font-size="14.00">logger_unix.go</text>
<text text-anchor="middle" x="73.5225" y="-1054.3" font-family="Times,serif" font-size="14.00">method.go</text>
<text text-anchor="middle" x="73.5225" y="-1040.3" font-family="Times,serif" font-size="14.00">registerurl.go</text>
<text text-anchor="middle" x="73.5225" y="-1026.3" font-family="Times,serif" font-size="14.00">request.go</text>
<text text-anchor="middle" x="73.5225" y="-1012.3" font-family="Times,serif" font-size="14.00">server.go</text>
<text text-anchor="middle" x="73.5225" y="-998.3" font-family="Times,serif" font-size="14.00">tokenrenewer.go</text>
</g>
<!-- github.com/cenkalti/backoff -->
<g id="node2" class="node"><title>github.com/cenkalti/backoff</title>
<polygon fill="none" stroke="black" points="240.571,-1778.5 240.571,-1886.5 414.55,-1886.5 414.55,-1778.5 240.571,-1778.5"/>
<text text-anchor="middle" x="327.561" y="-1871.3" font-family="Times,serif" font-size="14.00">backoff</text>
<polyline fill="none" stroke="black" points="240.571,-1864.5 414.55,-1864.5 "/>
<text text-anchor="middle" x="327.561" y="-1849.3" font-family="Times,serif" font-size="14.00">github.com/cenkalti/backoff</text>
<polyline fill="none" stroke="black" points="240.571,-1842.5 414.55,-1842.5 "/>
<text text-anchor="middle" x="327.561" y="-1827.3" font-family="Times,serif" font-size="14.00">backoff.go</text>
<text text-anchor="middle" x="327.561" y="-1813.3" font-family="Times,serif" font-size="14.00">exponential.go</text>
<text text-anchor="middle" x="327.561" y="-1799.3" font-family="Times,serif" font-size="14.00">retry.go</text>
<text text-anchor="middle" x="327.561" y="-1785.3" font-family="Times,serif" font-size="14.00">ticker.go</text>
</g>
<!-- github.com/koding/kite&#45;&gt;github.com/cenkalti/backoff -->
<g id="edge1" class="edge"><title>github.com/koding/kite&#45;&gt;github.com/cenkalti/backoff</title>
<path fill="none" stroke="black" d="M89.4689,-1225.7C112.209,-1389.83 159.242,-1677.7 219.045,-1763.5 223.05,-1769.25 227.702,-1774.62 232.782,-1779.64"/>
<polygon fill="black" stroke="black" points="240.505,-1786.72 230.094,-1783.28 236.82,-1783.34 233.136,-1779.96 233.136,-1779.96 233.136,-1779.96 236.82,-1783.34 236.179,-1776.65 240.505,-1786.72 240.505,-1786.72"/>
</g>
<!-- github.com/koding/kite/config -->
<g id="node3" class="node"><title>github.com/koding/kite/config</title>
<polygon fill="none" stroke="black" points="234.593,-1578.5 234.593,-1658.5 420.528,-1658.5 420.528,-1578.5 234.593,-1578.5"/>
<text text-anchor="middle" x="327.561" y="-1643.3" font-family="Times,serif" font-size="14.00">config</text>
<polyline fill="none" stroke="black" points="234.593,-1636.5 420.528,-1636.5 "/>
<text text-anchor="middle" x="327.561" y="-1621.3" font-family="Times,serif" font-size="14.00">github.com/koding/kite/config</text>
<polyline fill="none" stroke="black" points="234.593,-1614.5 420.528,-1614.5 "/>
<text text-anchor="middle" x="327.561" y="-1599.3" font-family="Times,serif" font-size="14.00">config.go</text>
<text text-anchor="middle" x="327.561" y="-1585.3" font-family="Times,serif" font-size="14.00">transport.go</text>
</g>
<!-- github.com/koding/kite&#45;&gt;github.com/koding/kite/config -->
<g id="edge2" class="edge"><title>github.com/koding/kite&#45;&gt;github.com/koding/kite/config</title>
<path fill="none" stroke="black" d="M86.461,-1225.66C102.056,-1325.46 137.755,-1467.53 219.045,-1563.5 221.493,-1566.39 224.13,-1569.15 226.918,-1571.77"/>
<polygon fill="black" stroke="black" points="234.625,-1578.42 224.115,-1575.3 230.84,-1575.16 227.055,-1571.89 227.055,-1571.89 227.055,-1571.89 230.84,-1575.16 229.996,-1568.48 234.625,-1578.42 234.625,-1578.42"/>
</g>
<!-- github.com/dgrijalva/jwt&#45;go -->
<g id="node4" class="node"><title>github.com/dgrijalva/jwt&#45;go</title>
<polygon fill="none" stroke="black" points="783.504,-1595.5 783.504,-1843.5 956.977,-1843.5 956.977,-1595.5 783.504,-1595.5"/>
<text text-anchor="middle" x="870.24" y="-1828.3" font-family="Times,serif" font-size="14.00">jwt</text>
<polyline fill="none" stroke="black" points="783.504,-1821.5 956.977,-1821.5 "/>
<text text-anchor="middle" x="870.24" y="-1806.3" font-family="Times,serif" font-size="14.00">github.com/dgrijalva/jwt&#45;go</text>
<polyline fill="none" stroke="black" points="783.504,-1799.5 956.977,-1799.5 "/>
<text text-anchor="middle" x="870.24" y="-1784.3" font-family="Times,serif" font-size="14.00">claims.go</text>
<text text-anchor="middle" x="870.24" y="-1770.3" font-family="Times,serif" font-size="14.00">doc.go</text>
<text text-anchor="middle" x="870.24" y="-1756.3" font-family="Times,serif" font-size="14.00">ecdsa.go</text>
<text text-anchor="middle" x="870.24" y="-1742.3" font-family="Times,serif" font-size="14.00">ecdsa_utils.go</text>
<text text-anchor="middle" x="870.24" y="-1728.3" font-family="Times,serif" font-size="14.00">errors.go</text>
<text text-anchor="middle" x="870.24" y="-1714.3" font-family="Times,serif" font-size="14.00">hmac.go</text>
<text text-anchor="middle" x="870.24" y="-1700.3" font-family="Times,serif" font-size="14.00">map_claims.go</text>
<text text-anchor="middle" x="870.24" y="-1686.3" font-family="Times,serif" font-size="14.00">none.go</text>
<text text-anchor="middle" x="870.24" y="-1672.3" font-family="Times,serif" font-size="14.00">parser.go</text>
<text text-anchor="middle" x="870.24" y="-1658.3" font-family="Times,serif" font-size="14.00">rsa.go</text>
<text text-anchor="middle" x="870.24" y="-1644.3" font-family="Times,serif" font-size="14.00">rsa_pss.go</text>
<text text-anchor="middle" x="870.24" y="-1630.3" font-family="Times,serif" font-size="14.00">rsa_utils.go</text>
<text text-anchor="middle" x="870.24" y="-1616.3" font-family="Times,serif" font-size="14.00">signing_method.go</text>
<text text-anchor="middle" x="870.24" y="-1602.3" font-family="Times,serif" font-size="14.00">token.go</text>
</g>
<!-- github.com/koding/kite&#45;&gt;github.com/dgrijalva/jwt&#45;go -->
<g id="edge18" class="edge"><title>github.com/koding/kite&#45;&gt;github.com/dgrijalva/jwt&#45;go</title>
<path fill="none" stroke="black" d="M86.5301,-1225.76C105.158,-1382.25 146.634,-1646.86 219.045,-1708.5 299.855,-1777.29 612.622,-1750.98 773.083,-1732.15"/>
<polygon fill="black" stroke="black" points="783.428,-1730.92 774.029,-1736.56 778.463,-1731.51 773.498,-1732.1 773.498,-1732.1 773.498,-1732.1 778.463,-1731.51 772.967,-1727.63 783.428,-1730.92 783.428,-1730.92"/>
</g>
<!-- github.com/koding/kite/kitekey -->
<g id="node5" class="node"><title>github.com/koding/kite/kitekey</title>
<polygon fill="none" stroke="black" points="510.8,-1654.5 510.8,-1720.5 702.942,-1720.5 702.942,-1654.5 510.8,-1654.5"/>
<text text-anchor="middle" x="606.871" y="-1705.3" font-family="Times,serif" font-size="14.00">kitekey</text>
<polyline fill="none" stroke="black" points="510.8,-1698.5 702.942,-1698.5 "/>
<text text-anchor="middle" x="606.871" y="-1683.3" font-family="Times,serif" font-size="14.00">github.com/koding/kite/kitekey</text>
<polyline fill="none" stroke="black" points="510.8,-1676.5 702.942,-1676.5 "/>
<text text-anchor="middle" x="606.871" y="-1661.3" font-family="Times,serif" font-size="14.00">kitekey.go</text>
</g>
<!-- github.com/koding/kite&#45;&gt;github.com/koding/kite/kitekey -->
<g id="edge22" class="edge"><title>github.com/koding/kite&#45;&gt;github.com/koding/kite/kitekey</title>
<path fill="none" stroke="black" d="M88.4882,-1225.81C108.65,-1373.07 151.127,-1613.17 219.045,-1668.5 296.766,-1731.82 415.167,-1727.83 500.501,-1713.45"/>
<polygon fill="black" stroke="black" points="510.477,-1711.7 501.407,-1717.86 505.553,-1712.57 500.628,-1713.43 500.628,-1713.43 500.628,-1713.43 505.553,-1712.57 499.849,-1709 510.477,-1711.7 510.477,-1711.7"/>
</g>
<!-- github.com/koding/kite/protocol -->
<g id="node6" class="node"><title>github.com/koding/kite/protocol</title>
<polygon fill="none" stroke="black" points="508.076,-1530.5 508.076,-1596.5 705.666,-1596.5 705.666,-1530.5 508.076,-1530.5"/>
<text text-anchor="middle" x="606.871" y="-1581.3" font-family="Times,serif" font-size="14.00">protocol</text>
<polyline fill="none" stroke="black" points="508.076,-1574.5 705.666,-1574.5 "/>
<text text-anchor="middle" x="606.871" y="-1559.3" font-family="Times,serif" font-size="14.00">github.com/koding/kite/protocol</text>
<polyline fill="none" stroke="black" points="508.076,-1552.5 705.666,-1552.5 "/>
<text text-anchor="middle" x="606.871" y="-1537.3" font-family="Times,serif" font-size="14.00">protocol.go</text>
</g>
<!-- github.com/koding/kite&#45;&gt;github.com/koding/kite/protocol -->
<g id="edge9" class="edge"><title>github.com/koding/kite&#45;&gt;github.com/koding/kite/protocol</title>
<path fill="none" stroke="black" d="M81.7228,-1225.74C94.3409,-1322.1 128.334,-1453.99 219.045,-1525.5 260.93,-1558.52 398.573,-1565.25 497.75,-1565.57"/>
<polygon fill="black" stroke="black" points="507.827,-1565.58 497.822,-1570.07 502.827,-1565.57 497.827,-1565.57 497.827,-1565.57 497.827,-1565.57 502.827,-1565.57 497.832,-1561.07 507.827,-1565.58 507.827,-1565.58"/>
</g>
<!-- github.com/koding/kite/dnode -->
<g id="node7" class="node"><title>github.com/koding/kite/dnode</title>
<polygon fill="none" stroke="black" points="777.666,-1426.5 777.666,-1576.5 962.814,-1576.5 962.814,-1426.5 777.666,-1426.5"/>
<text text-anchor="middle" x="870.24" y="-1561.3" font-family="Times,serif" font-size="14.00">dnode</text>
<polyline fill="none" stroke="black" points="777.666,-1554.5 962.814,-1554.5 "/>
<text text-anchor="middle" x="870.24" y="-1539.3" font-family="Times,serif" font-size="14.00">github.com/koding/kite/dnode</text>
<polyline fill="none" stroke="black" points="777.666,-1532.5 962.814,-1532.5 "/>
<text text-anchor="middle" x="870.24" y="-1517.3" font-family="Times,serif" font-size="14.00">callback.go</text>
<text text-anchor="middle" x="870.24" y="-1503.3" font-family="Times,serif" font-size="14.00">errors.go</text>
<text text-anchor="middle" x="870.24" y="-1489.3" font-family="Times,serif" font-size="14.00">message.go</text>
<text text-anchor="middle" x="870.24" y="-1475.3" font-family="Times,serif" font-size="14.00">partial.go</text>
<text text-anchor="middle" x="870.24" y="-1461.3" font-family="Times,serif" font-size="14.00">scrub.go</text>
<text text-anchor="middle" x="870.24" y="-1447.3" font-family="Times,serif" font-size="14.00">scrubber.go</text>
<text text-anchor="middle" x="870.24" y="-1433.3" font-family="Times,serif" font-size="14.00">unscrub.go</text>
</g>
<!-- github.com/koding/kite&#45;&gt;github.com/koding/kite/dnode -->
<g id="edge8" class="edge"><title>github.com/koding/kite&#45;&gt;github.com/koding/kite/dnode</title>
<path fill="none" stroke="black" d="M84.2834,-1225.79C98.5442,-1315.03 133.505,-1432.42 219.045,-1492.5 262.663,-1523.14 595.804,-1513.47 767.539,-1506.29"/>
<polygon fill="black" stroke="black" points="777.606,-1505.86 767.805,-1510.78 772.611,-1506.07 767.615,-1506.29 767.615,-1506.29 767.615,-1506.29 772.611,-1506.07 767.425,-1501.79 777.606,-1505.86 777.606,-1505.86"/>
</g>
<!-- github.com/koding/kite/sockjsclient -->
<g id="node8" class="node"><title>github.com/koding/kite/sockjsclient</title>
<polygon fill="none" stroke="black" points="219.045,-1068.5 219.045,-1148.5 436.076,-1148.5 436.076,-1068.5 219.045,-1068.5"/>
<text text-anchor="middle" x="327.561" y="-1133.3" font-family="Times,serif" font-size="14.00">sockjsclient</text>
<polyline fill="none" stroke="black" points="219.045,-1126.5 436.076,-1126.5 "/>
<text text-anchor="middle" x="327.561" y="-1111.3" font-family="Times,serif" font-size="14.00">github.com/koding/kite/sockjsclient</text>
<polyline fill="none" stroke="black" points="219.045,-1104.5 436.076,-1104.5 "/>
<text text-anchor="middle" x="327.561" y="-1089.3" font-family="Times,serif" font-size="14.00">sockjsclient.go</text>
<text text-anchor="middle" x="327.561" y="-1075.3" font-family="Times,serif" font-size="14.00">xhr.go</text>
</g>
<!-- github.com/koding/kite&#45;&gt;github.com/koding/kite/sockjsclient -->
<g id="edge10" class="edge"><title>github.com/koding/kite&#45;&gt;github.com/koding/kite/sockjsclient</title>
<path fill="none" stroke="black" d="M147.084,-1108.5C166.33,-1108.5 187.618,-1108.5 208.606,-1108.5"/>
<polygon fill="black" stroke="black" points="218.876,-1108.5 208.876,-1113 213.876,-1108.5 208.876,-1108.5 208.876,-1108.5 208.876,-1108.5 213.876,-1108.5 208.875,-1104 218.876,-1108.5 218.876,-1108.5"/>
</g>
<!-- github.com/gorilla/websocket -->
<g id="node9" class="node"><title>github.com/gorilla/websocket</title>
<polygon fill="none" stroke="black" points="515.473,-1091.5 515.473,-1269.5 698.27,-1269.5 698.27,-1091.5 515.473,-1091.5"/>
<text text-anchor="middle" x="606.871" y="-1254.3" font-family="Times,serif" font-size="14.00">websocket</text>
<polyline fill="none" stroke="black" points="515.473,-1247.5 698.27,-1247.5 "/>
<text text-anchor="middle" x="606.871" y="-1232.3" font-family="Times,serif" font-size="14.00">github.com/gorilla/websocket</text>
<polyline fill="none" stroke="black" points="515.473,-1225.5 698.27,-1225.5 "/>
<text text-anchor="middle" x="606.871" y="-1210.3" font-family="Times,serif" font-size="14.00">client.go</text>
<text text-anchor="middle" x="606.871" y="-1196.3" font-family="Times,serif" font-size="14.00">compression.go</text>
<text text-anchor="middle" x="606.871" y="-1182.3" font-family="Times,serif" font-size="14.00">conn.go</text>
<text text-anchor="middle" x="606.871" y="-1168.3" font-family="Times,serif" font-size="14.00">conn_read.go</text>
<text text-anchor="middle" x="606.871" y="-1154.3" font-family="Times,serif" font-size="14.00">conn_read_legacy.go</text>
<text text-anchor="middle" x="606.871" y="-1140.3" font-family="Times,serif" font-size="14.00">doc.go</text>
<text text-anchor="middle" x="606.871" y="-1126.3" font-family="Times,serif" font-size="14.00">json.go</text>
<text text-anchor="middle" x="606.871" y="-1112.3" font-family="Times,serif" font-size="14.00">server.go</text>
<text text-anchor="middle" x="606.871" y="-1098.3" font-family="Times,serif" font-size="14.00">util.go</text>
</g>
<!-- github.com/koding/kite&#45;&gt;github.com/gorilla/websocket -->
<g id="edge15" class="edge"><title>github.com/koding/kite&#45;&gt;github.com/gorilla/websocket</title>
<path fill="none" stroke="black" d="M147.332,-1138.07C169.953,-1146.06 195.212,-1153.79 219.045,-1158.5 314.726,-1177.39 426.109,-1181.94 504.716,-1182.33"/>
<polygon fill="black" stroke="black" points="515.101,-1182.36 505.089,-1186.84 510.101,-1182.35 505.101,-1182.34 505.101,-1182.34 505.101,-1182.34 510.101,-1182.35 505.114,-1177.84 515.101,-1182.36 515.101,-1182.36"/>
</g>
<!-- github.com/koding/kite/utils -->
<g id="node10" class="node"><title>github.com/koding/kite/utils</title>
<polygon fill="none" stroke="black" points="519.345,-1006.5 519.345,-1072.5 694.397,-1072.5 694.397,-1006.5 519.345,-1006.5"/>
<text text-anchor="middle" x="606.871" y="-1057.3" font-family="Times,serif" font-size="14.00">utils</text>
<polyline fill="none" stroke="black" points="519.345,-1050.5 694.397,-1050.5 "/>
<text text-anchor="middle" x="606.871" y="-1035.3" font-family="Times,serif" font-size="14.00">github.com/koding/kite/utils</text>
<polyline fill="none" stroke="black" points="519.345,-1028.5 694.397,-1028.5 "/>
<text text-anchor="middle" x="606.871" y="-1013.3" font-family="Times,serif" font-size="14.00">utils.go</text>
</g>
<!-- github.com/koding/kite&#45;&gt;github.com/koding/kite/utils -->
<g id="edge26" class="edge"><title>github.com/koding/kite&#45;&gt;github.com/koding/kite/utils</title>
<path fill="none" stroke="black" d="M147.362,-1079.45C169.984,-1071.62 195.236,-1064.06 219.045,-1059.5 316.386,-1040.85 429.858,-1037.05 508.624,-1037.18"/>
<polygon fill="black" stroke="black" points="519.019,-1037.22 509.001,-1041.68 514.019,-1037.2 509.019,-1037.18 509.019,-1037.18 509.019,-1037.18 514.019,-1037.2 509.036,-1032.68 519.019,-1037.22 519.019,-1037.22"/>
</g>
<!-- gopkg.in/igm/sockjs&#45;go.v2/sockjs -->
<g id="node11" class="node"><title>gopkg.in/igm/sockjs&#45;go.v2/sockjs</title>
<polygon fill="none" stroke="black" points="225.061,-1206.5 225.061,-1482.5 430.061,-1482.5 430.061,-1206.5 225.061,-1206.5"/>
<text text-anchor="middle" x="327.561" y="-1467.3" font-family="Times,serif" font-size="14.00">sockjs</text>
<polyline fill="none" stroke="black" points="225.061,-1460.5 430.061,-1460.5 "/>
<text text-anchor="middle" x="327.561" y="-1445.3" font-family="Times,serif" font-size="14.00">gopkg.in/igm/sockjs&#45;go.v2/sockjs</text>
<polyline fill="none" stroke="black" points="225.061,-1438.5 430.061,-1438.5 "/>
<text text-anchor="middle" x="327.561" y="-1423.3" font-family="Times,serif" font-size="14.00">doc.go</text>
<text text-anchor="middle" x="327.561" y="-1409.3" font-family="Times,serif" font-size="14.00">eventsource.go</text>
<text text-anchor="middle" x="327.561" y="-1395.3" font-family="Times,serif" font-size="14.00">frame.go</text>
<text text-anchor="middle" x="327.561" y="-1381.3" font-family="Times,serif" font-size="14.00">handler.go</text>
<text text-anchor="middle" x="327.561" y="-1367.3" font-family="Times,serif" font-size="14.00">htmlfile.go</text>
<text text-anchor="middle" x="327.561" y="-1353.3" font-family="Times,serif" font-size="14.00">httpreceiver.go</text>
<text text-anchor="middle" x="327.561" y="-1339.3" font-family="Times,serif" font-size="14.00">iframe.go</text>
<text text-anchor="middle" x="327.561" y="-1325.3" font-family="Times,serif" font-size="14.00">jsonp.go</text>
<text text-anchor="middle" x="327.561" y="-1311.3" font-family="Times,serif" font-size="14.00">mapping.go</text>
<text text-anchor="middle" x="327.561" y="-1297.3" font-family="Times,serif" font-size="14.00">options.go</text>
<text text-anchor="middle" x="327.561" y="-1283.3" font-family="Times,serif" font-size="14.00">session.go</text>
<text text-anchor="middle" x="327.561" y="-1269.3" font-family="Times,serif" font-size="14.00">sockjs.go</text>
<text text-anchor="middle" x="327.561" y="-1255.3" font-family="Times,serif" font-size="14.00">utils.go</text>
<text text-anchor="middle" x="327.561" y="-1241.3" font-family="Times,serif" font-size="14.00">web.go</text>
<text text-anchor="middle" x="327.561" y="-1227.3" font-family="Times,serif" font-size="14.00">websocket.go</text>
<text text-anchor="middle" x="327.561" y="-1213.3" font-family="Times,serif" font-size="14.00">xhr.go</text>
</g>
<!-- github.com/koding/kite&#45;&gt;gopkg.in/igm/sockjs&#45;go.v2/sockjs -->
<g id="edge13" class="edge"><title>github.com/koding/kite&#45;&gt;gopkg.in/igm/sockjs&#45;go.v2/sockjs</title>
<path fill="none" stroke="black" d="M147.084,-1176.44C169.093,-1197.05 193.773,-1220.16 217.621,-1242.49"/>
<polygon fill="black" stroke="black" points="224.991,-1249.39 214.616,-1245.84 221.341,-1245.98 217.692,-1242.56 217.692,-1242.56 217.692,-1242.56 221.341,-1245.98 220.767,-1239.27 224.991,-1249.39 224.991,-1249.39"/>
</g>
<!-- github.com/koding/kite/systeminfo -->
<g id="node12" class="node"><title>github.com/koding/kite/systeminfo</title>
<polygon fill="none" stroke="black" points="221.373,-874.5 221.373,-1010.5 433.749,-1010.5 433.749,-874.5 221.373,-874.5"/>
<text text-anchor="middle" x="327.561" y="-995.3" font-family="Times,serif" font-size="14.00">systeminfo</text>
<polyline fill="none" stroke="black" points="221.373,-988.5 433.749,-988.5 "/>
<text text-anchor="middle" x="327.561" y="-973.3" font-family="Times,serif" font-size="14.00">github.com/koding/kite/systeminfo</text>
<polyline fill="none" stroke="black" points="221.373,-966.5 433.749,-966.5 "/>
<text text-anchor="middle" x="327.561" y="-951.3" font-family="Times,serif" font-size="14.00">systeminfo.go</text>
<text text-anchor="middle" x="327.561" y="-937.3" font-family="Times,serif" font-size="14.00">systeminfo_darwin.go</text>
<text text-anchor="middle" x="327.561" y="-923.3" font-family="Times,serif" font-size="14.00">systeminfo_linux.go</text>
<text text-anchor="middle" x="327.561" y="-909.3" font-family="Times,serif" font-size="14.00">systeminfo_openbsd.go</text>
<text text-anchor="middle" x="327.561" y="-895.3" font-family="Times,serif" font-size="14.00">systeminfo_unix.go</text>
<text text-anchor="middle" x="327.561" y="-881.3" font-family="Times,serif" font-size="14.00">systeminfo_windows.go</text>
</g>
<!-- github.com/koding/kite&#45;&gt;github.com/koding/kite/systeminfo -->
<g id="edge16" class="edge"><title>github.com/koding/kite&#45;&gt;github.com/koding/kite/systeminfo</title>
<path fill="none" stroke="black" d="M147.084,-1060.71C168.196,-1046.8 191.764,-1031.28 214.699,-1016.18"/>
<polygon fill="black" stroke="black" points="223.114,-1010.63 217.238,-1019.89 218.939,-1013.38 214.763,-1016.13 214.763,-1016.13 214.763,-1016.13 218.939,-1013.38 212.288,-1012.38 223.114,-1010.63 223.114,-1010.63"/>
</g>
<!-- golang.org/x/crypto/ssh/terminal -->
<g id="node13" class="node"><title>golang.org/x/crypto/ssh/terminal</title>
<polygon fill="none" stroke="black" points="228.116,-719.5 228.116,-855.5 427.005,-855.5 427.005,-719.5 228.116,-719.5"/>
<text text-anchor="middle" x="327.561" y="-840.3" font-family="Times,serif" font-size="14.00">terminal</text>
<polyline fill="none" stroke="black" points="228.116,-833.5 427.005,-833.5 "/>
<text text-anchor="middle" x="327.561" y="-818.3" font-family="Times,serif" font-size="14.00">golang.org/x/crypto/ssh/terminal</text>
<polyline fill="none" stroke="black" points="228.116,-811.5 427.005,-811.5 "/>
<text text-anchor="middle" x="327.561" y="-796.3" font-family="Times,serif" font-size="14.00">terminal.go</text>
<text text-anchor="middle" x="327.561" y="-782.3" font-family="Times,serif" font-size="14.00">util.go</text>
<text text-anchor="middle" x="327.561" y="-768.3" font-family="Times,serif" font-size="14.00">util_bsd.go</text>
<text text-anchor="middle" x="327.561" y="-754.3" font-family="Times,serif" font-size="14.00">util_linux.go</text>
<text text-anchor="middle" x="327.561" y="-740.3" font-family="Times,serif" font-size="14.00">util_plan9.go</text>
<text text-anchor="middle" x="327.561" y="-726.3" font-family="Times,serif" font-size="14.00">util_windows.go</text>
</g>
<!-- github.com/koding/kite&#45;&gt;golang.org/x/crypto/ssh/terminal -->
<g id="edge17" class="edge"><title>github.com/koding/kite&#45;&gt;golang.org/x/crypto/ssh/terminal</title>
<path fill="none" stroke="black" d="M131.506,-991.252C155.199,-949.017 185.125,-902.659 219.045,-865.5 219.803,-864.67 220.571,-863.843 221.348,-863.019"/>
<polygon fill="black" stroke="black" points="228.584,-855.708 224.748,-865.981 225.067,-859.262 221.55,-862.816 221.55,-862.816 221.55,-862.816 225.067,-859.262 218.351,-859.651 228.584,-855.708 228.584,-855.708"/>
</g>
<!-- github.com/gorilla/mux -->
<g id="node14" class="node"><title>github.com/gorilla/mux</title>
<polygon fill="none" stroke="black" points="253.262,-564.5 253.262,-700.5 401.859,-700.5 401.859,-564.5 253.262,-564.5"/>
<text text-anchor="middle" x="327.561" y="-685.3" font-family="Times,serif" font-size="14.00">mux</text>
<polyline fill="none" stroke="black" points="253.262,-678.5 401.859,-678.5 "/>
<text text-anchor="middle" x="327.561" y="-663.3" font-family="Times,serif" font-size="14.00">github.com/gorilla/mux</text>
<polyline fill="none" stroke="black" points="253.262,-656.5 401.859,-656.5 "/>
<text text-anchor="middle" x="327.561" y="-641.3" font-family="Times,serif" font-size="14.00">context_gorilla.go</text>
<text text-anchor="middle" x="327.561" y="-627.3" font-family="Times,serif" font-size="14.00">context_native.go</text>
<text text-anchor="middle" x="327.561" y="-613.3" font-family="Times,serif" font-size="14.00">doc.go</text>
<text text-anchor="middle" x="327.561" y="-599.3" font-family="Times,serif" font-size="14.00">mux.go</text>
<text text-anchor="middle" x="327.561" y="-585.3" font-family="Times,serif" font-size="14.00">regexp.go</text>
<text text-anchor="middle" x="327.561" y="-571.3" font-family="Times,serif" font-size="14.00">route.go</text>
</g>
<!-- github.com/koding/kite&#45;&gt;github.com/gorilla/mux -->
<g id="edge19" class="edge"><title>github.com/koding/kite&#45;&gt;github.com/gorilla/mux</title>
<path fill="none" stroke="black" d="M97.715,-991.169C118.763,-906.807 156.336,-793.722 219.045,-710.5 226.491,-700.618 235.539,-691.452 245.19,-683.136"/>
<polygon fill="black" stroke="black" points="253.041,-676.651 248.197,-686.489 249.186,-679.835 245.331,-683.019 245.331,-683.019 245.331,-683.019 249.186,-679.835 242.465,-679.55 253.041,-676.651 253.041,-676.651"/>
</g>
<!-- github.com/koding/cache -->
<g id="node16" class="node"><title>github.com/koding/cache</title>
<polygon fill="none" stroke="black" points="248.607,-339.5 248.607,-545.5 406.514,-545.5 406.514,-339.5 248.607,-339.5"/>
<text text-anchor="middle" x="327.561" y="-530.3" font-family="Times,serif" font-size="14.00">cache</text>
<polyline fill="none" stroke="black" points="248.607,-523.5 406.514,-523.5 "/>
<text text-anchor="middle" x="327.561" y="-508.3" font-family="Times,serif" font-size="14.00">github.com/koding/cache</text>
<polyline fill="none" stroke="black" points="248.607,-501.5 406.514,-501.5 "/>
<text text-anchor="middle" x="327.561" y="-486.3" font-family="Times,serif" font-size="14.00">cache.go</text>
<text text-anchor="middle" x="327.561" y="-472.3" font-family="Times,serif" font-size="14.00">doc.go</text>
<text text-anchor="middle" x="327.561" y="-458.3" font-family="Times,serif" font-size="14.00">errors.go</text>
<text text-anchor="middle" x="327.561" y="-444.3" font-family="Times,serif" font-size="14.00">lru.go</text>
<text text-anchor="middle" x="327.561" y="-430.3" font-family="Times,serif" font-size="14.00">lru_nots.go</text>
<text text-anchor="middle" x="327.561" y="-416.3" font-family="Times,serif" font-size="14.00">memory.go</text>
<text text-anchor="middle" x="327.561" y="-402.3" font-family="Times,serif" font-size="14.00">memory_nots.go</text>
<text text-anchor="middle" x="327.561" y="-388.3" font-family="Times,serif" font-size="14.00">memory_ttl.go</text>
<text text-anchor="middle" x="327.561" y="-374.3" font-family="Times,serif" font-size="14.00">sharded_cache.go</text>
<text text-anchor="middle" x="327.561" y="-360.3" font-family="Times,serif" font-size="14.00">sharded_nots.go</text>
<text text-anchor="middle" x="327.561" y="-346.3" font-family="Times,serif" font-size="14.00">sharded_ttl.go</text>
</g>
<!-- github.com/koding/kite&#45;&gt;github.com/koding/cache -->
<g id="edge21" class="edge"><title>github.com/koding/kite&#45;&gt;github.com/koding/cache</title>
<path fill="none" stroke="black" d="M87.7838,-991.227C104.834,-874.702 141.984,-693.889 219.045,-555.5 225.449,-544 233.297,-532.793 241.81,-522.182"/>
<polygon fill="black" stroke="black" points="248.437,-514.189 245.519,-524.76 245.246,-518.038 242.055,-521.887 242.055,-521.887 242.055,-521.887 245.246,-518.038 238.59,-519.015 248.437,-514.189 248.437,-514.189"/>
</g>
<!-- github.com/satori/go.uuid -->
<g id="node17" class="node"><title>github.com/satori/go.uuid</title>
<polygon fill="none" stroke="black" points="247.233,-254.5 247.233,-320.5 407.888,-320.5 407.888,-254.5 247.233,-254.5"/>
<text text-anchor="middle" x="327.561" y="-305.3" font-family="Times,serif" font-size="14.00">uuid</text>
<polyline fill="none" stroke="black" points="247.233,-298.5 407.888,-298.5 "/>
<text text-anchor="middle" x="327.561" y="-283.3" font-family="Times,serif" font-size="14.00">github.com/satori/go.uuid</text>
<polyline fill="none" stroke="black" points="247.233,-276.5 407.888,-276.5 "/>
<text text-anchor="middle" x="327.561" y="-261.3" font-family="Times,serif" font-size="14.00">uuid.go</text>
</g>
<!-- github.com/koding/kite&#45;&gt;github.com/satori/go.uuid -->
<g id="edge23" class="edge"><title>github.com/koding/kite&#45;&gt;github.com/satori/go.uuid</title>
<path fill="none" stroke="black" d="M82.5744,-991.438C97.9617,-799.658 137.524,-429.878 219.045,-330.5 224.498,-323.853 231.129,-318.227 238.393,-313.466"/>
<polygon fill="black" stroke="black" points="247.178,-308.265 240.865,-317.232 242.875,-310.812 238.573,-313.359 238.573,-313.359 238.573,-313.359 242.875,-310.812 236.28,-309.487 247.178,-308.265 247.178,-308.265"/>
</g>
<!-- github.com/koding/logging -->
<g id="node18" class="node"><title>github.com/koding/logging</title>
<polygon fill="none" stroke="black" points="243.145,-99.5 243.145,-235.5 411.976,-235.5 411.976,-99.5 243.145,-99.5"/>
<text text-anchor="middle" x="327.561" y="-220.3" font-family="Times,serif" font-size="14.00">logging</text>
<polyline fill="none" stroke="black" points="243.145,-213.5 411.976,-213.5 "/>
<text text-anchor="middle" x="327.561" y="-198.3" font-family="Times,serif" font-size="14.00">github.com/koding/logging</text>
<polyline fill="none" stroke="black" points="243.145,-191.5 411.976,-191.5 "/>
<text text-anchor="middle" x="327.561" y="-176.3" font-family="Times,serif" font-size="14.00">context.go</text>
<text text-anchor="middle" x="327.561" y="-162.3" font-family="Times,serif" font-size="14.00">custom.go</text>
<text text-anchor="middle" x="327.561" y="-148.3" font-family="Times,serif" font-size="14.00">logging.go</text>
<text text-anchor="middle" x="327.561" y="-134.3" font-family="Times,serif" font-size="14.00">logging_unix.go</text>
<text text-anchor="middle" x="327.561" y="-120.3" font-family="Times,serif" font-size="14.00">sink.go</text>
<text text-anchor="middle" x="327.561" y="-106.3" font-family="Times,serif" font-size="14.00">syslog.go</text>
</g>
<!-- github.com/koding/kite&#45;&gt;github.com/koding/logging -->
<g id="edge24" class="edge"><title>github.com/koding/kite&#45;&gt;github.com/koding/logging</title>
<path fill="none" stroke="black" d="M83.1674,-991.271C100.14,-785.234 142.953,-368.351 219.045,-245.5 223.671,-238.032 229.3,-231.059 235.533,-224.6"/>
<polygon fill="black" stroke="black" points="243.102,-217.254 239.06,-227.448 239.514,-220.736 235.926,-224.218 235.926,-224.218 235.926,-224.218 239.514,-220.736 232.792,-220.989 243.102,-217.254 243.102,-217.254"/>
</g>
<!-- github.com/juju/ratelimit -->
<g id="node19" class="node"><title>github.com/juju/ratelimit</title>
<polygon fill="none" stroke="black" points="249.376,-0.5 249.376,-80.5 405.745,-80.5 405.745,-0.5 249.376,-0.5"/>
<text text-anchor="middle" x="327.561" y="-65.3" font-family="Times,serif" font-size="14.00">ratelimit</text>
<polyline fill="none" stroke="black" points="249.376,-58.5 405.745,-58.5 "/>
<text text-anchor="middle" x="327.561" y="-43.3" font-family="Times,serif" font-size="14.00">github.com/juju/ratelimit</text>
<polyline fill="none" stroke="black" points="249.376,-36.5 405.745,-36.5 "/>
<text text-anchor="middle" x="327.561" y="-21.3" font-family="Times,serif" font-size="14.00">ratelimit.go</text>
<text text-anchor="middle" x="327.561" y="-7.3" font-family="Times,serif" font-size="14.00">reader.go</text>
</g>
<!-- github.com/koding/kite&#45;&gt;github.com/juju/ratelimit -->
<g id="edge25" class="edge"><title>github.com/koding/kite&#45;&gt;github.com/juju/ratelimit</title>
<path fill="none" stroke="black" d="M77.3956,-991.462C85.3595,-755.091 114.617,-231.267 219.045,-90.5 224.978,-82.5022 232.508,-75.7416 240.82,-70.0362"/>
<polygon fill="black" stroke="black" points="249.361,-64.6758 243.283,-73.803 245.126,-67.3336 240.891,-69.9914 240.891,-69.9914 240.891,-69.9914 245.126,-67.3336 238.499,-66.1798 249.361,-64.6758 249.361,-64.6758"/>
</g>
<!-- github.com/koding/kite/config&#45;&gt;github.com/dgrijalva/jwt&#45;go -->
<g id="edge3" class="edge"><title>github.com/koding/kite/config&#45;&gt;github.com/dgrijalva/jwt&#45;go</title>
<path fill="none" stroke="black" d="M420.666,-1616.12C497.915,-1616.24 610.544,-1621.4 705.666,-1645.5 728.534,-1651.29 752.179,-1660.13 774.141,-1669.7"/>
<polygon fill="black" stroke="black" points="783.444,-1673.85 772.478,-1673.89 778.876,-1671.81 774.308,-1669.78 774.308,-1669.78 774.308,-1669.78 778.876,-1671.81 776.138,-1665.67 783.444,-1673.85 783.444,-1673.85"/>
</g>
<!-- github.com/koding/kite/config&#45;&gt;github.com/koding/kite/kitekey -->
<g id="edge4" class="edge"><title>github.com/koding/kite/config&#45;&gt;github.com/koding/kite/kitekey</title>
<path fill="none" stroke="black" d="M420.901,-1641.48C446.468,-1647.84 474.408,-1654.79 500.65,-1661.32"/>
<polygon fill="black" stroke="black" points="510.615,-1663.8 499.825,-1665.75 505.763,-1662.59 500.911,-1661.38 500.911,-1661.38 500.911,-1661.38 505.763,-1662.59 501.998,-1657.02 510.615,-1663.8 510.615,-1663.8"/>
</g>
<!-- github.com/koding/kite/config&#45;&gt;github.com/koding/kite/protocol -->
<g id="edge6" class="edge"><title>github.com/koding/kite/config&#45;&gt;github.com/koding/kite/protocol</title>
<path fill="none" stroke="black" d="M420.901,-1600.19C445.521,-1595.3 472.341,-1589.98 497.726,-1584.95"/>
<polygon fill="black" stroke="black" points="507.751,-1582.96 498.818,-1589.32 502.847,-1583.93 497.942,-1584.91 497.942,-1584.91 497.942,-1584.91 502.847,-1583.93 497.067,-1580.49 507.751,-1582.96 507.751,-1582.96"/>
</g>
<!-- github.com/koding/kite/kitekey&#45;&gt;github.com/dgrijalva/jwt&#45;go -->
<g id="edge5" class="edge"><title>github.com/koding/kite/kitekey&#45;&gt;github.com/dgrijalva/jwt&#45;go</title>
<path fill="none" stroke="black" d="M702.971,-1699.14C725.857,-1701.95 750.319,-1704.94 773.246,-1707.75"/>
<polygon fill="black" stroke="black" points="783.313,-1708.98 772.84,-1712.23 778.35,-1708.37 773.387,-1707.76 773.387,-1707.76 773.387,-1707.76 778.35,-1708.37 773.934,-1703.3 783.313,-1708.98 783.313,-1708.98"/>
</g>
<!-- github.com/koding/kite/protocol&#45;&gt;github.com/koding/kite/dnode -->
<g id="edge7" class="edge"><title>github.com/koding/kite/protocol&#45;&gt;github.com/koding/kite/dnode</title>
<path fill="none" stroke="black" d="M705.939,-1540.24C726.105,-1535.45 747.378,-1530.41 767.665,-1525.59"/>
<polygon fill="black" stroke="black" points="777.536,-1523.25 768.845,-1529.94 772.671,-1524.41 767.806,-1525.56 767.806,-1525.56 767.806,-1525.56 772.671,-1524.41 766.768,-1521.18 777.536,-1523.25 777.536,-1523.25"/>
</g>
<!-- github.com/koding/kite/sockjsclient&#45;&gt;github.com/gorilla/websocket -->
<g id="edge11" class="edge"><title>github.com/koding/kite/sockjsclient&#45;&gt;github.com/gorilla/websocket</title>
<path fill="none" stroke="black" d="M436.173,-1136.44C458.984,-1142.36 482.976,-1148.59 505.505,-1154.44"/>
<polygon fill="black" stroke="black" points="515.402,-1157.01 504.592,-1158.85 510.562,-1155.75 505.723,-1154.5 505.723,-1154.5 505.723,-1154.5 510.562,-1155.75 506.854,-1150.14 515.402,-1157.01 515.402,-1157.01"/>
</g>
<!-- github.com/koding/kite/sockjsclient&#45;&gt;github.com/koding/kite/utils -->
<g id="edge12" class="edge"><title>github.com/koding/kite/sockjsclient&#45;&gt;github.com/koding/kite/utils</title>
<path fill="none" stroke="black" d="M436.173,-1081.72C460.152,-1075.76 485.436,-1069.47 508.954,-1063.61"/>
<polygon fill="black" stroke="black" points="518.916,-1061.14 510.298,-1067.92 514.064,-1062.34 509.212,-1063.55 509.212,-1063.55 509.212,-1063.55 514.064,-1062.34 508.125,-1059.18 518.916,-1061.14 518.916,-1061.14"/>
</g>
<!-- gopkg.in/igm/sockjs&#45;go.v2/sockjs&#45;&gt;github.com/gorilla/websocket -->
<g id="edge14" class="edge"><title>gopkg.in/igm/sockjs&#45;go.v2/sockjs&#45;&gt;github.com/gorilla/websocket</title>
<path fill="none" stroke="black" d="M430.246,-1284.36C455.136,-1269.64 481.74,-1253.91 506.519,-1239.26"/>
<polygon fill="black" stroke="black" points="515.201,-1234.12 508.884,-1243.09 510.897,-1236.67 506.594,-1239.21 506.594,-1239.21 506.594,-1239.21 510.897,-1236.67 504.303,-1235.34 515.201,-1234.12 515.201,-1234.12"/>
</g>
<!-- github.com/gorilla/context -->
<g id="node15" class="node"><title>github.com/gorilla/context</title>
<polygon fill="none" stroke="black" points="524.414,-592.5 524.414,-672.5 689.328,-672.5 689.328,-592.5 524.414,-592.5"/>
<text text-anchor="middle" x="606.871" y="-657.3" font-family="Times,serif" font-size="14.00">context</text>
<polyline fill="none" stroke="black" points="524.414,-650.5 689.328,-650.5 "/>
<text text-anchor="middle" x="606.871" y="-635.3" font-family="Times,serif" font-size="14.00">github.com/gorilla/context</text>
<polyline fill="none" stroke="black" points="524.414,-628.5 689.328,-628.5 "/>
<text text-anchor="middle" x="606.871" y="-613.3" font-family="Times,serif" font-size="14.00">context.go</text>
<text text-anchor="middle" x="606.871" y="-599.3" font-family="Times,serif" font-size="14.00">doc.go</text>
</g>
<!-- github.com/gorilla/mux&#45;&gt;github.com/gorilla/context -->
<g id="edge20" class="edge"><title>github.com/gorilla/mux&#45;&gt;github.com/gorilla/context</title>
<path fill="none" stroke="black" d="M402.147,-632.5C436.467,-632.5 477.666,-632.5 514.007,-632.5"/>
<polygon fill="black" stroke="black" points="524.119,-632.5 514.119,-637 519.119,-632.5 514.119,-632.5 514.119,-632.5 514.119,-632.5 519.119,-632.5 514.119,-628 524.119,-632.5 524.119,-632.5"/>
</g>
</g>
</svg>
