<?xml version="1.0" encoding="UTF-8" standalone="no"?>
<!DOCTYPE svg PUBLIC "-//W3C//DTD SVG 1.1//EN"
 "http://www.w3.org/Graphics/SVG/1.1/DTD/svg11.dtd">
<!-- Generated by graphviz version 2.38.0 (20140413.2041)
 -->
<!-- Title: main Pages: 1 -->
<svg width="1480pt" height="2471pt"
 viewBox="0.00 0.00 1480.35 2471.00" xmlns="http://www.w3.org/2000/svg" xmlns:xlink="http://www.w3.org/1999/xlink">
<g id="graph0" class="graph" transform="scale(1 1) rotate(0) translate(4 2467)">
<title>main</title>
<polygon fill="white" stroke="none" points="-4,4 -4,-2467 1476.35,-2467 1476.35,4 -4,4"/>
<!-- github.com/revel/cmd/revel -->
<g id="node1" class="node"><title>github.com/revel/cmd/revel</title>
<polygon fill="none" stroke="black" points="0,-1690.5 0,-1854.5 171.114,-1854.5 171.114,-1690.5 0,-1690.5"/>
<text text-anchor="middle" x="85.5571" y="-1839.3" font-family="Times,serif" font-size="14.00">main</text>
<polyline fill="none" stroke="black" points="0,-1832.5 171.114,-1832.5 "/>
<text text-anchor="middle" x="85.5571" y="-1817.3" font-family="Times,serif" font-size="14.00">github.com/revel/cmd/revel</text>
<polyline fill="none" stroke="black" points="0,-1810.5 171.114,-1810.5 "/>
<text text-anchor="middle" x="85.5571" y="-1795.3" font-family="Times,serif" font-size="14.00">build.go</text>
<text text-anchor="middle" x="85.5571" y="-1781.3" font-family="Times,serif" font-size="14.00">clean.go</text>
<text text-anchor="middle" x="85.5571" y="-1767.3" font-family="Times,serif" font-size="14.00">new.go</text>
<text text-anchor="middle" x="85.5571" y="-1753.3" font-family="Times,serif" font-size="14.00">package.go</text>
<text text-anchor="middle" x="85.5571" y="-1739.3" font-family="Times,serif" font-size="14.00">rev.go</text>
<text text-anchor="middle" x="85.5571" y="-1725.3" font-family="Times,serif" font-size="14.00">run.go</text>
<text text-anchor="middle" x="85.5571" y="-1711.3" font-family="Times,serif" font-size="14.00">util.go</text>
<text text-anchor="middle" x="85.5571" y="-1697.3" font-family="Times,serif" font-size="14.00">version.go</text>
</g>
<!-- github.com/revel/cmd/harness -->
<g id="node2" class="node"><title>github.com/revel/cmd/harness</title>
<polygon fill="none" stroke="black" points="243.114,-1801.5 243.114,-1909.5 428.235,-1909.5 428.235,-1801.5 243.114,-1801.5"/>
<text text-anchor="middle" x="335.675" y="-1894.3" font-family="Times,serif" font-size="14.00">harness</text>
<polyline fill="none" stroke="black" points="243.114,-1887.5 428.235,-1887.5 "/>
<text text-anchor="middle" x="335.675" y="-1872.3" font-family="Times,serif" font-size="14.00">github.com/revel/cmd/harness</text>
<polyline fill="none" stroke="black" points="243.114,-1865.5 428.235,-1865.5 "/>
<text text-anchor="middle" x="335.675" y="-1850.3" font-family="Times,serif" font-size="14.00">app.go</text>
<text text-anchor="middle" x="335.675" y="-1836.3" font-family="Times,serif" font-size="14.00">build.go</text>
<text text-anchor="middle" x="335.675" y="-1822.3" font-family="Times,serif" font-size="14.00">harness.go</text>
<text text-anchor="middle" x="335.675" y="-1808.3" font-family="Times,serif" font-size="14.00">reflect.go</text>
</g>
<!-- github.com/revel/cmd/revel&#45;&gt;github.com/revel/cmd/harness -->
<g id="edge1" class="edge"><title>github.com/revel/cmd/revel&#45;&gt;github.com/revel/cmd/harness</title>
<path fill="none" stroke="black" d="M171.251,-1800.83C191.127,-1807.48 212.506,-1814.63 233.038,-1821.5"/>
<polygon fill="black" stroke="black" points="242.72,-1824.74 231.809,-1825.83 237.978,-1823.15 233.237,-1821.57 233.237,-1821.57 233.237,-1821.57 237.978,-1823.15 234.664,-1817.3 242.72,-1824.74 242.72,-1824.74"/>
</g>
<!-- github.com/revel/revel -->
<g id="node3" class="node"><title>github.com/revel/revel</title>
<polygon fill="none" stroke="black" points="500.235,-1647.5 500.235,-2063.5 643.356,-2063.5 643.356,-1647.5 500.235,-1647.5"/>
<text text-anchor="middle" x="571.796" y="-2048.3" font-family="Times,serif" font-size="14.00">revel</text>
<polyline fill="none" stroke="black" points="500.235,-2041.5 643.356,-2041.5 "/>
<text text-anchor="middle" x="571.796" y="-2026.3" font-family="Times,serif" font-size="14.00">github.com/revel/revel</text>
<polyline fill="none" stroke="black" points="500.235,-2019.5 643.356,-2019.5 "/>
<text text-anchor="middle" x="571.796" y="-2004.3" font-family="Times,serif" font-size="14.00">binder.go</text>
<text text-anchor="middle" x="571.796" y="-1990.3" font-family="Times,serif" font-size="14.00">compress.go</text>
<text text-anchor="middle" x="571.796" y="-1976.3" font-family="Times,serif" font-size="14.00">controller.go</text>
<text text-anchor="middle" x="571.796" y="-1962.3" font-family="Times,serif" font-size="14.00">errors.go</text>
<text text-anchor="middle" x="571.796" y="-1948.3" font-family="Times,serif" font-size="14.00">field.go</text>
<text text-anchor="middle" x="571.796" y="-1934.3" font-family="Times,serif" font-size="14.00">filter.go</text>
<text text-anchor="middle" x="571.796" y="-1920.3" font-family="Times,serif" font-size="14.00">filterconfig.go</text>
<text text-anchor="middle" x="571.796" y="-1906.3" font-family="Times,serif" font-size="14.00">flash.go</text>
<text text-anchor="middle" x="571.796" y="-1892.3" font-family="Times,serif" font-size="14.00">http.go</text>
<text text-anchor="middle" x="571.796" y="-1878.3" font-family="Times,serif" font-size="14.00">i18n.go</text>
<text text-anchor="middle" x="571.796" y="-1864.3" font-family="Times,serif" font-size="14.00">intercept.go</text>
<text text-anchor="middle" x="571.796" y="-1850.3" font-family="Times,serif" font-size="14.00">invoker.go</text>
<text text-anchor="middle" x="571.796" y="-1836.3" font-family="Times,serif" font-size="14.00">libs.go</text>
<text text-anchor="middle" x="571.796" y="-1822.3" font-family="Times,serif" font-size="14.00">panic.go</text>
<text text-anchor="middle" x="571.796" y="-1808.3" font-family="Times,serif" font-size="14.00">params.go</text>
<text text-anchor="middle" x="571.796" y="-1794.3" font-family="Times,serif" font-size="14.00">results.go</text>
<text text-anchor="middle" x="571.796" y="-1780.3" font-family="Times,serif" font-size="14.00">revel.go</text>
<text text-anchor="middle" x="571.796" y="-1766.3" font-family="Times,serif" font-size="14.00">router.go</text>
<text text-anchor="middle" x="571.796" y="-1752.3" font-family="Times,serif" font-size="14.00">server.go</text>
<text text-anchor="middle" x="571.796" y="-1738.3" font-family="Times,serif" font-size="14.00">session.go</text>
<text text-anchor="middle" x="571.796" y="-1724.3" font-family="Times,serif" font-size="14.00">template.go</text>
<text text-anchor="middle" x="571.796" y="-1710.3" font-family="Times,serif" font-size="14.00">util.go</text>
<text text-anchor="middle" x="571.796" y="-1696.3" font-family="Times,serif" font-size="14.00">validation.go</text>
<text text-anchor="middle" x="571.796" y="-1682.3" font-family="Times,serif" font-size="14.00">validators.go</text>
<text text-anchor="middle" x="571.796" y="-1668.3" font-family="Times,serif" font-size="14.00">version.go</text>
<text text-anchor="middle" x="571.796" y="-1654.3" font-family="Times,serif" font-size="14.00">watcher.go</text>
</g>
<!-- github.com/revel/cmd/revel&#45;&gt;github.com/revel/revel -->
<g id="edge15" class="edge"><title>github.com/revel/cmd/revel&#45;&gt;github.com/revel/revel</title>
<path fill="none" stroke="black" d="M171.358,-1768.7C241.271,-1767.58 342.513,-1770.64 428.235,-1791.5 449.171,-1796.6 470.838,-1804.69 490.767,-1813.43"/>
<polygon fill="black" stroke="black" points="500.095,-1817.62 489.13,-1817.63 495.535,-1815.57 490.974,-1813.52 490.974,-1813.52 490.974,-1813.52 495.535,-1815.57 492.819,-1809.42 500.095,-1817.62 500.095,-1817.62"/>
</g>
<!-- github.com/agtorre/gocolorize -->
<g id="node11" class="node"><title>github.com/agtorre/gocolorize</title>
<polygon fill="none" stroke="black" points="732.874,-1487.5 732.874,-1553.5 918.76,-1553.5 918.76,-1487.5 732.874,-1487.5"/>
<text text-anchor="middle" x="825.817" y="-1538.3" font-family="Times,serif" font-size="14.00">gocolorize</text>
<polyline fill="none" stroke="black" points="732.874,-1531.5 918.76,-1531.5 "/>
<text text-anchor="middle" x="825.817" y="-1516.3" font-family="Times,serif" font-size="14.00">github.com/agtorre/gocolorize</text>
<polyline fill="none" stroke="black" points="732.874,-1509.5 918.76,-1509.5 "/>
<text text-anchor="middle" x="825.817" y="-1494.3" font-family="Times,serif" font-size="14.00">gocolorize.go</text>
</g>
<!-- github.com/revel/cmd/revel&#45;&gt;github.com/agtorre/gocolorize -->
<g id="edge16" class="edge"><title>github.com/revel/cmd/revel&#45;&gt;github.com/agtorre/gocolorize</title>
<path fill="none" stroke="black" d="M171.245,-1743.59C307.906,-1696.94 576.549,-1605.24 723.274,-1555.16"/>
<polygon fill="black" stroke="black" points="732.759,-1551.92 724.749,-1559.41 728.027,-1553.54 723.295,-1555.15 723.295,-1555.15 723.295,-1555.15 728.027,-1553.54 721.842,-1550.9 732.759,-1551.92 732.759,-1551.92"/>
</g>
<!-- github.com/revel/cmd/harness&#45;&gt;github.com/revel/revel -->
<g id="edge2" class="edge"><title>github.com/revel/cmd/harness&#45;&gt;github.com/revel/revel</title>
<path fill="none" stroke="black" d="M428.534,-1855.5C448.825,-1855.5 470.176,-1855.5 489.99,-1855.5"/>
<polygon fill="black" stroke="black" points="500.197,-1855.5 490.197,-1860 495.197,-1855.5 490.197,-1855.5 490.197,-1855.5 490.197,-1855.5 495.197,-1855.5 490.197,-1851 500.197,-1855.5 500.197,-1855.5"/>
</g>
<!-- github.com/klauspost/compress/gzip -->
<g id="node4" class="node"><title>github.com/klauspost/compress/gzip</title>
<polygon fill="none" stroke="black" points="715.356,-2150.5 715.356,-2230.5 936.277,-2230.5 936.277,-2150.5 715.356,-2150.5"/>
<text text-anchor="middle" x="825.817" y="-2215.3" font-family="Times,serif" font-size="14.00">gzip</text>
<polyline fill="none" stroke="black" points="715.356,-2208.5 936.277,-2208.5 "/>
<text text-anchor="middle" x="825.817" y="-2193.3" font-family="Times,serif" font-size="14.00">github.com/klauspost/compress/gzip</text>
<polyline fill="none" stroke="black" points="715.356,-2186.5 936.277,-2186.5 "/>
<text text-anchor="middle" x="825.817" y="-2171.3" font-family="Times,serif" font-size="14.00">gunzip.go</text>
<text text-anchor="middle" x="825.817" y="-2157.3" font-family="Times,serif" font-size="14.00">gzip.go</text>
</g>
<!-- github.com/revel/revel&#45;&gt;github.com/klauspost/compress/gzip -->
<g id="edge3" class="edge"><title>github.com/revel/revel&#45;&gt;github.com/klauspost/compress/gzip</title>
<path fill="none" stroke="black" d="M643.453,-2042.67C662.881,-2078.19 686.697,-2112.84 715.356,-2140.5 716.597,-2141.7 717.87,-2142.87 719.175,-2144.02"/>
<polygon fill="black" stroke="black" points="726.951,-2150.32 716.348,-2147.52 723.066,-2147.17 719.181,-2144.02 719.181,-2144.02 719.181,-2144.02 723.066,-2147.17 722.014,-2140.52 726.951,-2150.32 726.951,-2150.32"/>
</g>
<!-- github.com/klauspost/compress/zlib -->
<g id="node8" class="node"><title>github.com/klauspost/compress/zlib</title>
<polygon fill="none" stroke="black" points="716.912,-2291.5 716.912,-2371.5 934.722,-2371.5 934.722,-2291.5 716.912,-2291.5"/>
<text text-anchor="middle" x="825.817" y="-2356.3" font-family="Times,serif" font-size="14.00">zlib</text>
<polyline fill="none" stroke="black" points="716.912,-2349.5 934.722,-2349.5 "/>
<text text-anchor="middle" x="825.817" y="-2334.3" font-family="Times,serif" font-size="14.00">github.com/klauspost/compress/zlib</text>
<polyline fill="none" stroke="black" points="716.912,-2327.5 934.722,-2327.5 "/>
<text text-anchor="middle" x="825.817" y="-2312.3" font-family="Times,serif" font-size="14.00">reader.go</text>
<text text-anchor="middle" x="825.817" y="-2298.3" font-family="Times,serif" font-size="14.00">writer.go</text>
</g>
<!-- github.com/revel/revel&#45;&gt;github.com/klauspost/compress/zlib -->
<g id="edge7" class="edge"><title>github.com/revel/revel&#45;&gt;github.com/klauspost/compress/zlib</title>
<path fill="none" stroke="black" d="M628.215,-2063.99C649.78,-2123.83 678.398,-2187.03 715.356,-2239.5 727.043,-2256.09 742.428,-2271.47 757.958,-2284.71"/>
<polygon fill="black" stroke="black" points="766.073,-2291.44 755.502,-2288.52 762.224,-2288.25 758.374,-2285.06 758.374,-2285.06 758.374,-2285.06 762.224,-2288.25 761.246,-2281.59 766.073,-2291.44 766.073,-2291.44"/>
</g>
<!-- golang.org/x/net/websocket -->
<g id="node9" class="node"><title>golang.org/x/net/websocket</title>
<polygon fill="none" stroke="black" points="740.376,-2023.5 740.376,-2131.5 911.258,-2131.5 911.258,-2023.5 740.376,-2023.5"/>
<text text-anchor="middle" x="825.817" y="-2116.3" font-family="Times,serif" font-size="14.00">websocket</text>
<polyline fill="none" stroke="black" points="740.376,-2109.5 911.258,-2109.5 "/>
<text text-anchor="middle" x="825.817" y="-2094.3" font-family="Times,serif" font-size="14.00">golang.org/x/net/websocket</text>
<polyline fill="none" stroke="black" points="740.376,-2087.5 911.258,-2087.5 "/>
<text text-anchor="middle" x="825.817" y="-2072.3" font-family="Times,serif" font-size="14.00">client.go</text>
<text text-anchor="middle" x="825.817" y="-2058.3" font-family="Times,serif" font-size="14.00">hybi.go</text>
<text text-anchor="middle" x="825.817" y="-2044.3" font-family="Times,serif" font-size="14.00">server.go</text>
<text text-anchor="middle" x="825.817" y="-2030.3" font-family="Times,serif" font-size="14.00">websocket.go</text>
</g>
<!-- github.com/revel/revel&#45;&gt;golang.org/x/net/websocket -->
<g id="edge9" class="edge"><title>github.com/revel/revel&#45;&gt;golang.org/x/net/websocket</title>
<path fill="none" stroke="black" d="M643.448,-1943.41C665.127,-1967.62 689.992,-1992.87 715.356,-2013.5 720.577,-2017.75 726.111,-2021.89 731.811,-2025.9"/>
<polygon fill="black" stroke="black" points="740.261,-2031.67 729.465,-2029.75 736.131,-2028.85 732.002,-2026.03 732.002,-2026.03 732.002,-2026.03 736.131,-2028.85 734.539,-2022.31 740.261,-2031.67 740.261,-2031.67"/>
</g>
<!-- github.com/revel/config -->
<g id="node10" class="node"><title>github.com/revel/config</title>
<polygon fill="none" stroke="black" points="750.746,-1840.5 750.746,-2004.5 900.888,-2004.5 900.888,-1840.5 750.746,-1840.5"/>
<text text-anchor="middle" x="825.817" y="-1989.3" font-family="Times,serif" font-size="14.00">config</text>
<polyline fill="none" stroke="black" points="750.746,-1982.5 900.888,-1982.5 "/>
<text text-anchor="middle" x="825.817" y="-1967.3" font-family="Times,serif" font-size="14.00">github.com/revel/config</text>
<polyline fill="none" stroke="black" points="750.746,-1960.5 900.888,-1960.5 "/>
<text text-anchor="middle" x="825.817" y="-1945.3" font-family="Times,serif" font-size="14.00">config.go</text>
<text text-anchor="middle" x="825.817" y="-1931.3" font-family="Times,serif" font-size="14.00">context.go</text>
<text text-anchor="middle" x="825.817" y="-1917.3" font-family="Times,serif" font-size="14.00">error.go</text>
<text text-anchor="middle" x="825.817" y="-1903.3" font-family="Times,serif" font-size="14.00">option.go</text>
<text text-anchor="middle" x="825.817" y="-1889.3" font-family="Times,serif" font-size="14.00">read.go</text>
<text text-anchor="middle" x="825.817" y="-1875.3" font-family="Times,serif" font-size="14.00">section.go</text>
<text text-anchor="middle" x="825.817" y="-1861.3" font-family="Times,serif" font-size="14.00">type.go</text>
<text text-anchor="middle" x="825.817" y="-1847.3" font-family="Times,serif" font-size="14.00">write.go</text>
</g>
<!-- github.com/revel/revel&#45;&gt;github.com/revel/config -->
<g id="edge10" class="edge"><title>github.com/revel/revel&#45;&gt;github.com/revel/config</title>
<path fill="none" stroke="black" d="M643.668,-1874.34C673.752,-1882.34 709.059,-1891.73 740.473,-1900.08"/>
<polygon fill="black" stroke="black" points="750.524,-1902.75 739.704,-1904.53 745.692,-1901.46 740.86,-1900.18 740.86,-1900.18 740.86,-1900.18 745.692,-1901.46 742.016,-1895.83 750.524,-1902.75 750.524,-1902.75"/>
</g>
<!-- github.com/revel/revel&#45;&gt;github.com/agtorre/gocolorize -->
<g id="edge11" class="edge"><title>github.com/revel/revel&#45;&gt;github.com/agtorre/gocolorize</title>
<path fill="none" stroke="black" d="M643.404,-1657.87C662.63,-1622.81 686.38,-1589.07 715.356,-1562.5 718.146,-1559.94 721.107,-1557.53 724.201,-1555.27"/>
<polygon fill="black" stroke="black" points="732.674,-1549.59 726.869,-1558.9 728.519,-1552.38 724.365,-1555.16 724.365,-1555.16 724.365,-1555.16 728.519,-1552.38 721.861,-1551.42 732.674,-1549.59 732.674,-1549.59"/>
</g>
<!-- github.com/robfig/pathtree -->
<g id="node12" class="node"><title>github.com/robfig/pathtree</title>
<polygon fill="none" stroke="black" points="742.97,-1755.5 742.97,-1821.5 908.664,-1821.5 908.664,-1755.5 742.97,-1755.5"/>
<text text-anchor="middle" x="825.817" y="-1806.3" font-family="Times,serif" font-size="14.00">pathtree</text>
<polyline fill="none" stroke="black" points="742.97,-1799.5 908.664,-1799.5 "/>
<text text-anchor="middle" x="825.817" y="-1784.3" font-family="Times,serif" font-size="14.00">github.com/robfig/pathtree</text>
<polyline fill="none" stroke="black" points="742.97,-1777.5 908.664,-1777.5 "/>
<text text-anchor="middle" x="825.817" y="-1762.3" font-family="Times,serif" font-size="14.00">tree.go</text>
</g>
<!-- github.com/revel/revel&#45;&gt;github.com/robfig/pathtree -->
<g id="edge12" class="edge"><title>github.com/revel/revel&#45;&gt;github.com/robfig/pathtree</title>
<path fill="none" stroke="black" d="M643.668,-1836.66C671.399,-1829.29 703.566,-1820.73 733.032,-1812.9"/>
<polygon fill="black" stroke="black" points="742.911,-1810.27 734.403,-1817.19 738.079,-1811.56 733.247,-1812.84 733.247,-1812.84 733.247,-1812.84 738.079,-1811.56 732.091,-1808.5 742.911,-1810.27 742.911,-1810.27"/>
</g>
<!-- gopkg.in/fsnotify.v1 -->
<g id="node13" class="node"><title>gopkg.in/fsnotify.v1</title>
<polygon fill="none" stroke="black" points="753.47,-1572.5 753.47,-1736.5 898.164,-1736.5 898.164,-1572.5 753.47,-1572.5"/>
<text text-anchor="middle" x="825.817" y="-1721.3" font-family="Times,serif" font-size="14.00">fsnotify</text>
<polyline fill="none" stroke="black" points="753.47,-1714.5 898.164,-1714.5 "/>
<text text-anchor="middle" x="825.817" y="-1699.3" font-family="Times,serif" font-size="14.00">gopkg.in/fsnotify.v1</text>
<polyline fill="none" stroke="black" points="753.47,-1692.5 898.164,-1692.5 "/>
<text text-anchor="middle" x="825.817" y="-1677.3" font-family="Times,serif" font-size="14.00">fen.go</text>
<text text-anchor="middle" x="825.817" y="-1663.3" font-family="Times,serif" font-size="14.00">fsnotify.go</text>
<text text-anchor="middle" x="825.817" y="-1649.3" font-family="Times,serif" font-size="14.00">inotify.go</text>
<text text-anchor="middle" x="825.817" y="-1635.3" font-family="Times,serif" font-size="14.00">inotify_poller.go</text>
<text text-anchor="middle" x="825.817" y="-1621.3" font-family="Times,serif" font-size="14.00">kqueue.go</text>
<text text-anchor="middle" x="825.817" y="-1607.3" font-family="Times,serif" font-size="14.00">open_mode_bsd.go</text>
<text text-anchor="middle" x="825.817" y="-1593.3" font-family="Times,serif" font-size="14.00">open_mode_darwin.go</text>
<text text-anchor="middle" x="825.817" y="-1579.3" font-family="Times,serif" font-size="14.00">windows.go</text>
</g>
<!-- github.com/revel/revel&#45;&gt;gopkg.in/fsnotify.v1 -->
<g id="edge13" class="edge"><title>github.com/revel/revel&#45;&gt;gopkg.in/fsnotify.v1</title>
<path fill="none" stroke="black" d="M643.668,-1798.98C675.209,-1773.82 712.49,-1744.09 745.007,-1718.15"/>
<polygon fill="black" stroke="black" points="753.165,-1711.65 748.153,-1721.4 749.256,-1714.76 745.347,-1717.88 745.347,-1717.88 745.347,-1717.88 749.256,-1714.76 742.541,-1714.36 753.165,-1711.65 753.165,-1711.65"/>
</g>
<!-- github.com/klauspost/compress/flate -->
<g id="node5" class="node"><title>github.com/klauspost/compress/flate</title>
<polygon fill="none" stroke="black" points="1008.28,-2242.5 1008.28,-2462.5 1229.2,-2462.5 1229.2,-2242.5 1008.28,-2242.5"/>
<text text-anchor="middle" x="1118.74" y="-2447.3" font-family="Times,serif" font-size="14.00">flate</text>
<polyline fill="none" stroke="black" points="1008.28,-2440.5 1229.2,-2440.5 "/>
<text text-anchor="middle" x="1118.74" y="-2425.3" font-family="Times,serif" font-size="14.00">github.com/klauspost/compress/flate</text>
<polyline fill="none" stroke="black" points="1008.28,-2418.5 1229.2,-2418.5 "/>
<text text-anchor="middle" x="1118.74" y="-2403.3" font-family="Times,serif" font-size="14.00">copy.go</text>
<text text-anchor="middle" x="1118.74" y="-2389.3" font-family="Times,serif" font-size="14.00">crc32_amd64.go</text>
<text text-anchor="middle" x="1118.74" y="-2375.3" font-family="Times,serif" font-size="14.00">crc32_noasm.go</text>
<text text-anchor="middle" x="1118.74" y="-2361.3" font-family="Times,serif" font-size="14.00">deflate.go</text>
<text text-anchor="middle" x="1118.74" y="-2347.3" font-family="Times,serif" font-size="14.00">fixedhuff.go</text>
<text text-anchor="middle" x="1118.74" y="-2333.3" font-family="Times,serif" font-size="14.00">gen.go</text>
<text text-anchor="middle" x="1118.74" y="-2319.3" font-family="Times,serif" font-size="14.00">huffman_bit_writer.go</text>
<text text-anchor="middle" x="1118.74" y="-2305.3" font-family="Times,serif" font-size="14.00">huffman_code.go</text>
<text text-anchor="middle" x="1118.74" y="-2291.3" font-family="Times,serif" font-size="14.00">inflate.go</text>
<text text-anchor="middle" x="1118.74" y="-2277.3" font-family="Times,serif" font-size="14.00">reverse_bits.go</text>
<text text-anchor="middle" x="1118.74" y="-2263.3" font-family="Times,serif" font-size="14.00">snappy.go</text>
<text text-anchor="middle" x="1118.74" y="-2249.3" font-family="Times,serif" font-size="14.00">token.go</text>
</g>
<!-- github.com/klauspost/compress/gzip&#45;&gt;github.com/klauspost/compress/flate -->
<g id="edge4" class="edge"><title>github.com/klauspost/compress/gzip&#45;&gt;github.com/klauspost/compress/flate</title>
<path fill="none" stroke="black" d="M898.73,-2230.54C929.004,-2247.4 965.046,-2267.47 999.063,-2286.42"/>
<polygon fill="black" stroke="black" points="1008.13,-2291.46 997.203,-2290.53 1003.76,-2289.03 999.392,-2286.6 999.392,-2286.6 999.392,-2286.6 1003.76,-2289.03 1001.58,-2282.67 1008.13,-2291.46 1008.13,-2291.46"/>
</g>
<!-- github.com/klauspost/crc32 -->
<g id="node7" class="node"><title>github.com/klauspost/crc32</title>
<polygon fill="none" stroke="black" points="1033.17,-2115.5 1033.17,-2223.5 1204.31,-2223.5 1204.31,-2115.5 1033.17,-2115.5"/>
<text text-anchor="middle" x="1118.74" y="-2208.3" font-family="Times,serif" font-size="14.00">crc32</text>
<polyline fill="none" stroke="black" points="1033.17,-2201.5 1204.31,-2201.5 "/>
<text text-anchor="middle" x="1118.74" y="-2186.3" font-family="Times,serif" font-size="14.00">github.com/klauspost/crc32</text>
<polyline fill="none" stroke="black" points="1033.17,-2179.5 1204.31,-2179.5 "/>
<text text-anchor="middle" x="1118.74" y="-2164.3" font-family="Times,serif" font-size="14.00">crc32.go</text>
<text text-anchor="middle" x="1118.74" y="-2150.3" font-family="Times,serif" font-size="14.00">crc32_amd64.go</text>
<text text-anchor="middle" x="1118.74" y="-2136.3" font-family="Times,serif" font-size="14.00">crc32_amd64p32.go</text>
<text text-anchor="middle" x="1118.74" y="-2122.3" font-family="Times,serif" font-size="14.00">crc32_generic.go</text>
</g>
<!-- github.com/klauspost/compress/gzip&#45;&gt;github.com/klauspost/crc32 -->
<g id="edge6" class="edge"><title>github.com/klauspost/compress/gzip&#45;&gt;github.com/klauspost/crc32</title>
<path fill="none" stroke="black" d="M936.387,-2182.59C964.791,-2180.54 995.141,-2178.35 1022.73,-2176.36"/>
<polygon fill="black" stroke="black" points="1032.76,-2175.63 1023.11,-2180.84 1027.77,-2175.99 1022.78,-2176.35 1022.78,-2176.35 1022.78,-2176.35 1027.77,-2175.99 1022.46,-2171.87 1032.76,-2175.63 1032.76,-2175.63"/>
</g>
<!-- github.com/klauspost/cpuid -->
<g id="node6" class="node"><title>github.com/klauspost/cpuid</title>
<polygon fill="none" stroke="black" points="1301.2,-2291.5 1301.2,-2413.5 1472.35,-2413.5 1472.35,-2291.5 1301.2,-2291.5"/>
<text text-anchor="middle" x="1386.78" y="-2398.3" font-family="Times,serif" font-size="14.00">cpuid</text>
<polyline fill="none" stroke="black" points="1301.2,-2391.5 1472.35,-2391.5 "/>
<text text-anchor="middle" x="1386.78" y="-2376.3" font-family="Times,serif" font-size="14.00">github.com/klauspost/cpuid</text>
<polyline fill="none" stroke="black" points="1301.2,-2369.5 1472.35,-2369.5 "/>
<text text-anchor="middle" x="1386.78" y="-2354.3" font-family="Times,serif" font-size="14.00">cpuid.go</text>
<text text-anchor="middle" x="1386.78" y="-2340.3" font-family="Times,serif" font-size="14.00">detect_intel.go</text>
<text text-anchor="middle" x="1386.78" y="-2326.3" font-family="Times,serif" font-size="14.00">detect_ref.go</text>
<text text-anchor="middle" x="1386.78" y="-2312.3" font-family="Times,serif" font-size="14.00">generate.go</text>
<text text-anchor="middle" x="1386.78" y="-2298.3" font-family="Times,serif" font-size="14.00">private&#45;gen.go</text>
</g>
<!-- github.com/klauspost/compress/flate&#45;&gt;github.com/klauspost/cpuid -->
<g id="edge5" class="edge"><title>github.com/klauspost/compress/flate&#45;&gt;github.com/klauspost/cpuid</title>
<path fill="none" stroke="black" d="M1229.48,-2352.5C1249.84,-2352.5 1270.94,-2352.5 1290.81,-2352.5"/>
<polygon fill="black" stroke="black" points="1301.08,-2352.5 1291.08,-2357 1296.08,-2352.5 1291.08,-2352.5 1291.08,-2352.5 1291.08,-2352.5 1296.08,-2352.5 1291.08,-2348 1301.08,-2352.5 1301.08,-2352.5"/>
</g>
<!-- github.com/klauspost/compress/zlib&#45;&gt;github.com/klauspost/compress/flate -->
<g id="edge8" class="edge"><title>github.com/klauspost/compress/zlib&#45;&gt;github.com/klauspost/compress/flate</title>
<path fill="none" stroke="black" d="M934.732,-2339.29C955.299,-2340.77 976.94,-2342.34 997.854,-2343.85"/>
<polygon fill="black" stroke="black" points="1008.05,-2344.58 997.756,-2348.35 1003.07,-2344.22 998.08,-2343.86 998.08,-2343.86 998.08,-2343.86 1003.07,-2344.22 998.404,-2339.37 1008.05,-2344.58 1008.05,-2344.58"/>
</g>
<!-- golang.org/x/sys/unix -->
<g id="node14" class="node"><title>golang.org/x/sys/unix</title>
<polygon fill="none" stroke="black" points="1024.6,-0.5 1024.6,-2096.5 1212.87,-2096.5 1212.87,-0.5 1024.6,-0.5"/>
<text text-anchor="middle" x="1118.74" y="-2081.3" font-family="Times,serif" font-size="14.00">unix</text>
<polyline fill="none" stroke="black" points="1024.6,-2074.5 1212.87,-2074.5 "/>
<text text-anchor="middle" x="1118.74" y="-2059.3" font-family="Times,serif" font-size="14.00">golang.org/x/sys/unix</text>
<polyline fill="none" stroke="black" points="1024.6,-2052.5 1212.87,-2052.5 "/>
<text text-anchor="middle" x="1118.74" y="-2037.3" font-family="Times,serif" font-size="14.00">bluetooth_linux.go</text>
<text text-anchor="middle" x="1118.74" y="-2023.3" font-family="Times,serif" font-size="14.00">constants.go</text>
<text text-anchor="middle" x="1118.74" y="-2009.3" font-family="Times,serif" font-size="14.00">env_unix.go</text>
<text text-anchor="middle" x="1118.74" y="-1995.3" font-family="Times,serif" font-size="14.00">env_unset.go</text>
<text text-anchor="middle" x="1118.74" y="-1981.3" font-family="Times,serif" font-size="14.00">flock.go</text>
<text text-anchor="middle" x="1118.74" y="-1967.3" font-family="Times,serif" font-size="14.00">flock_linux_32bit.go</text>
<text text-anchor="middle" x="1118.74" y="-1953.3" font-family="Times,serif" font-size="14.00">gccgo.go</text>
<text text-anchor="middle" x="1118.74" y="-1939.3" font-family="Times,serif" font-size="14.00">gccgo_linux_amd64.go</text>
<text text-anchor="middle" x="1118.74" y="-1925.3" font-family="Times,serif" font-size="14.00">mkpost.go</text>
<text text-anchor="middle" x="1118.74" y="-1911.3" font-family="Times,serif" font-size="14.00">race.go</text>
<text text-anchor="middle" x="1118.74" y="-1897.3" font-family="Times,serif" font-size="14.00">race0.go</text>
<text text-anchor="middle" x="1118.74" y="-1883.3" font-family="Times,serif" font-size="14.00">sockcmsg_linux.go</text>
<text text-anchor="middle" x="1118.74" y="-1869.3" font-family="Times,serif" font-size="14.00">sockcmsg_unix.go</text>
<text text-anchor="middle" x="1118.74" y="-1855.3" font-family="Times,serif" font-size="14.00">str.go</text>
<text text-anchor="middle" x="1118.74" y="-1841.3" font-family="Times,serif" font-size="14.00">syscall.go</text>
<text text-anchor="middle" x="1118.74" y="-1827.3" font-family="Times,serif" font-size="14.00">syscall_bsd.go</text>
<text text-anchor="middle" x="1118.74" y="-1813.3" font-family="Times,serif" font-size="14.00">syscall_darwin.go</text>
<text text-anchor="middle" x="1118.74" y="-1799.3" font-family="Times,serif" font-size="14.00">syscall_darwin_386.go</text>
<text text-anchor="middle" x="1118.74" y="-1785.3" font-family="Times,serif" font-size="14.00">syscall_darwin_amd64.go</text>
<text text-anchor="middle" x="1118.74" y="-1771.3" font-family="Times,serif" font-size="14.00">syscall_darwin_arm.go</text>
<text text-anchor="middle" x="1118.74" y="-1757.3" font-family="Times,serif" font-size="14.00">syscall_darwin_arm64.go</text>
<text text-anchor="middle" x="1118.74" y="-1743.3" font-family="Times,serif" font-size="14.00">syscall_dragonfly.go</text>
<text text-anchor="middle" x="1118.74" y="-1729.3" font-family="Times,serif" font-size="14.00">syscall_dragonfly_amd64.go</text>
<text text-anchor="middle" x="1118.74" y="-1715.3" font-family="Times,serif" font-size="14.00">syscall_freebsd.go</text>
<text text-anchor="middle" x="1118.74" y="-1701.3" font-family="Times,serif" font-size="14.00">syscall_freebsd_386.go</text>
<text text-anchor="middle" x="1118.74" y="-1687.3" font-family="Times,serif" font-size="14.00">syscall_freebsd_amd64.go</text>
<text text-anchor="middle" x="1118.74" y="-1673.3" font-family="Times,serif" font-size="14.00">syscall_freebsd_arm.go</text>
<text text-anchor="middle" x="1118.74" y="-1659.3" font-family="Times,serif" font-size="14.00">syscall_linux.go</text>
<text text-anchor="middle" x="1118.74" y="-1645.3" font-family="Times,serif" font-size="14.00">syscall_linux_386.go</text>
<text text-anchor="middle" x="1118.74" y="-1631.3" font-family="Times,serif" font-size="14.00">syscall_linux_amd64.go</text>
<text text-anchor="middle" x="1118.74" y="-1617.3" font-family="Times,serif" font-size="14.00">syscall_linux_arm.go</text>
<text text-anchor="middle" x="1118.74" y="-1603.3" font-family="Times,serif" font-size="14.00">syscall_linux_arm64.go</text>
<text text-anchor="middle" x="1118.74" y="-1589.3" font-family="Times,serif" font-size="14.00">syscall_linux_mips64x.go</text>
<text text-anchor="middle" x="1118.74" y="-1575.3" font-family="Times,serif" font-size="14.00">syscall_linux_ppc64x.go</text>
<text text-anchor="middle" x="1118.74" y="-1561.3" font-family="Times,serif" font-size="14.00">syscall_linux_s390x.go</text>
<text text-anchor="middle" x="1118.74" y="-1547.3" font-family="Times,serif" font-size="14.00">syscall_netbsd.go</text>
<text text-anchor="middle" x="1118.74" y="-1533.3" font-family="Times,serif" font-size="14.00">syscall_netbsd_386.go</text>
<text text-anchor="middle" x="1118.74" y="-1519.3" font-family="Times,serif" font-size="14.00">syscall_netbsd_amd64.go</text>
<text text-anchor="middle" x="1118.74" y="-1505.3" font-family="Times,serif" font-size="14.00">syscall_netbsd_arm.go</text>
<text text-anchor="middle" x="1118.74" y="-1491.3" font-family="Times,serif" font-size="14.00">syscall_no_getwd.go</text>
<text text-anchor="middle" x="1118.74" y="-1477.3" font-family="Times,serif" font-size="14.00">syscall_openbsd.go</text>
<text text-anchor="middle" x="1118.74" y="-1463.3" font-family="Times,serif" font-size="14.00">syscall_openbsd_386.go</text>
<text text-anchor="middle" x="1118.74" y="-1449.3" font-family="Times,serif" font-size="14.00">syscall_openbsd_amd64.go</text>
<text text-anchor="middle" x="1118.74" y="-1435.3" font-family="Times,serif" font-size="14.00">syscall_solaris.go</text>
<text text-anchor="middle" x="1118.74" y="-1421.3" font-family="Times,serif" font-size="14.00">syscall_solaris_amd64.go</text>
<text text-anchor="middle" x="1118.74" y="-1407.3" font-family="Times,serif" font-size="14.00">syscall_unix.go</text>
<text text-anchor="middle" x="1118.74" y="-1393.3" font-family="Times,serif" font-size="14.00">types_darwin.go</text>
<text text-anchor="middle" x="1118.74" y="-1379.3" font-family="Times,serif" font-size="14.00">types_dragonfly.go</text>
<text text-anchor="middle" x="1118.74" y="-1365.3" font-family="Times,serif" font-size="14.00">types_freebsd.go</text>
<text text-anchor="middle" x="1118.74" y="-1351.3" font-family="Times,serif" font-size="14.00">types_linux.go</text>
<text text-anchor="middle" x="1118.74" y="-1337.3" font-family="Times,serif" font-size="14.00">types_netbsd.go</text>
<text text-anchor="middle" x="1118.74" y="-1323.3" font-family="Times,serif" font-size="14.00">types_openbsd.go</text>
<text text-anchor="middle" x="1118.74" y="-1309.3" font-family="Times,serif" font-size="14.00">types_solaris.go</text>
<text text-anchor="middle" x="1118.74" y="-1295.3" font-family="Times,serif" font-size="14.00">zerrors_darwin_386.go</text>
<text text-anchor="middle" x="1118.74" y="-1281.3" font-family="Times,serif" font-size="14.00">zerrors_darwin_amd64.go</text>
<text text-anchor="middle" x="1118.74" y="-1267.3" font-family="Times,serif" font-size="14.00">zerrors_darwin_arm.go</text>
<text text-anchor="middle" x="1118.74" y="-1253.3" font-family="Times,serif" font-size="14.00">zerrors_darwin_arm64.go</text>
<text text-anchor="middle" x="1118.74" y="-1239.3" font-family="Times,serif" font-size="14.00">zerrors_dragonfly_amd64.go</text>
<text text-anchor="middle" x="1118.74" y="-1225.3" font-family="Times,serif" font-size="14.00">zerrors_freebsd_386.go</text>
<text text-anchor="middle" x="1118.74" y="-1211.3" font-family="Times,serif" font-size="14.00">zerrors_freebsd_amd64.go</text>
<text text-anchor="middle" x="1118.74" y="-1197.3" font-family="Times,serif" font-size="14.00">zerrors_freebsd_arm.go</text>
<text text-anchor="middle" x="1118.74" y="-1183.3" font-family="Times,serif" font-size="14.00">zerrors_linux_386.go</text>
<text text-anchor="middle" x="1118.74" y="-1169.3" font-family="Times,serif" font-size="14.00">zerrors_linux_amd64.go</text>
<text text-anchor="middle" x="1118.74" y="-1155.3" font-family="Times,serif" font-size="14.00">zerrors_linux_arm.go</text>
<text text-anchor="middle" x="1118.74" y="-1141.3" font-family="Times,serif" font-size="14.00">zerrors_linux_arm64.go</text>
<text text-anchor="middle" x="1118.74" y="-1127.3" font-family="Times,serif" font-size="14.00">zerrors_linux_mips64.go</text>
<text text-anchor="middle" x="1118.74" y="-1113.3" font-family="Times,serif" font-size="14.00">zerrors_linux_mips64le.go</text>
<text text-anchor="middle" x="1118.74" y="-1099.3" font-family="Times,serif" font-size="14.00">zerrors_linux_ppc64.go</text>
<text text-anchor="middle" x="1118.74" y="-1085.3" font-family="Times,serif" font-size="14.00">zerrors_linux_ppc64le.go</text>
<text text-anchor="middle" x="1118.74" y="-1071.3" font-family="Times,serif" font-size="14.00">zerrors_linux_s390x.go</text>
<text text-anchor="middle" x="1118.74" y="-1057.3" font-family="Times,serif" font-size="14.00">zerrors_netbsd_386.go</text>
<text text-anchor="middle" x="1118.74" y="-1043.3" font-family="Times,serif" font-size="14.00">zerrors_netbsd_amd64.go</text>
<text text-anchor="middle" x="1118.74" y="-1029.3" font-family="Times,serif" font-size="14.00">zerrors_netbsd_arm.go</text>
<text text-anchor="middle" x="1118.74" y="-1015.3" font-family="Times,serif" font-size="14.00">zerrors_openbsd_386.go</text>
<text text-anchor="middle" x="1118.74" y="-1001.3" font-family="Times,serif" font-size="14.00">zerrors_openbsd_amd64.go</text>
<text text-anchor="middle" x="1118.74" y="-987.3" font-family="Times,serif" font-size="14.00">zerrors_solaris_amd64.go</text>
<text text-anchor="middle" x="1118.74" y="-973.3" font-family="Times,serif" font-size="14.00">zsyscall_darwin_386.go</text>
<text text-anchor="middle" x="1118.74" y="-959.3" font-family="Times,serif" font-size="14.00">zsyscall_darwin_amd64.go</text>
<text text-anchor="middle" x="1118.74" y="-945.3" font-family="Times,serif" font-size="14.00">zsyscall_darwin_arm.go</text>
<text text-anchor="middle" x="1118.74" y="-931.3" font-family="Times,serif" font-size="14.00">zsyscall_darwin_arm64.go</text>
<text text-anchor="middle" x="1118.74" y="-917.3" font-family="Times,serif" font-size="14.00">zsyscall_dragonfly_amd64.go</text>
<text text-anchor="middle" x="1118.74" y="-903.3" font-family="Times,serif" font-size="14.00">zsyscall_freebsd_386.go</text>
<text text-anchor="middle" x="1118.74" y="-889.3" font-family="Times,serif" font-size="14.00">zsyscall_freebsd_amd64.go</text>
<text text-anchor="middle" x="1118.74" y="-875.3" font-family="Times,serif" font-size="14.00">zsyscall_freebsd_arm.go</text>
<text text-anchor="middle" x="1118.74" y="-861.3" font-family="Times,serif" font-size="14.00">zsyscall_linux_386.go</text>
<text text-anchor="middle" x="1118.74" y="-847.3" font-family="Times,serif" font-size="14.00">zsyscall_linux_amd64.go</text>
<text text-anchor="middle" x="1118.74" y="-833.3" font-family="Times,serif" font-size="14.00">zsyscall_linux_arm.go</text>
<text text-anchor="middle" x="1118.74" y="-819.3" font-family="Times,serif" font-size="14.00">zsyscall_linux_arm64.go</text>
<text text-anchor="middle" x="1118.74" y="-805.3" font-family="Times,serif" font-size="14.00">zsyscall_linux_mips64.go</text>
<text text-anchor="middle" x="1118.74" y="-791.3" font-family="Times,serif" font-size="14.00">zsyscall_linux_mips64le.go</text>
<text text-anchor="middle" x="1118.74" y="-777.3" font-family="Times,serif" font-size="14.00">zsyscall_linux_ppc64.go</text>
<text text-anchor="middle" x="1118.74" y="-763.3" font-family="Times,serif" font-size="14.00">zsyscall_linux_ppc64le.go</text>
<text text-anchor="middle" x="1118.74" y="-749.3" font-family="Times,serif" font-size="14.00">zsyscall_linux_s390x.go</text>
<text text-anchor="middle" x="1118.74" y="-735.3" font-family="Times,serif" font-size="14.00">zsyscall_netbsd_386.go</text>
<text text-anchor="middle" x="1118.74" y="-721.3" font-family="Times,serif" font-size="14.00">zsyscall_netbsd_amd64.go</text>
<text text-anchor="middle" x="1118.74" y="-707.3" font-family="Times,serif" font-size="14.00">zsyscall_netbsd_arm.go</text>
<text text-anchor="middle" x="1118.74" y="-693.3" font-family="Times,serif" font-size="14.00">zsyscall_openbsd_386.go</text>
<text text-anchor="middle" x="1118.74" y="-679.3" font-family="Times,serif" font-size="14.00">zsyscall_openbsd_amd64.go</text>
<text text-anchor="middle" x="1118.74" y="-665.3" font-family="Times,serif" font-size="14.00">zsyscall_solaris_amd64.go</text>
<text text-anchor="middle" x="1118.74" y="-651.3" font-family="Times,serif" font-size="14.00">zsysctl_openbsd.go</text>
<text text-anchor="middle" x="1118.74" y="-637.3" font-family="Times,serif" font-size="14.00">zsysnum_darwin_386.go</text>
<text text-anchor="middle" x="1118.74" y="-623.3" font-family="Times,serif" font-size="14.00">zsysnum_darwin_amd64.go</text>
<text text-anchor="middle" x="1118.74" y="-609.3" font-family="Times,serif" font-size="14.00">zsysnum_darwin_arm.go</text>
<text text-anchor="middle" x="1118.74" y="-595.3" font-family="Times,serif" font-size="14.00">zsysnum_darwin_arm64.go</text>
<text text-anchor="middle" x="1118.74" y="-581.3" font-family="Times,serif" font-size="14.00">zsysnum_dragonfly_amd64.go</text>
<text text-anchor="middle" x="1118.74" y="-567.3" font-family="Times,serif" font-size="14.00">zsysnum_freebsd_386.go</text>
<text text-anchor="middle" x="1118.74" y="-553.3" font-family="Times,serif" font-size="14.00">zsysnum_freebsd_amd64.go</text>
<text text-anchor="middle" x="1118.74" y="-539.3" font-family="Times,serif" font-size="14.00">zsysnum_freebsd_arm.go</text>
<text text-anchor="middle" x="1118.74" y="-525.3" font-family="Times,serif" font-size="14.00">zsysnum_linux_386.go</text>
<text text-anchor="middle" x="1118.74" y="-511.3" font-family="Times,serif" font-size="14.00">zsysnum_linux_amd64.go</text>
<text text-anchor="middle" x="1118.74" y="-497.3" font-family="Times,serif" font-size="14.00">zsysnum_linux_arm.go</text>
<text text-anchor="middle" x="1118.74" y="-483.3" font-family="Times,serif" font-size="14.00">zsysnum_linux_arm64.go</text>
<text text-anchor="middle" x="1118.74" y="-469.3" font-family="Times,serif" font-size="14.00">zsysnum_linux_mips64.go</text>
<text text-anchor="middle" x="1118.74" y="-455.3" font-family="Times,serif" font-size="14.00">zsysnum_linux_mips64le.go</text>
<text text-anchor="middle" x="1118.74" y="-441.3" font-family="Times,serif" font-size="14.00">zsysnum_linux_ppc64.go</text>
<text text-anchor="middle" x="1118.74" y="-427.3" font-family="Times,serif" font-size="14.00">zsysnum_linux_ppc64le.go</text>
<text text-anchor="middle" x="1118.74" y="-413.3" font-family="Times,serif" font-size="14.00">zsysnum_linux_s390x.go</text>
<text text-anchor="middle" x="1118.74" y="-399.3" font-family="Times,serif" font-size="14.00">zsysnum_netbsd_386.go</text>
<text text-anchor="middle" x="1118.74" y="-385.3" font-family="Times,serif" font-size="14.00">zsysnum_netbsd_amd64.go</text>
<text text-anchor="middle" x="1118.74" y="-371.3" font-family="Times,serif" font-size="14.00">zsysnum_netbsd_arm.go</text>
<text text-anchor="middle" x="1118.74" y="-357.3" font-family="Times,serif" font-size="14.00">zsysnum_openbsd_386.go</text>
<text text-anchor="middle" x="1118.74" y="-343.3" font-family="Times,serif" font-size="14.00">zsysnum_openbsd_amd64.go</text>
<text text-anchor="middle" x="1118.74" y="-329.3" font-family="Times,serif" font-size="14.00">zsysnum_solaris_amd64.go</text>
<text text-anchor="middle" x="1118.74" y="-315.3" font-family="Times,serif" font-size="14.00">ztypes_darwin_386.go</text>
<text text-anchor="middle" x="1118.74" y="-301.3" font-family="Times,serif" font-size="14.00">ztypes_darwin_amd64.go</text>
<text text-anchor="middle" x="1118.74" y="-287.3" font-family="Times,serif" font-size="14.00">ztypes_darwin_arm.go</text>
<text text-anchor="middle" x="1118.74" y="-273.3" font-family="Times,serif" font-size="14.00">ztypes_darwin_arm64.go</text>
<text text-anchor="middle" x="1118.74" y="-259.3" font-family="Times,serif" font-size="14.00">ztypes_dragonfly_amd64.go</text>
<text text-anchor="middle" x="1118.74" y="-245.3" font-family="Times,serif" font-size="14.00">ztypes_freebsd_386.go</text>
<text text-anchor="middle" x="1118.74" y="-231.3" font-family="Times,serif" font-size="14.00">ztypes_freebsd_amd64.go</text>
<text text-anchor="middle" x="1118.74" y="-217.3" font-family="Times,serif" font-size="14.00">ztypes_freebsd_arm.go</text>
<text text-anchor="middle" x="1118.74" y="-203.3" font-family="Times,serif" font-size="14.00">ztypes_linux_386.go</text>
<text text-anchor="middle" x="1118.74" y="-189.3" font-family="Times,serif" font-size="14.00">ztypes_linux_amd64.go</text>
<text text-anchor="middle" x="1118.74" y="-175.3" font-family="Times,serif" font-size="14.00">ztypes_linux_arm.go</text>
<text text-anchor="middle" x="1118.74" y="-161.3" font-family="Times,serif" font-size="14.00">ztypes_linux_arm64.go</text>
<text text-anchor="middle" x="1118.74" y="-147.3" font-family="Times,serif" font-size="14.00">ztypes_linux_mips64.go</text>
<text text-anchor="middle" x="1118.74" y="-133.3" font-family="Times,serif" font-size="14.00">ztypes_linux_mips64le.go</text>
<text text-anchor="middle" x="1118.74" y="-119.3" font-family="Times,serif" font-size="14.00">ztypes_linux_ppc64.go</text>
<text text-anchor="middle" x="1118.74" y="-105.3" font-family="Times,serif" font-size="14.00">ztypes_linux_ppc64le.go</text>
<text text-anchor="middle" x="1118.74" y="-91.3" font-family="Times,serif" font-size="14.00">ztypes_linux_s390x.go</text>
<text text-anchor="middle" x="1118.74" y="-77.3" font-family="Times,serif" font-size="14.00">ztypes_netbsd_386.go</text>
<text text-anchor="middle" x="1118.74" y="-63.3" font-family="Times,serif" font-size="14.00">ztypes_netbsd_amd64.go</text>
<text text-anchor="middle" x="1118.74" y="-49.3" font-family="Times,serif" font-size="14.00">ztypes_netbsd_arm.go</text>
<text text-anchor="middle" x="1118.74" y="-35.3" font-family="Times,serif" font-size="14.00">ztypes_openbsd_386.go</text>
<text text-anchor="middle" x="1118.74" y="-21.3" font-family="Times,serif" font-size="14.00">ztypes_openbsd_amd64.go</text>
<text text-anchor="middle" x="1118.74" y="-7.3" font-family="Times,serif" font-size="14.00">ztypes_solaris_amd64.go</text>
</g>
<!-- gopkg.in/fsnotify.v1&#45;&gt;golang.org/x/sys/unix -->
<g id="edge14" class="edge"><title>gopkg.in/fsnotify.v1&#45;&gt;golang.org/x/sys/unix</title>
<path fill="none" stroke="black" d="M898.27,-1604.02C912.262,-1591.66 925.82,-1577.6 936.277,-1562.5 969.766,-1514.13 997.691,-1458.95 1020.78,-1403.11"/>
<polygon fill="black" stroke="black" points="1024.59,-1393.78 1024.98,-1404.74 1022.7,-1398.41 1020.81,-1403.03 1020.81,-1403.03 1020.81,-1403.03 1022.7,-1398.41 1016.64,-1401.33 1024.59,-1393.78 1024.59,-1393.78"/>
</g>
</g>
</svg>
