<?xml version="1.0" encoding="UTF-8" standalone="no"?>
<!DOCTYPE svg PUBLIC "-//W3C//DTD SVG 1.1//EN"
 "http://www.w3.org/Graphics/SVG/1.1/DTD/svg11.dtd">
<!-- Generated by graphviz version 2.38.0 (20140413.2041)
 -->
<!-- Title: main Pages: 1 -->
<svg width="1453pt" height="610pt"
 viewBox="0.00 0.00 1452.63 610.28" xmlns="http://www.w3.org/2000/svg" xmlns:xlink="http://www.w3.org/1999/xlink">
<g id="graph0" class="graph" transform="scale(1 1) rotate(0) translate(4 606.276)">
<title>main</title>
<polygon fill="white" stroke="none" points="-4,4 -4,-606.276 1448.63,-606.276 1448.63,4 -4,4"/>
<!-- github.com/micromdm/scep/cmd/scepserver -->
<g id="node1" class="node"><title>github.com/micromdm/scep/cmd/scepserver</title>
<polygon fill="none" stroke="black" points="0,-239.776 0,-305.776 264.432,-305.776 264.432,-239.776 0,-239.776"/>
<text text-anchor="middle" x="132.216" y="-290.576" font-family="Times,serif" font-size="14.00">main</text>
<polyline fill="none" stroke="black" points="0,-283.776 264.432,-283.776 "/>
<text text-anchor="middle" x="132.216" y="-268.576" font-family="Times,serif" font-size="14.00">github.com/micromdm/scep/cmd/scepserver</text>
<polyline fill="none" stroke="black" points="0,-261.776 264.432,-261.776 "/>
<text text-anchor="middle" x="132.216" y="-246.576" font-family="Times,serif" font-size="14.00">scepserver.go</text>
</g>
<!-- github.com/go&#45;kit/kit/log -->
<g id="node2" class="node"><title>github.com/go&#45;kit/kit/log</title>
<polygon fill="none" stroke="black" points="970.839,-430.776 970.839,-594.776 1128,-594.776 1128,-430.776 970.839,-430.776"/>
<text text-anchor="middle" x="1049.42" y="-579.576" font-family="Times,serif" font-size="14.00">log</text>
<polyline fill="none" stroke="black" points="970.839,-572.776 1128,-572.776 "/>
<text text-anchor="middle" x="1049.42" y="-557.576" font-family="Times,serif" font-size="14.00">github.com/go&#45;kit/kit/log</text>
<polyline fill="none" stroke="black" points="970.839,-550.776 1128,-550.776 "/>
<text text-anchor="middle" x="1049.42" y="-535.576" font-family="Times,serif" font-size="14.00">doc.go</text>
<text text-anchor="middle" x="1049.42" y="-521.576" font-family="Times,serif" font-size="14.00">json_logger.go</text>
<text text-anchor="middle" x="1049.42" y="-507.576" font-family="Times,serif" font-size="14.00">log.go</text>
<text text-anchor="middle" x="1049.42" y="-493.576" font-family="Times,serif" font-size="14.00">logfmt_logger.go</text>
<text text-anchor="middle" x="1049.42" y="-479.576" font-family="Times,serif" font-size="14.00">nop_logger.go</text>
<text text-anchor="middle" x="1049.42" y="-465.576" font-family="Times,serif" font-size="14.00">stdlib.go</text>
<text text-anchor="middle" x="1049.42" y="-451.576" font-family="Times,serif" font-size="14.00">sync.go</text>
<text text-anchor="middle" x="1049.42" y="-437.576" font-family="Times,serif" font-size="14.00">value.go</text>
</g>
<!-- github.com/micromdm/scep/cmd/scepserver&#45;&gt;github.com/go&#45;kit/kit/log -->
<g id="edge1" class="edge"><title>github.com/micromdm/scep/cmd/scepserver&#45;&gt;github.com/go&#45;kit/kit/log</title>
<path fill="none" stroke="black" d="M227.084,-305.855C261.404,-317.753 300.595,-331.109 336.432,-342.776 461.783,-383.581 492.09,-397.861 619.994,-429.776 736.664,-458.887 873.346,-483.805 960.379,-498.539"/>
<polygon fill="black" stroke="black" points="970.479,-500.241 959.871,-503.017 965.549,-499.41 960.618,-498.579 960.618,-498.579 960.618,-498.579 965.549,-499.41 961.366,-494.142 970.479,-500.241 970.479,-500.241"/>
</g>
<!-- github.com/micromdm/scep/server -->
<g id="node5" class="node"><title>github.com/micromdm/scep/server</title>
<polygon fill="none" stroke="black" points="336.432,-211.776 336.432,-333.776 547.994,-333.776 547.994,-211.776 336.432,-211.776"/>
<text text-anchor="middle" x="442.213" y="-318.576" font-family="Times,serif" font-size="14.00">scepserver</text>
<polyline fill="none" stroke="black" points="336.432,-311.776 547.994,-311.776 "/>
<text text-anchor="middle" x="442.213" y="-296.576" font-family="Times,serif" font-size="14.00">github.com/micromdm/scep/server</text>
<polyline fill="none" stroke="black" points="336.432,-289.776 547.994,-289.776 "/>
<text text-anchor="middle" x="442.213" y="-274.576" font-family="Times,serif" font-size="14.00">depot.go</text>
<text text-anchor="middle" x="442.213" y="-260.576" font-family="Times,serif" font-size="14.00">endpoint.go</text>
<text text-anchor="middle" x="442.213" y="-246.576" font-family="Times,serif" font-size="14.00">service.go</text>
<text text-anchor="middle" x="442.213" y="-232.576" font-family="Times,serif" font-size="14.00">service_logging.go</text>
<text text-anchor="middle" x="442.213" y="-218.576" font-family="Times,serif" font-size="14.00">transport.go</text>
</g>
<!-- github.com/micromdm/scep/cmd/scepserver&#45;&gt;github.com/micromdm/scep/server -->
<g id="edge4" class="edge"><title>github.com/micromdm/scep/cmd/scepserver&#45;&gt;github.com/micromdm/scep/server</title>
<path fill="none" stroke="black" d="M264.728,-272.776C285.149,-272.776 306.109,-272.776 326.13,-272.776"/>
<polygon fill="black" stroke="black" points="336.19,-272.776 326.19,-277.276 331.19,-272.776 326.19,-272.776 326.19,-272.776 326.19,-272.776 331.19,-272.776 326.19,-268.276 336.19,-272.776 336.19,-272.776"/>
</g>
<!-- golang.org/x/net/context -->
<g id="node8" class="node"><title>golang.org/x/net/context</title>
<polygon fill="none" stroke="black" points="1277.88,-156.776 1277.88,-250.776 1430.88,-250.776 1430.88,-156.776 1277.88,-156.776"/>
<text text-anchor="middle" x="1354.38" y="-235.576" font-family="Times,serif" font-size="14.00">context</text>
<polyline fill="none" stroke="black" points="1277.88,-228.776 1430.88,-228.776 "/>
<text text-anchor="middle" x="1354.38" y="-213.576" font-family="Times,serif" font-size="14.00">golang.org/x/net/context</text>
<polyline fill="none" stroke="black" points="1277.88,-206.776 1430.88,-206.776 "/>
<text text-anchor="middle" x="1354.38" y="-191.576" font-family="Times,serif" font-size="14.00">context.go</text>
<text text-anchor="middle" x="1354.38" y="-177.576" font-family="Times,serif" font-size="14.00">go17.go</text>
<text text-anchor="middle" x="1354.38" y="-163.576" font-family="Times,serif" font-size="14.00">pre_go17.go</text>
</g>
<!-- github.com/micromdm/scep/cmd/scepserver&#45;&gt;golang.org/x/net/context -->
<g id="edge17" class="edge"><title>github.com/micromdm/scep/cmd/scepserver&#45;&gt;golang.org/x/net/context</title>
<path fill="none" stroke="black" d="M188.398,-239.665C276.129,-189.112 454.461,-94.763 619.994,-58.7755 868.483,-4.75339 955.33,37.8864 1192.14,-54.7755 1240.28,-73.6127 1282.67,-114.312 1311.89,-148.421"/>
<polygon fill="black" stroke="black" points="1318.66,-156.482 1308.78,-151.718 1315.44,-152.653 1312.23,-148.824 1312.23,-148.824 1312.23,-148.824 1315.44,-152.653 1315.67,-145.931 1318.66,-156.482 1318.66,-156.482"/>
</g>
<!-- github.com/go&#45;logfmt/logfmt -->
<g id="node3" class="node"><title>github.com/go&#45;logfmt/logfmt</title>
<polygon fill="none" stroke="black" points="1264.14,-394.776 1264.14,-516.776 1444.63,-516.776 1444.63,-394.776 1264.14,-394.776"/>
<text text-anchor="middle" x="1354.38" y="-501.576" font-family="Times,serif" font-size="14.00">logfmt</text>
<polyline fill="none" stroke="black" points="1264.14,-494.776 1444.63,-494.776 "/>
<text text-anchor="middle" x="1354.38" y="-479.576" font-family="Times,serif" font-size="14.00">github.com/go&#45;logfmt/logfmt</text>
<polyline fill="none" stroke="black" points="1264.14,-472.776 1444.63,-472.776 "/>
<text text-anchor="middle" x="1354.38" y="-457.576" font-family="Times,serif" font-size="14.00">decode.go</text>
<text text-anchor="middle" x="1354.38" y="-443.576" font-family="Times,serif" font-size="14.00">doc.go</text>
<text text-anchor="middle" x="1354.38" y="-429.576" font-family="Times,serif" font-size="14.00">encode.go</text>
<text text-anchor="middle" x="1354.38" y="-415.576" font-family="Times,serif" font-size="14.00">fuzz.go</text>
<text text-anchor="middle" x="1354.38" y="-401.576" font-family="Times,serif" font-size="14.00">jsonstring.go</text>
</g>
<!-- github.com/go&#45;kit/kit/log&#45;&gt;github.com/go&#45;logfmt/logfmt -->
<g id="edge2" class="edge"><title>github.com/go&#45;kit/kit/log&#45;&gt;github.com/go&#45;logfmt/logfmt</title>
<path fill="none" stroke="black" d="M1128.05,-498.171C1166.35,-490.964 1213,-482.188 1253.89,-474.494"/>
<polygon fill="black" stroke="black" points="1263.88,-472.614 1254.89,-478.886 1258.97,-473.539 1254.05,-474.463 1254.05,-474.463 1254.05,-474.463 1258.97,-473.539 1253.22,-470.041 1263.88,-472.614 1263.88,-472.614"/>
</g>
<!-- github.com/go&#45;stack/stack -->
<g id="node4" class="node"><title>github.com/go&#45;stack/stack</title>
<polygon fill="none" stroke="black" points="1272.71,-535.776 1272.71,-601.776 1436.06,-601.776 1436.06,-535.776 1272.71,-535.776"/>
<text text-anchor="middle" x="1354.38" y="-586.576" font-family="Times,serif" font-size="14.00">stack</text>
<polyline fill="none" stroke="black" points="1272.71,-579.776 1436.06,-579.776 "/>
<text text-anchor="middle" x="1354.38" y="-564.576" font-family="Times,serif" font-size="14.00">github.com/go&#45;stack/stack</text>
<polyline fill="none" stroke="black" points="1272.71,-557.776 1436.06,-557.776 "/>
<text text-anchor="middle" x="1354.38" y="-542.576" font-family="Times,serif" font-size="14.00">stack.go</text>
</g>
<!-- github.com/go&#45;kit/kit/log&#45;&gt;github.com/go&#45;stack/stack -->
<g id="edge3" class="edge"><title>github.com/go&#45;kit/kit/log&#45;&gt;github.com/go&#45;stack/stack</title>
<path fill="none" stroke="black" d="M1128.05,-527.124C1169.12,-534.715 1219.77,-544.079 1262.65,-552.004"/>
<polygon fill="black" stroke="black" points="1272.52,-553.829 1261.87,-556.436 1267.6,-552.92 1262.69,-552.011 1262.69,-552.011 1262.69,-552.011 1267.6,-552.92 1263.5,-547.586 1272.52,-553.829 1272.52,-553.829"/>
</g>
<!-- github.com/micromdm/scep/server&#45;&gt;github.com/go&#45;kit/kit/log -->
<g id="edge8" class="edge"><title>github.com/micromdm/scep/server&#45;&gt;github.com/go&#45;kit/kit/log</title>
<path fill="none" stroke="black" d="M538.391,-334.031C564.254,-349.205 592.678,-364.591 619.994,-376.776 734.025,-427.64 872.874,-468.05 960.973,-491.204"/>
<polygon fill="black" stroke="black" points="970.663,-493.734 959.85,-495.561 965.825,-492.471 960.988,-491.207 960.988,-491.207 960.988,-491.207 965.825,-492.471 962.125,-486.853 970.663,-493.734 970.663,-493.734"/>
</g>
<!-- github.com/micromdm/scep/scep -->
<g id="node6" class="node"><title>github.com/micromdm/scep/scep</title>
<polygon fill="none" stroke="black" points="626.229,-110.776 626.229,-176.776 828.467,-176.776 828.467,-110.776 626.229,-110.776"/>
<text text-anchor="middle" x="727.348" y="-161.576" font-family="Times,serif" font-size="14.00">scep</text>
<polyline fill="none" stroke="black" points="626.229,-154.776 828.467,-154.776 "/>
<text text-anchor="middle" x="727.348" y="-139.576" font-family="Times,serif" font-size="14.00">github.com/micromdm/scep/scep</text>
<polyline fill="none" stroke="black" points="626.229,-132.776 828.467,-132.776 "/>
<text text-anchor="middle" x="727.348" y="-117.576" font-family="Times,serif" font-size="14.00">scep.go</text>
</g>
<!-- github.com/micromdm/scep/server&#45;&gt;github.com/micromdm/scep/scep -->
<g id="edge5" class="edge"><title>github.com/micromdm/scep/server&#45;&gt;github.com/micromdm/scep/scep</title>
<path fill="none" stroke="black" d="M548.239,-224.924C580.044,-210.433 614.491,-194.739 644.538,-181.049"/>
<polygon fill="black" stroke="black" points="653.714,-176.868 646.48,-185.109 649.164,-178.941 644.614,-181.014 644.614,-181.014 644.614,-181.014 649.164,-178.941 642.748,-176.919 653.714,-176.868 653.714,-176.868"/>
</g>
<!-- github.com/micromdm/scep/server&#45;&gt;golang.org/x/net/context -->
<g id="edge7" class="edge"><title>github.com/micromdm/scep/server&#45;&gt;golang.org/x/net/context</title>
<path fill="none" stroke="black" d="M487.127,-211.548C519.085,-172.309 566.083,-124.446 619.994,-100.776 736.456,-49.6416 1071.32,-45.0192 1192.14,-84.7755 1231.88,-97.8528 1269.87,-124.902 1298.98,-149.912"/>
<polygon fill="black" stroke="black" points="1306.56,-156.556 1296.07,-153.353 1302.8,-153.262 1299.04,-149.968 1299.04,-149.968 1299.04,-149.968 1302.8,-153.262 1302,-146.582 1306.56,-156.556 1306.56,-156.556"/>
</g>
<!-- github.com/go&#45;kit/kit/endpoint -->
<g id="node9" class="node"><title>github.com/go&#45;kit/kit/endpoint</title>
<polygon fill="none" stroke="black" points="955.288,-331.776 955.288,-411.776 1143.55,-411.776 1143.55,-331.776 955.288,-331.776"/>
<text text-anchor="middle" x="1049.42" y="-396.576" font-family="Times,serif" font-size="14.00">endpoint</text>
<polyline fill="none" stroke="black" points="955.288,-389.776 1143.55,-389.776 "/>
<text text-anchor="middle" x="1049.42" y="-374.576" font-family="Times,serif" font-size="14.00">github.com/go&#45;kit/kit/endpoint</text>
<polyline fill="none" stroke="black" points="955.288,-367.776 1143.55,-367.776 "/>
<text text-anchor="middle" x="1049.42" y="-352.576" font-family="Times,serif" font-size="14.00">doc.go</text>
<text text-anchor="middle" x="1049.42" y="-338.576" font-family="Times,serif" font-size="14.00">endpoint.go</text>
</g>
<!-- github.com/micromdm/scep/server&#45;&gt;github.com/go&#45;kit/kit/endpoint -->
<g id="edge9" class="edge"><title>github.com/micromdm/scep/server&#45;&gt;github.com/go&#45;kit/kit/endpoint</title>
<path fill="none" stroke="black" d="M548.128,-325.788C571.273,-335.395 596.043,-344.141 619.994,-349.776 728.784,-375.368 857.24,-378.517 944.927,-376.74"/>
<polygon fill="black" stroke="black" points="955.147,-376.507 945.252,-381.234 950.148,-376.621 945.149,-376.735 945.149,-376.735 945.149,-376.735 950.148,-376.621 945.047,-372.236 955.147,-376.507 955.147,-376.507"/>
</g>
<!-- github.com/go&#45;kit/kit/transport/http -->
<g id="node10" class="node"><title>github.com/go&#45;kit/kit/transport/http</title>
<polygon fill="none" stroke="black" points="619.994,-204.776 619.994,-340.776 834.701,-340.776 834.701,-204.776 619.994,-204.776"/>
<text text-anchor="middle" x="727.348" y="-325.576" font-family="Times,serif" font-size="14.00">http</text>
<polyline fill="none" stroke="black" points="619.994,-318.776 834.701,-318.776 "/>
<text text-anchor="middle" x="727.348" y="-303.576" font-family="Times,serif" font-size="14.00">github.com/go&#45;kit/kit/transport/http</text>
<polyline fill="none" stroke="black" points="619.994,-296.776 834.701,-296.776 "/>
<text text-anchor="middle" x="727.348" y="-281.576" font-family="Times,serif" font-size="14.00">client.go</text>
<text text-anchor="middle" x="727.348" y="-267.576" font-family="Times,serif" font-size="14.00">doc.go</text>
<text text-anchor="middle" x="727.348" y="-253.576" font-family="Times,serif" font-size="14.00">encode_decode.go</text>
<text text-anchor="middle" x="727.348" y="-239.576" font-family="Times,serif" font-size="14.00">err.go</text>
<text text-anchor="middle" x="727.348" y="-225.576" font-family="Times,serif" font-size="14.00">request_response_funcs.go</text>
<text text-anchor="middle" x="727.348" y="-211.576" font-family="Times,serif" font-size="14.00">server.go</text>
</g>
<!-- github.com/micromdm/scep/server&#45;&gt;github.com/go&#45;kit/kit/transport/http -->
<g id="edge11" class="edge"><title>github.com/micromdm/scep/server&#45;&gt;github.com/go&#45;kit/kit/transport/http</title>
<path fill="none" stroke="black" d="M548.239,-272.776C568.165,-272.776 589.127,-272.776 609.395,-272.776"/>
<polygon fill="black" stroke="black" points="619.6,-272.776 609.6,-277.276 614.6,-272.776 609.6,-272.776 609.6,-272.776 609.6,-272.776 614.6,-272.776 609.6,-268.276 619.6,-272.776 619.6,-272.776"/>
</g>
<!-- github.com/micromdm/scep/scep/internal/pkcs7 -->
<g id="node7" class="node"><title>github.com/micromdm/scep/scep/internal/pkcs7</title>
<polygon fill="none" stroke="black" points="906.701,-94.7755 906.701,-174.776 1192.14,-174.776 1192.14,-94.7755 906.701,-94.7755"/>
<text text-anchor="middle" x="1049.42" y="-159.576" font-family="Times,serif" font-size="14.00">pkcs7</text>
<polyline fill="none" stroke="black" points="906.701,-152.776 1192.14,-152.776 "/>
<text text-anchor="middle" x="1049.42" y="-137.576" font-family="Times,serif" font-size="14.00">github.com/micromdm/scep/scep/internal/pkcs7</text>
<polyline fill="none" stroke="black" points="906.701,-130.776 1192.14,-130.776 "/>
<text text-anchor="middle" x="1049.42" y="-115.576" font-family="Times,serif" font-size="14.00">ber.go</text>
<text text-anchor="middle" x="1049.42" y="-101.576" font-family="Times,serif" font-size="14.00">pkcs7.go</text>
</g>
<!-- github.com/micromdm/scep/scep&#45;&gt;github.com/micromdm/scep/scep/internal/pkcs7 -->
<g id="edge6" class="edge"><title>github.com/micromdm/scep/scep&#45;&gt;github.com/micromdm/scep/scep/internal/pkcs7</title>
<path fill="none" stroke="black" d="M828.742,-140.953C850.222,-140.349 873.375,-139.698 896.31,-139.053"/>
<polygon fill="black" stroke="black" points="906.471,-138.767 896.602,-143.546 901.473,-138.908 896.475,-139.048 896.475,-139.048 896.475,-139.048 901.473,-138.908 896.349,-134.55 906.471,-138.767 906.471,-138.767"/>
</g>
<!-- github.com/go&#45;kit/kit/endpoint&#45;&gt;golang.org/x/net/context -->
<g id="edge10" class="edge"><title>github.com/go&#45;kit/kit/endpoint&#45;&gt;golang.org/x/net/context</title>
<path fill="none" stroke="black" d="M1143.57,-343.31C1160.11,-337.026 1176.91,-329.811 1192.14,-321.776 1226.07,-303.876 1260.77,-279.422 1289.25,-257.416"/>
<polygon fill="black" stroke="black" points="1297.49,-250.98 1292.38,-260.68 1293.55,-254.056 1289.61,-257.133 1289.61,-257.133 1289.61,-257.133 1293.55,-254.056 1286.84,-253.586 1297.49,-250.98 1297.49,-250.98"/>
</g>
<!-- github.com/go&#45;kit/kit/transport/http&#45;&gt;github.com/go&#45;kit/kit/log -->
<g id="edge16" class="edge"><title>github.com/go&#45;kit/kit/transport/http&#45;&gt;github.com/go&#45;kit/kit/log</title>
<path fill="none" stroke="black" d="M806.661,-341.119C837.237,-366.904 872.993,-395.98 906.701,-420.776 924.323,-433.739 943.706,-446.957 962.327,-459.181"/>
<polygon fill="black" stroke="black" points="970.82,-464.723 959.986,-463.027 966.633,-461.991 962.445,-459.258 962.445,-459.258 962.445,-459.258 966.633,-461.991 964.904,-455.49 970.82,-464.723 970.82,-464.723"/>
</g>
<!-- github.com/go&#45;kit/kit/transport/http&#45;&gt;golang.org/x/net/context -->
<g id="edge12" class="edge"><title>github.com/go&#45;kit/kit/transport/http&#45;&gt;golang.org/x/net/context</title>
<path fill="none" stroke="black" d="M834.975,-238.568C858.383,-232.275 883.2,-226.518 906.701,-222.776 1031.07,-202.971 1177.21,-200.638 1267.58,-201.585"/>
<polygon fill="black" stroke="black" points="1277.77,-201.709 1267.72,-206.087 1272.77,-201.648 1267.77,-201.588 1267.77,-201.588 1267.77,-201.588 1272.77,-201.648 1267.83,-197.088 1277.77,-201.709 1277.77,-201.709"/>
</g>
<!-- github.com/go&#45;kit/kit/transport/http&#45;&gt;github.com/go&#45;kit/kit/endpoint -->
<g id="edge15" class="edge"><title>github.com/go&#45;kit/kit/transport/http&#45;&gt;github.com/go&#45;kit/kit/endpoint</title>
<path fill="none" stroke="black" d="M834.927,-305.741C870.5,-316.744 910.053,-328.978 945.353,-339.896"/>
<polygon fill="black" stroke="black" points="955.19,-342.939 944.307,-344.283 950.414,-341.462 945.637,-339.984 945.637,-339.984 945.637,-339.984 950.414,-341.462 946.967,-335.685 955.19,-342.939 955.19,-342.939"/>
</g>
<!-- golang.org/x/net/context/ctxhttp -->
<g id="node11" class="node"><title>golang.org/x/net/context/ctxhttp</title>
<polygon fill="none" stroke="black" points="951.535,-232.776 951.535,-312.776 1147.31,-312.776 1147.31,-232.776 951.535,-232.776"/>
<text text-anchor="middle" x="1049.42" y="-297.576" font-family="Times,serif" font-size="14.00">ctxhttp</text>
<polyline fill="none" stroke="black" points="951.535,-290.776 1147.31,-290.776 "/>
<text text-anchor="middle" x="1049.42" y="-275.576" font-family="Times,serif" font-size="14.00">golang.org/x/net/context/ctxhttp</text>
<polyline fill="none" stroke="black" points="951.535,-268.776 1147.31,-268.776 "/>
<text text-anchor="middle" x="1049.42" y="-253.576" font-family="Times,serif" font-size="14.00">ctxhttp.go</text>
<text text-anchor="middle" x="1049.42" y="-239.576" font-family="Times,serif" font-size="14.00">ctxhttp_pre17.go</text>
</g>
<!-- github.com/go&#45;kit/kit/transport/http&#45;&gt;golang.org/x/net/context/ctxhttp -->
<g id="edge13" class="edge"><title>github.com/go&#45;kit/kit/transport/http&#45;&gt;golang.org/x/net/context/ctxhttp</title>
<path fill="none" stroke="black" d="M834.927,-272.776C869.189,-272.776 907.144,-272.776 941.435,-272.776"/>
<polygon fill="black" stroke="black" points="951.475,-272.776 941.475,-277.276 946.475,-272.776 941.475,-272.776 941.475,-272.776 941.475,-272.776 946.475,-272.776 941.475,-268.276 951.475,-272.776 951.475,-272.776"/>
</g>
<!-- golang.org/x/net/context/ctxhttp&#45;&gt;golang.org/x/net/context -->
<g id="edge14" class="edge"><title>golang.org/x/net/context/ctxhttp&#45;&gt;golang.org/x/net/context</title>
<path fill="none" stroke="black" d="M1147.53,-250.659C1186.14,-241.866 1230.18,-231.836 1267.59,-223.315"/>
<polygon fill="black" stroke="black" points="1277.45,-221.069 1268.7,-227.677 1272.58,-222.179 1267.7,-223.29 1267.7,-223.29 1267.7,-223.29 1272.58,-222.179 1266.7,-218.902 1277.45,-221.069 1277.45,-221.069"/>
</g>
</g>
</svg>
